<?xml version="1.0" standalone="no"?>
<!DOCTYPE svg PUBLIC "-//W3C//DTD SVG 20010904//EN"
 "http://www.w3.org/TR/2001/REC-SVG-20010904/DTD/svg10.dtd">
<svg version="1.0" xmlns="http://www.w3.org/2000/svg"
 width="500.000000pt" height="333.000000pt" viewBox="0 0 500.000000 333.000000"
 preserveAspectRatio="xMidYMid meet">

<g transform="translate(0.000000,333.000000) scale(0.100000,-0.100000)"
fill="#000000" stroke="none">
<path d="M2685 3318 c289 -72 397 -100 435 -113 l45 -15 -39 4 c-22 3 -80 16
-130 30 -208 56 -250 66 -260 56 -11 -11 -7 -13 99 -35 44 -10 100 -23 125
-31 79 -23 318 -84 332 -84 8 1 6 7 -7 17 -19 15 -18 15 14 9 94 -17 110 -25
108 -53 -3 -38 28 -50 148 -59 55 -3 105 -10 111 -15 7 -5 15 -34 19 -64 8
-64 25 -64 25 0 0 50 18 63 66 45 47 -18 192 -50 228 -50 58 0 63 15 65 203
l1 167 -119 0 -119 0 -4 -52 c-4 -39 0 -62 14 -86 10 -18 18 -35 18 -38 0 -11
-73 -2 -95 12 -13 9 -28 13 -33 10 -6 -3 -24 -1 -42 5 -25 9 -34 9 -40 -1 -6
-10 -29 -7 -106 14 -55 15 -117 31 -139 37 -62 16 -108 30 -130 38 -36 14 -89
30 -128 37 -20 3 -40 10 -43 15 -3 5 -107 9 -232 8 -173 -1 -217 -3 -187 -11z
m1002 -154 c-3 -3 -12 -4 -19 -1 -8 3 -5 6 6 6 11 1 17 -2 13 -5z"/>
<path d="M4180 3273 c0 -32 -5 -220 -11 -418 -6 -198 -9 -389 -7 -425 l3 -65
22 36 c21 33 22 48 24 235 1 109 5 253 9 319 4 66 11 177 14 248 l7 127 -31 0
c-30 0 -30 0 -30 -57z"/>
<path d="M2776 2914 c-3 -9 -6 -35 -6 -59 0 -41 2 -44 34 -55 35 -11 94 -4 79
10 -4 5 -19 10 -33 13 -19 3 -16 5 12 6 l36 1 -11 37 c-9 28 -9 37 1 41 31 10
6 22 -47 22 -44 0 -60 -4 -65 -16z"/>
<path d="M2943 2923 c9 -2 23 -2 30 0 6 3 -1 5 -18 5 -16 0 -22 -2 -12 -5z"/>
<path d="M3025 2910 c3 -5 8 -10 11 -10 2 0 4 5 4 10 0 6 -5 10 -11 10 -5 0
-7 -4 -4 -10z"/>
<path d="M3026 2851 c-4 -6 -4 -15 -1 -21 6 -9 -14 -16 -70 -23 -16 -2 -4 -5
28 -6 42 -1 59 3 63 13 8 20 -11 53 -20 37z"/>
<path d="M292 2764 c-5 -11 -7 -25 -5 -32 10 -28 -11 -67 -66 -126 -60 -64
-152 -203 -195 -296 -23 -49 -26 -68 -26 -167 0 -71 4 -113 10 -113 6 0 19
-19 29 -42 39 -92 34 -169 -14 -227 -23 -26 -25 -38 -25 -120 0 -85 2 -92 22
-100 12 -4 40 -3 62 2 23 6 93 11 156 11 63 1 120 4 126 8 6 4 14 30 16 57 3
29 14 60 26 76 26 33 27 55 7 113 -9 26 -13 57 -9 77 4 24 -1 46 -20 83 -33
66 -35 150 -5 207 11 22 26 72 34 110 18 92 30 122 55 137 11 7 20 22 20 33 0
11 9 38 19 60 15 33 26 43 68 58 47 17 54 17 122 2 56 -13 75 -14 86 -5 11 10
12 15 2 25 -7 8 -25 32 -42 55 -37 51 -60 57 -118 31 -73 -33 -117 -36 -150
-11 -16 13 -27 31 -27 45 0 32 -32 52 -97 61 -44 5 -52 4 -61 -12z m52 -337
c14 -10 15 -18 7 -39 -9 -25 -56 -58 -81 -58 -18 0 -11 69 10 90 23 23 39 25
64 7z m-127 -278 c12 -12 5 -98 -10 -116 -5 -7 -20 -13 -32 -13 -45 0 -63 56
-32 97 34 45 53 53 74 32z m-27 -539 c0 -32 -4 -40 -18 -40 -14 0 -19 8 -20
32 -1 38 4 48 24 48 10 0 14 -12 14 -40z"/>
<path d="M2766 2598 c-17 -24 -14 -33 7 -25 16 6 30 47 17 47 -5 0 -16 -10
-24 -22z"/>
<path d="M1315 2571 c-42 -19 -135 -113 -135 -136 0 -8 -15 -33 -34 -58 -56
-73 -59 -82 -31 -97 20 -11 33 -10 77 2 l53 15 -1 44 c-1 29 4 47 13 52 8 5
18 19 23 32 8 22 12 23 39 12 35 -13 54 0 104 72 l30 44 -23 19 c-28 22 -63
22 -115 -1z"/>
<path d="M3567 2464 c-3 -3 -3 -12 -1 -19 7 -17 -18 -64 -46 -90 -44 -39 -100
-153 -100 -203 0 -27 33 -42 94 -42 39 0 66 -13 66 -32 0 -4 -25 -8 -55 -8
-55 0 -76 -16 -35 -27 35 -9 23 -69 -17 -84 -23 -9 -24 -10 -22 -136 1 -109 3
-125 15 -109 9 13 20 17 39 12 14 -4 35 -1 46 5 19 10 21 17 15 59 -7 50 5
103 18 82 11 -19 61 -14 87 8 13 10 18 19 12 20 -7 0 -13 9 -13 20 0 22 15 27
26 9 3 -6 17 -8 30 -5 20 5 26 1 36 -21 10 -25 16 -74 17 -141 1 -37 24 -20
33 23 11 50 34 75 69 75 36 0 52 28 43 75 -7 38 1 43 32 20 10 -8 27 -15 37
-15 10 0 20 -7 23 -15 4 -8 15 -15 26 -15 13 0 18 5 15 14 -4 9 2 17 14 21 23
8 24 24 4 72 -12 29 -18 33 -29 24 -11 -9 -20 -6 -42 14 -26 24 -28 24 -46 9
-10 -10 -18 -25 -18 -36 0 -10 -4 -18 -9 -18 -5 0 -11 -10 -14 -22 -5 -18 -8
-19 -21 -8 -24 19 -19 44 15 74 26 23 29 32 24 59 -16 76 -38 139 -54 155 -12
12 -16 25 -11 42 l7 25 34 -37 c39 -42 74 -49 84 -17 4 11 4 23 1 26 -3 3 1
11 9 17 10 8 12 24 8 59 -5 45 -7 47 -36 47 -17 0 -38 -7 -47 -15 -14 -13 -20
-12 -51 11 -30 21 -53 26 -150 34 -135 11 -154 12 -162 4z m153 -29 c0 -9 -9
-15 -25 -15 -16 0 -25 6 -25 15 0 9 9 15 25 15 16 0 25 -6 25 -15z m110 -26
c0 -18 -2 -19 -15 -9 -15 12 -12 30 6 30 5 0 9 -10 9 -21z m-6 -105 c20 -8 21
-40 2 -47 -19 -7 -40 18 -32 38 6 17 8 17 30 9z m-64 -55 c0 -5 5 -7 10 -4 6
3 10 -3 10 -15 0 -15 -5 -20 -17 -18 -19 3 -32 48 -14 48 6 0 11 -5 11 -11z
m-29 -80 c4 -7 5 -18 2 -26 -3 -7 2 -16 11 -19 9 -3 16 -12 16 -20 0 -30 -115
-6 -125 26 -3 11 -1 29 5 41 10 18 18 20 48 16 19 -4 39 -12 43 -18z m-51
-154 c0 -8 -7 -15 -15 -15 -8 0 -15 7 -15 15 0 8 7 15 15 15 8 0 15 -7 15 -15z"/>
<path d="M3967 2203 c-4 -3 -7 -21 -7 -40 0 -32 1 -32 20 -16 11 10 20 23 20
29 0 15 -25 36 -33 27z"/>
<path d="M4147 2193 c-10 -16 -17 -86 -12 -105 4 -10 13 -18 21 -18 11 0 14
15 14 59 0 54 -11 84 -23 64z"/>
<path d="M2458 2143 c12 -2 32 -2 45 0 12 2 2 4 -23 4 -25 0 -35 -2 -22 -4z"/>
<path d="M2578 2143 c12 -2 32 -2 45 0 12 2 2 4 -23 4 -25 0 -35 -2 -22 -4z"/>
<path d="M1142 1997 c-6 -7 -14 -41 -18 -77 -8 -78 -15 -94 -54 -117 -17 -9
-30 -22 -30 -29 0 -24 93 -150 122 -164 29 -14 29 -16 24 -70 -4 -30 -11 -124
-16 -209 -6 -85 -14 -157 -19 -160 -26 -17 -40 -75 -46 -187 -4 -65 -13 -136
-21 -156 -7 -21 -17 -63 -20 -93 -4 -31 -11 -58 -15 -61 -5 -3 -9 -14 -9 -24
0 -11 -14 -33 -31 -51 -24 -25 -29 -37 -24 -58 12 -52 28 -82 41 -77 8 3 36
-6 62 -20 28 -14 70 -27 98 -28 27 -2 75 -15 107 -31 32 -15 59 -25 60 -24 20
33 36 85 31 103 -10 42 14 105 49 126 38 24 90 26 107 5 18 -22 6 -41 -39 -61
-23 -10 -41 -21 -41 -25 0 -15 20 -20 37 -10 10 5 38 12 63 16 38 5 50 3 70
-14 22 -17 23 -22 12 -41 -28 -46 32 -56 76 -13 15 15 34 27 43 28 10 1 23 6
31 12 7 6 24 13 38 16 14 4 41 20 60 37 35 30 36 30 184 35 158 6 246 18 256
36 7 11 20 262 20 391 0 66 -3 80 -17 85 -10 4 -22 13 -26 20 -7 11 -15 8 -38
-12 -44 -36 -84 -33 -110 8 -27 42 -21 95 20 183 24 52 29 69 19 76 -22 13
-34 9 -46 -16 -8 -18 -7 -27 5 -38 13 -14 11 -21 -19 -66 -39 -60 -77 -81
-112 -62 -26 13 -60 11 -58 -5 1 -5 18 -13 39 -17 21 -4 50 -15 66 -23 15 -9
27 -13 27 -8 1 4 8 -4 16 -20 11 -20 12 -32 4 -46 -5 -11 -10 -93 -11 -188 -1
-172 -8 -230 -23 -204 -5 7 -7 52 -6 100 2 47 4 131 4 186 1 95 0 100 -21 103
-12 2 -27 10 -33 18 -16 18 -54 18 -69 0 -7 -8 -11 -62 -10 -152 0 -145 -7
-220 -23 -241 -8 -10 -19 -8 -50 8 -29 15 -53 19 -82 16 -79 -9 -141 -29 -167
-53 -14 -13 -32 -24 -41 -24 -21 0 -68 56 -68 80 0 24 -31 34 -63 19 -21 -9
-34 -8 -67 5 -22 9 -67 16 -100 16 -83 0 -100 18 -99 103 1 85 10 109 47 132
27 17 31 25 30 58 -1 21 -5 40 -9 43 -11 6 -8 437 3 451 5 7 5 14 -2 18 -7 4
-9 21 -5 44 5 29 1 47 -15 74 -23 39 -20 56 22 94 14 13 41 23 73 26 28 3 65
9 83 12 32 7 33 8 12 22 -11 8 -32 32 -46 54 -13 22 -32 39 -42 39 -10 0 -29
12 -43 26 -25 28 -98 64 -129 64 -9 0 -22 -6 -28 -13z m798 -1373 c0 -8 -4
-14 -10 -14 -5 0 -10 9 -10 21 0 11 5 17 10 14 6 -3 10 -13 10 -21z"/>
<path d="M3041 1984 c0 -11 3 -14 6 -6 3 7 2 16 -1 19 -3 4 -6 -2 -5 -13z"/>
<path d="M4140 1930 c0 -11 5 -20 10 -20 6 0 10 9 10 20 0 11 -4 20 -10 20 -5
0 -10 -9 -10 -20z"/>
<path d="M717 1916 c-50 -18 -107 -63 -107 -84 0 -10 -25 -37 -55 -60 -58 -45
-65 -63 -39 -100 14 -21 16 -21 33 -4 10 9 24 27 30 40 9 17 20 22 49 22 21 0
43 -5 49 -11 9 -9 16 -7 29 6 21 20 82 15 100 -10 15 -20 54 -20 54 1 0 8 5
12 10 9 14 -9 68 16 75 34 3 7 -2 39 -11 70 -9 31 -18 62 -20 69 -2 6 -14 12
-28 12 -14 0 -28 5 -31 10 -9 14 -93 12 -138 -4z"/>
<path d="M1891 1911 c-9 -6 -11 -18 -7 -37 11 -44 25 -54 73 -54 24 0 53 -4
63 -10 13 -7 19 -6 24 6 5 13 22 16 94 14 164 -5 181 0 161 43 -7 15 -15 27
-18 27 -3 0 -80 2 -171 4 -91 2 -174 6 -185 10 -11 3 -26 2 -34 -3z m339 -55
c0 -11 -19 -15 -25 -6 -3 5 1 10 9 10 9 0 16 -2 16 -4z"/>
<path d="M1663 1890 c-45 -10 -97 -43 -101 -63 -3 -15 6 -17 66 -17 39 0 77
-2 84 -5 18 -7 82 35 86 56 6 31 -63 46 -135 29z"/>
<path d="M3166 1891 c-4 -7 -5 -15 -2 -18 9 -9 19 4 14 18 -4 11 -6 11 -12 0z"/>
<path d="M3127 1853 c-9 -9 -9 -75 1 -90 4 -6 7 13 7 43 0 30 0 54 -1 54 0 0
-4 -3 -7 -7z"/>
<path d="M2001 1775 c-30 -17 -32 -27 -38 -195 -4 -127 -3 -137 16 -155 12
-10 21 -24 21 -32 0 -20 9 -16 38 18 24 30 28 31 76 24 28 -4 72 -8 99 -9 46
-2 48 -1 86 48 21 28 43 61 49 73 18 32 15 164 -4 201 -8 18 -16 32 -17 32 -1
0 -17 -4 -36 -10 -19 -5 -39 -6 -44 -3 -6 4 -47 7 -92 8 -44 0 -91 3 -105 7
-14 4 -35 1 -49 -7z m34 -48 c11 -8 14 -16 8 -20 -6 -4 -18 2 -28 13 -21 23
-8 27 20 7z"/>
<path d="M3155 1731 c-3 -5 -1 -12 5 -16 5 -3 10 1 10 9 0 18 -6 21 -15 7z"/>
<path d="M2749 1710 c-22 -41 -18 -157 9 -205 12 -22 22 -49 23 -60 0 -20 0
-20 9 0 14 33 11 123 -5 162 -13 31 -13 38 -1 52 17 20 17 51 0 51 -7 0 -14 6
-16 12 -3 8 -10 3 -19 -12z"/>
<path d="M500 1621 c-15 -28 -12 -48 6 -55 34 -13 59 35 32 62 -17 17 -26 15
-38 -7z"/>
<path d="M1326 1611 c-3 -5 0 -11 8 -14 15 -6 26 1 26 15 0 11 -27 10 -34 -1z"/>
<path d="M3381 1609 c-14 -5 -37 -7 -53 -4 -17 4 -28 2 -28 -4 0 -6 8 -11 17
-11 9 0 32 -5 50 -12 29 -10 36 -10 43 2 12 18 13 40 3 39 -5 0 -19 -5 -32
-10z"/>
<path d="M3517 1592 c-22 -24 -21 -34 4 -66 29 -36 48 -20 46 40 -2 49 -21 59
-50 26z"/>
<path d="M4072 1475 c2 -14 8 -26 13 -26 6 0 11 12 13 26 2 18 -1 25 -13 25
-12 0 -15 -7 -13 -25z"/>
<path d="M1340 1460 c-12 -7 -12 -12 -2 -22 9 -9 15 -9 24 0 8 8 9 15 2 22 -5
5 -15 6 -24 0z"/>
<path d="M3397 1443 c-5 -7 -10 -23 -12 -35 -7 -36 -28 -50 -57 -39 -30 11
-38 6 -38 -24 0 -21 4 -22 45 -17 53 5 64 -9 41 -53 -13 -24 -13 -30 0 -42 8
-8 14 -18 14 -22 0 -15 -48 -52 -76 -60 -38 -10 -47 -56 -14 -66 33 -10 110 4
117 22 9 22 23 -4 23 -44 0 -32 1 -33 43 -33 50 0 70 11 62 33 -4 9 -2 24 3
34 11 19 12 18 27 -34 5 -17 242 -11 276 8 21 10 31 28 43 73 10 32 13 63 9
67 -10 10 -99 -7 -141 -27 -29 -14 -43 -14 -95 -4 -34 7 -75 13 -90 13 -29 0
-29 0 -23 51 11 81 9 167 -3 179 -8 8 -18 7 -36 -3 -20 -10 -28 -11 -37 -2
-18 18 -26 15 -27 -10 -6 -124 -18 -259 -24 -264 -4 -4 -8 51 -8 122 -1 137
-9 198 -22 177z m298 -338 c0 -12 -10 -23 -28 -29 -36 -13 -54 3 -37 34 15 28
65 25 65 -5z"/>
<path d="M2322 1408 c-13 -18 -42 -75 -42 -86 0 -4 16 -8 35 -8 27 0 35 4 35
17 0 10 -5 21 -11 25 -6 3 -9 19 -7 35 5 33 4 34 -10 17z"/>
<path d="M2770 1394 c0 -11 -6 -14 -20 -9 -17 5 -20 2 -19 -22 0 -23 2 -25 8
-9 11 29 22 4 15 -33 -7 -32 -18 -40 -28 -18 -3 6 -3 -4 0 -23 4 -19 12 -46
19 -60 7 -14 11 -32 10 -41 -2 -12 3 -15 16 -12 17 5 19 16 19 100 0 59 -4 92
-10 88 -6 -4 -7 6 -4 25 4 16 4 30 0 30 -3 0 -6 -7 -6 -16z"/>
<path d="M3170 1352 c0 -16 22 -30 41 -25 15 4 17 8 8 19 -12 15 -49 19 -49 6z"/>
<path d="M4140 1310 c0 -5 9 -10 20 -10 11 0 20 5 20 10 0 6 -9 10 -20 10 -11
0 -20 -4 -20 -10z"/>
<path d="M3965 1265 c-14 -13 -25 -34 -25 -46 0 -20 3 -21 47 -15 60 8 93 30
93 61 0 23 -4 25 -45 25 -35 0 -52 -6 -70 -25z"/>
<path d="M331 1219 c-12 -19 -22 -47 -23 -64 -3 -69 0 -93 13 -107 12 -14 18
-13 49 3 19 10 44 30 54 44 14 19 28 25 57 25 33 0 40 4 45 26 4 14 1 44 -7
66 -11 33 -16 38 -33 33 -25 -8 -47 -8 -98 1 -34 6 -39 3 -57 -27z"/>
<path d="M3186 1242 c-2 -4 -1 -14 5 -22 7 -12 9 -10 9 8 0 23 -5 28 -14 14z"/>
<path d="M2253 1176 c-23 -11 -29 -27 -16 -39 7 -8 53 31 53 45 0 10 -9 9 -37
-6z"/>
<path d="M2390 1026 l0 -154 48 2 47 1 0 40 c0 38 -2 40 -32 43 -41 4 -34 32
8 32 26 0 29 4 29 30 0 26 -4 30 -26 30 -14 0 -23 4 -19 10 3 6 1 10 -4 10 -6
0 -11 7 -11 15 0 10 10 15 30 15 27 0 30 3 30 34 0 31 -3 34 -37 40 -21 3 -44
6 -50 6 -10 0 -13 -37 -13 -154z"/>
<path d="M3180 1121 c0 -34 3 -38 20 -34 22 6 27 42 8 61 -21 21 -28 13 -28
-27z"/>
<path d="M3940 1150 c0 -5 5 -10 11 -10 5 0 7 5 4 10 -3 6 -8 10 -11 10 -2 0
-4 -4 -4 -10z"/>
<path d="M3230 1115 c0 -18 5 -25 19 -25 14 0 17 6 13 25 -2 14 -11 25 -18 25
-8 0 -14 -10 -14 -25z"/>
<path d="M1286 1034 c-11 -28 -6 -43 14 -49 12 -4 28 -1 36 6 13 10 12 15 -7
36 -26 27 -35 29 -43 7z"/>
<path d="M2855 890 c-19 -7 -19 -8 -2 -15 19 -8 31 -2 26 13 -2 5 -13 6 -24 2z"/>
<path d="M280 818 c0 -79 8 -102 31 -93 12 5 14 18 8 73 -5 37 -8 73 -8 80 -1
6 -8 12 -16 12 -12 0 -15 -15 -15 -72z"/>
<path d="M2846 853 c-13 -13 8 -23 47 -22 23 1 34 3 25 6 -10 2 -18 8 -18 11
0 8 -47 12 -54 5z"/>
<path d="M497 843 c-4 -3 -7 -16 -7 -27 1 -21 1 -21 15 -2 8 11 15 23 15 28 0
10 -14 11 -23 1z"/>
<path d="M2790 840 c0 -5 7 -7 15 -4 8 4 15 8 15 10 0 2 -7 4 -15 4 -8 0 -15
-4 -15 -10z"/>
<path d="M2422 770 c-7 -12 -16 -18 -21 -15 -5 2 -14 -2 -21 -11 -10 -11 -10
-18 -2 -26 7 -7 12 -8 12 -2 0 5 4 3 8 -3 10 -16 112 -27 112 -13 0 6 11 8 24
4 18 -4 25 -1 28 14 5 18 3 19 -30 10 -39 -11 -52 -1 -52 40 0 29 -40 30 -58
2z m28 -25 c-7 -8 -17 -15 -22 -15 -6 0 -5 7 2 15 7 8 17 15 22 15 6 0 5 -7
-2 -15z"/>
<path d="M319 643 c-28 -44 -36 -87 -48 -242 -6 -76 -13 -116 -23 -122 -17
-11 -26 -11 -33 1 -3 6 -41 10 -83 10 -69 0 -79 3 -104 27 l-28 27 0 -161 0
-160 25 -11 c16 -8 84 -12 180 -12 128 0 159 3 184 17 17 10 31 21 31 26 0 4
-15 30 -34 57 -61 89 -65 114 -32 250 8 36 16 101 16 145 1 44 5 99 9 122 14
71 -23 86 -60 26z"/>
<path d="M786 503 c-12 -12 -6 -33 9 -33 8 0 15 6 15 14 0 17 -14 28 -24 19z"/>
<path d="M4990 343 c-12 -28 -196 -223 -210 -223 -6 0 -10 -7 -10 -16 0 -11
-6 -15 -20 -11 -22 6 -27 -12 -8 -31 9 -9 9 -15 0 -24 -9 -9 -12 -7 -12 11 0
21 -4 22 -57 20 -33 -1 -73 -10 -93 -21 -52 -27 -88 -24 -96 9 l-7 26 -24 -27
c-47 -55 -44 -56 197 -56 213 0 220 1 220 20 0 18 7 20 65 20 l65 0 0 39 c0
31 -4 41 -20 46 -26 8 -25 25 0 53 18 19 20 33 18 100 -2 42 -5 72 -8 65z"/>
<path d="M860 139 c-19 -4 -53 -8 -75 -7 -22 1 -52 -5 -65 -12 -13 -7 -67 -15
-120 -18 -84 -4 -98 -8 -117 -29 -30 -31 -29 -47 2 -61 60 -27 279 1 319 40 7
8 32 20 54 27 46 16 86 47 77 62 -7 11 -27 10 -75 -2z"/>
</g>
</svg>
