<?xml version="1.0" standalone="no"?>
<!DOCTYPE svg PUBLIC "-//W3C//DTD SVG 20010904//EN"
 "http://www.w3.org/TR/2001/REC-SVG-20010904/DTD/svg10.dtd">
<svg version="1.0" xmlns="http://www.w3.org/2000/svg"
 width="500.000000pt" height="500.000000pt" viewBox="0 0 500.000000 500.000000"
 preserveAspectRatio="xMidYMid meet">

<g transform="translate(0.000000,500.000000) scale(0.100000,-0.100000)"
fill="#000000" stroke="none">
<path d="M2161 4549 c-138 -13 -347 -58 -486 -103 -503 -167 -908 -475 -1205
-918 -105 -156 -198 -343 -184 -366 10 -15 36 -17 210 -20 l199 -2 141 -140
c93 -93 148 -140 162 -140 17 0 30 16 58 73 146 291 387 526 689 672 222 107
397 146 650 146 177 -1 299 -19 451 -69 392 -129 694 -387 890 -762 16 -30 37
-56 46 -58 12 -2 68 45 163 137 l145 141 197 2 c248 4 240 -4 159 154 -261
509 -684 895 -1206 1101 -336 133 -717 187 -1079 152z m317 -406 c3 -40 1 -43
-22 -43 -19 0 -26 5 -26 20 0 17 -7 20 -45 20 -45 0 -45 0 -45 -35 0 -35 0
-35 45 -35 41 0 45 -2 45 -24 0 -23 -5 -25 -47 -28 -46 -3 -48 -5 -51 -34 -3
-28 0 -32 29 -38 49 -9 56 -8 62 15 4 13 12 20 24 17 13 -2 19 -14 21 -47 l3
-44 -62 7 c-34 3 -86 6 -115 6 -47 0 -54 2 -54 20 0 11 6 20 14 20 10 0 15 26
20 102 6 86 5 103 -8 110 -9 5 -16 16 -16 24 0 12 18 14 113 12 l112 -3 3 -42z
m-435 16 c28 -15 37 -28 37 -56 0 -31 -45 -33 -53 -3 -8 32 -70 27 -97 -7 -44
-56 -6 -165 59 -171 37 -4 58 10 63 41 5 34 44 35 52 1 13 -50 -58 -100 -131
-91 -133 15 -170 230 -50 282 39 17 91 19 120 4z m720 -29 c86 -27 117 -52
117 -96 0 -34 -28 -74 -52 -74 -6 0 -4 -8 7 -20 13 -14 16 -28 11 -54 -4 -19
-2 -37 3 -40 5 -3 7 -15 4 -26 -4 -16 -11 -19 -27 -14 -41 13 -48 25 -42 75 7
51 0 62 -46 73 -23 5 -27 2 -33 -23 -4 -17 -1 -38 7 -50 21 -34 0 -42 -60 -25
-39 12 -52 20 -52 35 0 12 7 19 19 19 26 0 79 190 56 202 -16 10 -9 38 10 38
7 0 42 -9 78 -20z m-1112 -101 c61 -43 87 -145 54 -209 -32 -61 -126 -82 -185
-40 -61 44 -89 151 -54 209 36 61 128 81 185 40z m1490 -44 c35 -18 49 -31 47
-43 -2 -9 -11 -16 -21 -14 -21 4 -115 -177 -97 -188 9 -6 4 -40 -6 -40 -3 0
-27 11 -55 26 -50 25 -60 46 -23 52 27 4 115 179 96 191 -11 7 -7 41 4 41 3 0
27 -11 55 -25z m305 -191 c46 -36 84 -68 84 -71 0 -3 -11 -18 -23 -33 -18 -21
-28 -25 -40 -18 -11 6 -15 17 -12 31 4 17 -3 27 -27 44 -30 21 -33 21 -50 6
-26 -23 -22 -39 17 -69 34 -25 35 -28 19 -45 -16 -18 -18 -17 -55 11 l-37 30
-23 -31 -22 -32 34 -28 c24 -20 37 -25 46 -17 14 11 43 4 43 -11 0 -5 -10 -22
-23 -37 l-23 -27 -92 69 c-70 52 -89 71 -80 81 6 7 19 13 29 13 25 0 133 144
125 166 -7 18 0 34 15 34 6 0 48 -30 95 -66z m-2206 46 c19 0 50 -45 50 -72 0
-18 5 -28 14 -28 8 0 28 -11 44 -25 17 -14 34 -25 40 -25 5 0 15 -6 21 -14 10
-11 7 -17 -11 -30 -32 -23 -50 -20 -83 14 -34 35 -45 37 -76 11 -23 -18 -23
-19 -5 -46 12 -18 24 -25 36 -22 18 5 35 -17 25 -32 -2 -4 -22 -20 -44 -35
-43 -30 -64 -27 -56 7 8 32 -100 180 -125 172 -11 -4 -20 1 -24 11 -4 9 -5 18
-4 19 2 1 28 20 58 43 61 45 98 63 118 56 8 -2 18 -4 22 -4z m-291 -277 c18
-16 19 -20 7 -36 -12 -15 -18 -16 -35 -8 -16 9 -25 7 -47 -12 -38 -33 -36 -79
7 -123 52 -54 112 -57 144 -7 16 23 16 27 1 41 -13 13 -20 14 -35 5 -14 -9
-22 -9 -34 0 -14 11 -12 17 17 51 l33 39 43 -34 c38 -31 42 -37 37 -71 -7 -49
-33 -83 -85 -109 -38 -19 -49 -20 -82 -10 -140 42 -174 200 -58 271 41 25 60
25 87 3z m2800 -58 c39 -44 49 -90 25 -116 -20 -22 -35 -24 -51 -8 -9 9 -8 17
3 35 14 21 13 25 -14 55 -19 22 -34 30 -45 26 -21 -8 -21 -32 -2 -87 8 -23 15
-55 15 -70 0 -34 -40 -72 -75 -72 -50 0 -111 62 -121 123 -5 31 -2 38 21 53
25 16 29 17 43 2 14 -14 14 -17 -1 -33 -14 -17 -14 -21 -1 -50 17 -34 35 -46
59 -37 19 8 19 35 -1 99 -22 67 -13 102 28 119 41 18 78 5 117 -39z"/>
<path d="M2747 4073 c-2 -5 -7 -20 -11 -36 -5 -23 -3 -29 19 -37 33 -12 65 3
65 30 0 30 -60 65 -73 43z"/>
<path d="M1527 3982 c-37 -40 -3 -155 50 -168 64 -16 98 26 80 98 -19 76 -90
114 -130 70z"/>
<path d="M1161 3773 l-21 -18 21 -32 c20 -31 22 -32 44 -17 30 19 38 40 25 65
-13 24 -41 24 -69 2z"/>
<path d="M2170 3349 c-161 -43 -299 -126 -418 -254 -116 -124 -183 -256 -218
-425 -22 -109 -15 -281 16 -390 158 -560 792 -812 1293 -513 264 157 436 483
413 783 -19 241 -109 437 -271 588 -116 108 -242 177 -390 213 -112 26 -320
26 -425 -2z m322 -134 c32 -3 94 -18 138 -34 266 -97 435 -311 470 -595 36
-293 -125 -589 -394 -719 -114 -56 -183 -71 -326 -71 -114 0 -133 3 -213 31
-151 53 -266 138 -352 258 -96 134 -137 262 -138 425 -1 304 177 559 466 668
84 31 207 52 267 46 14 -2 51 -6 82 -9z"/>
<path d="M180 2833 c0 -10 21 -93 46 -185 l47 -167 -47 -165 c-25 -92 -46
-172 -46 -180 0 -23 24 -26 200 -26 137 0 170 3 180 15 16 19 59 19 84 0 14
-11 48 -13 165 -9 l146 5 -130 -130 -129 -131 -200 -2 c-173 -3 -200 -5 -209
-20 -22 -34 126 -302 272 -493 533 -698 1420 -1032 2286 -860 698 139 1312
615 1620 1253 57 120 63 116 -180 120 l-197 2 -112 110 -111 110 133 0 c120 0
132 2 132 18 0 26 20 42 53 42 23 0 31 -6 40 -30 l11 -30 213 0 213 0 0 23 c0
12 -20 94 -45 181 -25 87 -45 169 -45 180 0 12 20 92 45 178 25 86 45 169 45
183 l0 25 -461 0 c-436 0 -460 -1 -455 -18 36 -111 50 -216 50 -372 0 -247
-27 -345 -141 -523 -205 -321 -541 -560 -908 -647 -125 -30 -219 -41 -356 -41
-539 0 -1026 283 -1298 756 -34 59 -50 97 -47 111 3 12 -4 64 -16 115 -28 125
-30 364 -4 484 10 44 20 92 23 108 l5 27 -436 0 c-409 0 -436 -1 -436 -17z
m3951 -203 c15 -9 19 -22 19 -68 0 -56 -1 -57 -40 -80 -25 -14 -40 -30 -40
-42 0 -21 24 -27 35 -10 3 6 15 10 26 10 14 0 19 -7 19 -30 l0 -30 -65 0 -65
0 0 54 c0 54 1 55 43 78 32 18 42 29 42 48 0 16 -6 26 -17 28 -13 2 -18 -3
-18 -17 0 -16 -6 -21 -25 -21 -21 0 -25 5 -25 29 0 16 7 37 16 45 18 18 66 21
95 6z m219 5 c0 -2 -18 -34 -40 -70 -36 -58 -38 -65 -20 -65 13 0 20 7 20 20
0 15 7 20 25 20 17 0 25 -5 25 -18 0 -10 6 -24 12 -30 10 -10 10 -17 0 -32 -6
-11 -12 -33 -12 -50 0 -25 -4 -30 -25 -30 -22 0 -25 4 -25 34 0 34 -1 35 -47
38 -33 2 -49 8 -51 18 -1 8 18 50 44 93 37 62 51 77 70 77 13 0 24 -2 24 -5z
m-3775 -51 c11 -12 15 -31 13 -68 -3 -48 -5 -52 -45 -74 -24 -13 -43 -30 -43
-38 0 -18 32 -32 38 -16 2 7 15 12 28 12 20 0 24 -5 24 -30 l0 -30 -65 0 -65
0 0 55 c0 53 1 55 40 77 31 18 40 29 40 51 0 32 -29 38 -37 7 -3 -11 -14 -20
-24 -20 -26 0 -27 64 -1 79 26 16 79 13 97 -5z m189 0 c12 -12 16 -37 16 -110
0 -119 -7 -134 -63 -134 -24 0 -48 5 -55 12 -8 8 -12 49 -12 120 0 91 3 108
18 117 26 16 79 13 96 -5z m513 -1084 c47 -27 52 -33 41 -49 -6 -10 -18 -18
-26 -17 -10 1 -24 -27 -43 -84 l-29 -85 84 84 c68 68 87 82 105 76 27 -8 26
-21 -4 -130 -14 -50 -25 -94 -25 -99 0 -5 25 17 55 50 45 49 53 64 49 86 -8
39 10 42 66 11 53 -29 62 -55 23 -61 -12 -2 -63 -48 -118 -108 -53 -57 -102
-104 -108 -104 -7 0 -21 7 -32 16 -19 14 -19 15 4 107 13 50 26 99 29 107 2 8
-31 -20 -75 -63 l-80 -79 -31 16 -30 16 29 97 c16 54 36 119 43 144 9 30 11
50 5 56 -10 10 -2 43 10 43 3 0 30 -14 58 -30z m2246 -152 c13 -30 12 -34 -7
-45 -18 -10 -24 -9 -39 9 -16 19 -20 20 -54 7 -41 -16 -59 -39 -50 -63 5 -13
22 -16 92 -16 48 0 95 -5 107 -11 28 -15 50 -72 39 -101 -20 -52 -97 -98 -165
-98 -40 0 -47 3 -61 30 -20 39 -19 45 8 57 19 9 26 8 35 -8 29 -46 137 4 112
51 -10 18 -19 20 -101 18 -88 -3 -91 -2 -115 25 -32 37 -31 77 3 118 34 40 75
58 135 59 45 0 49 -2 61 -32z m-1745 -93 c39 -13 52 -21 50 -33 -2 -10 -13
-18 -25 -20 -13 -2 -23 -13 -28 -30 -3 -15 -8 -35 -11 -44 -4 -13 8 -21 58
-36 l63 -20 14 46 c11 39 11 46 -2 54 -14 7 -13 48 2 48 25 -1 126 -40 125
-49 -2 -27 -5 -31 -24 -31 -19 0 -21 -3 -72 -183 -9 -28 -8 -41 0 -49 16 -16
15 -48 0 -48 -29 0 -128 34 -128 44 0 19 16 37 30 34 10 -3 45 70 37 78 -2 2
-30 12 -64 22 l-61 19 -12 -40 c-10 -35 -10 -43 4 -52 9 -7 13 -20 10 -32 l-6
-21 -65 19 c-36 10 -67 20 -70 22 -9 10 11 37 27 37 14 0 23 17 38 68 43 139
48 165 35 169 -13 5 -18 35 -7 46 3 3 11 4 17 2 7 -2 36 -11 65 -20z m1266
-79 c-14 -11 -13 -22 14 -115 17 -56 33 -105 36 -108 3 -4 24 -1 46 6 32 9 39
16 37 34 -1 17 4 23 24 25 23 3 28 -2 37 -40 6 -23 10 -44 8 -46 -2 -1 -48
-16 -104 -31 -55 -16 -109 -32 -120 -35 -26 -9 -35 21 -14 46 12 14 12 24 -2
72 -9 31 -23 81 -32 111 -11 41 -20 55 -34 55 -16 0 -36 27 -26 37 2 2 32 12
67 22 63 18 64 18 72 -2 5 -13 2 -23 -9 -31z m-250 -37 c12 -60 8 -69 -24 -69
-22 0 -30 5 -30 18 0 14 -8 16 -50 14 l-50 -4 0 -40 0 -39 58 2 c55 3 57 2 60
-23 3 -24 0 -26 -52 -32 -53 -7 -56 -9 -56 -36 0 -45 10 -60 39 -60 46 0 71
11 71 31 0 14 7 19 30 19 29 0 30 -2 30 -45 0 -25 -1 -45 -2 -46 -30 -6 -255
-26 -260 -22 -15 9 -8 41 10 45 17 5 17 12 7 117 -9 97 -14 113 -33 127 -21
14 -30 43 -14 45 5 0 164 18 248 28 6 0 14 -13 18 -30z m-426 4 c30 -5 32 -7
32 -49 0 -42 -1 -44 -30 -44 -23 0 -30 5 -30 19 0 14 -10 20 -47 25 -25 3 -48
4 -50 2 -2 -2 -6 -19 -9 -38 -6 -33 -4 -35 26 -42 18 -3 43 -6 56 -6 20 0 24
-5 24 -29 l0 -29 -60 5 -60 6 0 -47 c0 -44 1 -46 28 -46 15 0 37 -3 49 -6 16
-4 23 0 28 15 4 14 15 21 31 21 22 0 24 -4 24 -44 0 -25 -3 -47 -7 -49 -5 -3
-65 0 -135 5 -125 11 -128 12 -128 35 0 16 6 23 19 23 16 0 19 13 27 120 8
110 8 121 -8 126 -10 3 -18 15 -18 26 0 20 3 20 103 14 56 -4 117 -10 135 -13z"/>
<path d="M692 2468 c3 -70 6 -83 21 -86 15 -3 17 6 17 82 0 80 -1 86 -20 86
-20 0 -21 -5 -18 -82z"/>
</g>
</svg>
