<?xml version="1.0" standalone="no"?>
<!DOCTYPE svg PUBLIC "-//W3C//DTD SVG 20010904//EN"
 "http://www.w3.org/TR/2001/REC-SVG-20010904/DTD/svg10.dtd">
<svg version="1.0" xmlns="http://www.w3.org/2000/svg"
 width="612.000000pt" height="317.000000pt" viewBox="0 0 612.000000 317.000000"
 preserveAspectRatio="xMidYMid meet">

<g transform="translate(0.000000,317.000000) scale(0.100000,-0.100000)"
fill="#000000" stroke="none">
<path d="M1866 2435 c-3 -9 -6 -30 -6 -47 0 -23 4 -29 18 -26 13 2 17 13 17
42 0 41 -18 59 -29 31z"/>
<path d="M1980 2400 c0 -22 -6 -33 -22 -40 -23 -9 -23 -9 3 -9 17 -1 30 6 37
22 8 17 11 18 11 5 1 -10 5 -18 10 -18 15 0 0 46 -20 58 -17 11 -19 9 -19 -18z"/>
<path d="M2530 2360 c-17 -10 -13 -17 15 -22 12 -2 20 3 20 11 0 18 -16 23
-35 11z"/>
<path d="M2633 2363 c15 -2 37 -2 50 0 12 2 0 4 -28 4 -27 0 -38 -2 -22 -4z"/>
<path d="M3251 2353 c7 -12 15 -20 18 -17 3 2 -3 12 -13 22 -17 16 -18 16 -5
-5z"/>
<path d="M2715 2350 c-3 -5 3 -10 15 -10 12 0 18 5 15 10 -3 6 -10 10 -15 10
-5 0 -12 -4 -15 -10z"/>
<path d="M3150 2355 c0 -9 40 -75 45 -75 2 0 -1 13 -6 29 -10 28 -39 62 -39
46z"/>
<path d="M2000 2330 c0 -5 5 -10 11 -10 5 0 7 5 4 10 -3 6 -8 10 -11 10 -2 0
-4 -4 -4 -10z"/>
<path d="M2526 2308 c-3 -13 -6 -33 -6 -44 0 -13 -8 -24 -20 -27 -17 -4 -20
-14 -20 -61 0 -52 2 -56 23 -55 12 1 33 4 47 8 15 5 50 0 90 -11 70 -20 93
-22 72 -9 -21 13 13 22 42 11 13 -5 27 -6 30 -3 10 10 7 101 -4 108 -6 4 -60
9 -121 12 -101 6 -110 8 -106 25 3 10 1 16 -4 12 -5 -3 -9 2 -9 10 0 9 4 16
10 16 5 0 7 7 4 15 -9 22 -21 18 -28 -7z"/>
<path d="M2724 2294 c3 -9 6 -20 6 -25 0 -5 5 -9 10 -9 7 0 7 6 1 19 -6 10 -7
21 -4 25 3 3 1 6 -6 6 -8 0 -11 -6 -7 -16z"/>
<path d="M3465 2301 c3 -6 22 -11 42 -11 44 0 41 5 -10 14 -27 5 -37 4 -32 -3z"/>
<path d="M1807 2263 c-7 -37 0 -45 26 -32 45 24 50 59 8 59 -23 0 -30 -5 -34
-27z"/>
<path d="M2000 2276 c0 -17 -22 -26 -63 -26 -47 0 -20 -17 36 -23 38 -4 47 -2
43 9 -3 8 1 14 10 14 8 0 12 -4 9 -10 -3 -6 5 -10 19 -10 23 0 24 2 13 30 -9
23 -17 30 -39 30 -17 0 -28 -5 -28 -14z"/>
<path d="M3808 2283 c7 -3 16 -2 19 1 4 3 -2 6 -13 5 -11 0 -14 -3 -6 -6z"/>
<path d="M3470 2265 c0 -15 26 -31 42 -27 30 8 21 32 -12 32 -16 0 -30 -2 -30
-5z"/>
<path d="M3510 2190 c-9 -6 -10 -10 -3 -10 6 0 15 5 18 10 8 12 4 12 -15 0z"/>
<path d="M3620 2190 c-8 -5 -11 -12 -7 -16 4 -4 13 -2 19 4 15 15 7 24 -12 12z"/>
<path d="M3813 2189 c14 -8 22 -8 30 0 8 8 3 11 -18 11 -26 -1 -28 -2 -12 -11z"/>
<path d="M1891 2074 c-40 -7 -81 -20 -92 -30 -10 -9 -22 -14 -25 -11 -9 9 -64
-20 -97 -52 -47 -43 -99 -169 -64 -156 6 3 41 -14 77 -37 36 -24 78 -49 93
-57 15 -8 27 -20 27 -26 0 -6 9 -21 20 -33 22 -23 26 -37 8 -26 -7 4 -8 3 -4
-4 4 -7 13 -12 21 -12 10 0 11 -9 5 -35 -5 -24 -4 -40 6 -52 21 -28 16 -37
-11 -19 -38 25 -42 19 -7 -12 18 -16 32 -34 32 -41 0 -7 -60 36 -132 95 -73
59 -118 92 -100 73 33 -36 39 -49 23 -49 -16 0 -121 92 -121 106 0 20 10 17
39 -8 l26 -23 -25 29 c-14 15 -44 42 -68 58 -24 16 -41 32 -38 35 2 3 18 -5
34 -17 17 -12 36 -20 44 -17 9 3 7 7 -7 12 -11 5 -27 14 -36 21 -8 8 -46 16
-85 20 l-70 6 -17 -33 c-16 -31 -17 -39 -4 -88 10 -37 12 -64 6 -85 -5 -17 -9
-48 -9 -68 0 -21 -5 -38 -11 -38 -6 0 -7 -5 -2 -12 4 -7 6 -57 4 -111 -3 -99
-33 -208 -56 -200 -6 2 -10 -24 -10 -64 0 -78 -13 -235 -20 -242 -3 -2 -5 84
-5 192 0 132 -3 197 -11 197 -5 0 -8 -3 -5 -8 9 -15 -158 -12 -192 4 -55 26
-59 19 -63 -96 -2 -37 -3 -40 -9 -20 -4 14 -5 70 -3 125 4 73 1 117 -10 162
-9 35 -14 70 -10 79 5 12 3 15 -6 9 -13 -8 -11 -49 5 -90 7 -17 6 -18 -8 -7
-15 12 -16 5 -11 -66 4 -54 2 -81 -6 -86 -6 -4 -11 -28 -11 -53 0 -36 -3 -44
-15 -39 -14 5 -14 2 0 -24 8 -16 15 -36 15 -44 0 -26 20 -28 29 -4 8 18 10 19
10 5 1 -10 6 -15 11 -12 6 3 10 2 10 -3 0 -6 9 -63 20 -127 11 -64 20 -128 20
-141 0 -24 1 -24 109 -24 91 0 113 3 127 18 17 16 17 16 12 -6 -5 -16 -1 -25
14 -33 18 -10 18 -12 3 -22 -14 -11 -15 -23 -7 -85 5 -47 5 -75 -2 -82 -6 -6
-69 -10 -153 -10 -131 0 -143 2 -143 18 0 10 4 22 10 28 7 7 -2 9 -25 6 -19
-2 -35 -8 -35 -12 0 -5 10 -6 21 -3 36 10 17 -21 -22 -34 -29 -10 -30 -12 -10
-12 13 -1 22 -3 20 -5 -4 -4 -112 -10 -363 -21 -60 -2 -111 -7 -114 -10 -8 -7
382 -6 445 1 36 5 54 12 58 23 4 15 15 16 93 8 48 -4 119 -7 158 -5 70 3 72 3
88 -25 l16 -29 305 3 c168 2 305 8 305 12 0 4 -10 27 -22 50 -19 37 -22 58
-22 177 0 205 26 295 145 495 35 61 70 123 77 138 23 53 8 111 -18 70 -10 -16
-11 -16 -7 4 3 13 1 26 -4 29 -8 5 -13 -19 -12 -54 1 -10 -3 -9 -16 2 -10 9
-21 13 -24 9 -4 -3 -7 -1 -7 6 0 8 -7 10 -19 6 -16 -5 -18 -2 -14 15 6 22 23
38 23 21 0 -6 6 -10 13 -9 6 2 11 -3 9 -9 -5 -26 14 -12 30 22 8 19 11 35 6
35 -5 0 -6 5 -2 12 5 8 0 9 -17 5 -13 -4 -33 -7 -45 -7 -17 0 -21 -7 -22 -37
-2 -62 -34 -71 -62 -18 -13 24 -13 28 4 40 17 13 16 14 -6 17 -44 6 -36 83 14
130 27 25 28 28 9 28 -12 0 -21 5 -21 11 0 8 11 9 32 5 37 -7 34 -5 43 -35 5
-17 4 -22 -5 -16 -8 5 -11 3 -8 -6 2 -8 21 -15 40 -17 33 -3 36 -1 31 18 -9
33 64 261 86 268 7 2 11 -18 11 -63 l0 -67 33 7 c17 4 35 13 39 19 5 7 8 8 8
0 0 -6 6 -11 13 -12 61 -6 113 -16 117 -22 5 -7 110 -39 138 -42 23 -2 12 -16
-20 -27 -46 -15 -99 -84 -119 -154 -11 -39 11 -77 45 -77 20 0 27 -9 40 -49 9
-28 16 -66 16 -86 0 -31 4 -37 30 -46 34 -12 33 -10 20 -43 -5 -15 -17 -26
-28 -26 -23 0 -36 -58 -25 -110 l6 -32 15 33 c12 27 16 30 19 16 3 -10 1 -26
-3 -35 -20 -48 -21 -64 -3 -195 18 -138 2 -289 -39 -356 -28 -46 -29 -46 -93
-51 -61 -5 391 -13 808 -14 181 -1 193 0 220 21 26 19 40 21 119 17 60 -2 79
0 59 5 -16 5 -22 9 -12 10 9 0 17 7 18 14 0 6 2 20 4 30 2 9 -1 17 -6 17 -5 0
-8 21 -8 48 l2 47 7 -40 7 -40 2 48 c1 32 -3 46 -10 41 -7 -4 -9 10 -4 46 6
45 4 54 -15 70 -15 13 -17 19 -8 22 10 4 10 8 -1 21 -7 10 -10 17 -6 17 4 0 3
6 -2 13 -16 20 -23 73 -11 85 8 8 5 14 -13 21 -23 9 -21 10 32 34 34 15 56 32
56 41 0 9 -4 16 -9 16 -4 0 -8 -5 -8 -11 0 -5 -4 -7 -10 -4 -5 3 -10 2 -10 -3
0 -5 -10 -12 -22 -15 -13 -2 -31 -8 -40 -12 -13 -5 -18 -3 -18 9 0 9 -4 16
-10 16 -5 0 -10 7 -10 15 0 8 -4 15 -10 15 -11 0 -32 69 -24 81 3 5 -2 20 -11
33 -14 21 -16 47 -12 153 2 70 7 139 11 153 6 19 5 22 -3 10 -11 -16 -14 -10
-12 30 1 23 0 23 -8 5 -6 -15 -8 -9 -7 23 0 23 4 42 8 42 5 0 8 5 8 11 0 5 -4
7 -10 4 -9 -5 -14 35 -13 107 0 10 -2 16 -5 14 -2 -3 -17 10 -34 27 -21 22
-28 26 -24 13 21 -64 24 -114 16 -252 -9 -166 -28 -272 -41 -239 -13 35 -10
-55 4 -110 15 -55 12 -243 -4 -260 -5 -5 -9 -17 -9 -27 0 -10 -7 -18 -15 -18
-7 0 -19 -8 -24 -17 -6 -10 -11 -14 -11 -10 0 18 -30 -23 -30 -42 0 -12 -4
-21 -10 -21 -5 0 -10 7 -10 15 0 8 -7 15 -15 15 -8 0 -15 -6 -15 -12 0 -10 -2
-10 -9 0 -7 11 -9 10 -15 -3 -3 -9 -10 -14 -15 -11 -5 3 -21 -4 -35 -15 -23
-18 -35 -20 -74 -14 -26 4 -74 10 -107 14 l-60 6 74 8 c83 8 161 26 161 36 0
4 -13 20 -29 35 -26 25 -32 26 -52 15 -23 -11 -23 -11 -7 7 15 17 15 21 2 39
-14 19 -16 19 -45 3 l-30 -18 20 26 c20 25 20 27 3 50 -9 13 -23 24 -31 24 -8
0 -11 6 -7 15 3 9 -3 24 -14 35 -11 11 -20 24 -20 29 0 5 -7 14 -15 21 -23 19
-44 -3 -28 -29 10 -16 9 -18 -7 -14 -11 3 -28 2 -37 -2 -10 -5 -21 -8 -25 -7
-4 1 -5 -5 -2 -13 4 -8 -1 -26 -10 -40 -20 -30 -20 -35 -2 -35 8 0 23 14 33
30 23 39 47 35 51 -8 2 -18 8 -30 13 -27 13 9 11 -9 -3 -23 -25 -25 -39 -14
-32 26 l6 37 -34 -32 c-32 -31 -68 -44 -68 -24 0 20 -49 -2 -54 -25 -4 -13
-11 -24 -16 -24 -10 0 -3 27 13 48 18 23 -3 26 -26 4 -30 -29 -35 -28 -29 6
l5 27 -30 -28 c-33 -30 -46 -27 -36 11 5 20 3 24 -10 19 -13 -5 -12 1 5 29 17
29 18 34 4 34 -9 0 -16 5 -16 10 0 6 7 10 15 10 9 0 18 7 21 15 4 8 10 15 15
15 13 0 11 -29 -6 -75 -23 -64 -17 -73 19 -33 40 46 59 50 50 11 -7 -27 -7
-27 11 -9 17 17 20 17 30 2 16 -21 25 -20 25 2 0 11 9 27 20 37 11 10 20 21
20 24 0 6 -38 10 -102 10 -23 0 -38 5 -38 12 0 7 -7 20 -16 30 -14 16 -14 19
6 39 25 25 17 49 -9 26 -33 -30 -57 -9 -45 40 5 18 13 24 34 24 27 0 66 -31
53 -43 -3 -4 -1 -7 5 -7 16 0 15 15 -4 51 -8 17 -13 34 -10 37 4 3 12 -8 18
-26 9 -22 19 -32 38 -34 19 -2 26 -9 28 -32 l4 -29 19 29 c10 16 19 24 19 19
0 -17 58 -47 65 -35 9 15 -3 62 -14 56 -5 -3 -8 2 -7 12 0 9 -4 16 -11 15 -7
-2 -10 3 -7 10 2 7 -7 43 -20 79 -39 104 -64 180 -71 221 -4 20 -12 40 -17 43
-6 4 -8 -3 -4 -17 l6 -24 -12 23 c-9 18 -9 25 0 31 7 4 9 21 5 45 -4 25 -9 33
-14 24 -5 -8 -7 -1 -5 19 6 44 -13 57 -74 51 -40 -4 -47 -3 -34 7 9 6 32 11
50 9 45 -2 53 12 12 21 -18 4 -40 12 -48 18 -12 7 -29 4 -63 -11 -53 -23 -57
-18 -32 41 8 20 15 39 15 42 0 8 -50 6 -50 -2 0 -5 -10 -19 -21 -33 l-20 -25
5 36 c4 20 4 44 0 53 -8 20 -44 21 -44 1 0 -11 -13 -15 -53 -15 -47 0 -57 4
-94 38 -22 21 -59 44 -82 50 -36 11 -41 17 -41 41 0 26 -3 29 -33 28 -18 0
-66 -6 -106 -13z m-51 -64 c10 0 5 -58 -5 -69 -10 -10 -35 30 -35 57 0 18 4
23 16 18 9 -3 20 -6 24 -6z m220 -20 c0 -5 -5 -10 -11 -10 -5 0 -7 5 -4 10 3
6 8 10 11 10 2 0 4 -4 4 -10z m-172 -11 c-2 -6 -8 -10 -13 -10 -5 0 -11 4 -13
10 -2 6 4 11 13 11 9 0 15 -5 13 -11z m-83 -28 c3 -5 1 -12 -5 -16 -5 -3 -10
1 -10 9 0 18 6 21 15 7z m-65 -10 c0 -5 -6 -14 -14 -20 -12 -10 -13 -8 -9 8 5
21 23 30 23 12z m188 -13 c-6 -18 -28 -21 -28 -4 0 9 7 16 16 16 9 0 14 -5 12
-12z m-288 -68 c0 -5 -4 -10 -10 -10 -5 0 -10 5 -10 10 0 6 5 10 10 10 6 0 10
-4 10 -10z m290 -10 c0 -5 -4 -10 -10 -10 -5 0 -10 5 -10 10 0 6 5 10 10 10 6
0 10 -4 10 -10z m0 -89 c0 -5 -7 -11 -15 -15 -9 -3 -15 0 -15 9 0 8 7 15 15
15 8 0 15 -4 15 -9z m50 -1 c0 -5 -7 -10 -16 -10 -8 0 -12 5 -9 10 3 6 10 10
16 10 5 0 9 -4 9 -10z m549 -33 c-5 -21 -7 -42 -4 -47 3 -6 4 -10 1 -10 -2 0
-11 -3 -20 -6 -20 -8 -22 19 -2 35 7 6 16 26 20 43 3 17 8 29 11 27 2 -3 0
-22 -6 -42z m-659 26 c-1 -11 -26 -43 -34 -43 -3 0 -6 7 -6 16 0 8 5 12 10 9
6 -3 10 1 10 9 0 9 5 16 10 16 6 0 10 -3 10 -7z m610 -74 c0 -6 -4 -7 -10 -4
-5 3 -10 11 -10 16 0 6 5 7 10 4 6 -3 10 -11 10 -16z m93 -41 c-5 -23 -5 -23
11 -3 17 20 17 20 13 -2 -3 -13 -1 -23 4 -23 6 0 4 -6 -3 -14 -8 -9 -15 -10
-19 -4 -4 6 -9 5 -12 -3 -4 -10 -6 -9 -6 4 -1 21 -21 23 -21 1 0 -8 -4 -13
-10 -9 -11 7 -2 34 19 57 22 23 30 22 24 -4z m-987 -26 c80 -60 214 -176 214
-185 0 -5 10 -17 23 -28 15 -13 18 -18 7 -19 -8 0 -24 10 -35 23 -11 12 -42
41 -70 62 -27 22 -52 42 -55 45 -3 3 -15 13 -27 24 -22 18 -22 18 -21 -5 1
-13 15 -41 31 -61 33 -44 22 -50 -23 -12 -29 25 -75 102 -66 112 2 2 15 -2 28
-8 l23 -12 -23 22 c-27 26 -57 20 -47 -10 6 -19 4 -19 -20 -8 -14 6 -24 17
-21 24 3 8 1 16 -4 19 -9 6 18 54 30 55 3 0 28 -17 56 -38z m-214 -14 c-9 -9
-12 -7 -12 12 0 19 3 21 12 12 9 -9 9 -15 0 -24z m1118 -14 c0 -7 -4 -16 -10
-19 -5 -3 -7 0 -4 9 3 8 0 25 -6 38 -11 22 -10 22 4 4 9 -11 16 -25 16 -32z
m21 13 c-8 -8 -11 -7 -11 4 0 9 3 19 7 23 4 4 9 2 11 -4 3 -7 -1 -17 -7 -23z
m-941 -150 c0 -15 -49 -86 -87 -127 -13 -14 -32 -43 -43 -64 -15 -31 -21 -36
-26 -23 -3 9 -10 17 -16 17 -19 0 -38 29 -32 47 4 10 18 30 32 45 13 14 21 31
18 36 -3 5 2 16 11 23 14 12 16 12 9 -1 -4 -8 4 -2 19 14 34 37 115 60 115 33z
m60 -50 c-11 -11 -20 -29 -20 -38 0 -10 -4 -20 -9 -24 -12 -7 4 52 18 69 6 7
8 16 4 20 -4 4 0 4 9 1 16 -6 15 -9 -2 -28z m990 -21 c-1 -6 -10 0 -20 13 -11
13 -20 28 -20 35 1 6 10 0 20 -13 11 -13 20 -28 20 -35z m-1210 -2 c0 -6 -17
-23 -45 -44 -19 -14 -19 -14 -5 5 28 37 35 44 43 45 4 0 7 -3 7 -6z m306 -33
c-3 -5 1 -11 8 -14 8 -3 17 -1 19 6 14 38 26 -53 15 -105 -5 -21 -3 -26 8 -21
8 3 14 -1 14 -10 0 -8 -6 -17 -12 -20 -10 -3 -10 -7 -1 -18 19 -24 5 -64 -24
-67 -14 -1 -32 3 -39 9 -9 7 -14 5 -19 -10 -4 -12 -12 -18 -21 -14 -7 3 -14 0
-14 -6 0 -6 15 -12 33 -13 17 -1 41 -3 52 -4 11 -1 26 -2 33 -3 8 -1 12 -7 10
-13 -3 -8 -19 -12 -42 -10 -30 3 -37 1 -31 -10 6 -10 5 -11 -6 0 -21 19 -32
14 -27 -13 3 -14 1 -25 -3 -25 -5 0 -9 3 -9 8 0 4 -7 15 -14 25 -19 25 -59 6
-54 -26 3 -20 11 -23 73 -27 64 -5 70 -7 71 -28 1 -18 -3 -21 -20 -17 -17 5
-17 3 4 -9 l25 -14 -38 -7 c-51 -10 -69 -1 -63 30 3 17 0 25 -10 25 -8 0 -14
-10 -14 -25 0 -14 -7 -28 -15 -31 -8 -4 -15 -18 -15 -34 0 -35 -10 -61 -20
-55 -4 3 -11 -2 -14 -11 -3 -8 -2 -12 3 -9 5 3 13 0 16 -6 5 -7 -4 -9 -26 -7
-33 3 -34 5 -35 46 0 23 4 42 9 42 4 0 1 7 -7 16 -9 8 -16 23 -15 32 0 14 2
13 9 -3 7 -16 9 -12 8 17 -2 27 4 42 17 53 11 8 15 15 8 15 -7 0 -13 9 -13 21
0 31 24 18 31 -17 5 -28 5 -28 10 9 l5 37 -68 0 c-76 0 -95 19 -20 21 38 1 42
2 22 9 -21 7 -18 8 20 11 33 1 38 3 17 6 -20 3 -27 9 -23 19 3 9 2 12 -5 9
-16 -11 -59 -13 -53 -4 3 5 -1 9 -8 9 -8 0 -14 9 -14 19 0 11 3 18 7 16 3 -3
11 7 17 20 10 22 9 25 -11 26 -12 1 12 5 53 10 41 4 92 10 113 12 34 4 77 36
77 59 0 4 5 8 10 8 6 0 4 -13 -5 -30 -15 -29 -15 -30 7 -30 17 0 19 3 9 9 -9
6 -10 11 -2 15 16 10 14 66 -3 72 -21 8 -28 34 -10 34 8 0 13 -4 10 -9z m-116
-41 c0 -5 -8 -10 -17 -10 -15 0 -16 2 -3 10 19 12 20 12 20 0z m1103 -10 c10
0 15 -4 12 -10 -11 -17 -34 -11 -46 13 -9 18 -9 20 2 10 7 -7 21 -13 32 -13z
m628 -87 c-9 -16 -10 -16 -11 -1 0 9 3 25 7 35 7 16 8 17 11 1 2 -10 -1 -25
-7 -35z m-1701 27 c-20 -13 -43 -13 -35 0 3 6 16 10 28 10 18 0 19 -2 7 -10z
m841 -22 c11 -21 11 -22 -4 -9 -10 7 -17 17 -17 22 0 15 9 10 21 -13z m-1441
-10 c0 -17 -3 -19 -9 -9 -6 9 -8 5 -8 -14 0 -19 2 -23 8 -14 6 10 9 8 9 -8 0
-15 -6 -23 -17 -23 -15 0 -18 9 -18 45 0 36 3 45 18 45 11 0 17 -8 17 -22z
m17 -55 c-2 -16 -4 -3 -4 27 0 30 2 43 4 28 2 -16 2 -40 0 -55z m144 47 c5 0
9 -15 9 -33 l0 -32 -67 1 -68 1 0 31 c0 35 18 45 23 12 2 -11 7 -20 11 -20 5
0 6 12 3 26 -3 19 -1 25 7 20 6 -4 12 -19 12 -34 1 -27 1 -27 8 3 3 17 11 29
16 28 14 -2 19 -23 6 -23 -6 0 -11 -5 -11 -11 0 -5 4 -8 9 -5 5 4 12 0 14 -6
3 -7 6 7 7 32 1 25 4 37 7 28 2 -10 9 -18 14 -18z m130 -41 c-8 -38 -9 -40
-10 -12 -1 17 2 39 5 48 11 29 14 10 5 -36z m1994 -11 c-4 -24 -11 -50 -17
-58 -7 -12 -8 -11 -4 5 2 11 7 37 11 58 3 20 8 37 11 37 3 0 3 -19 -1 -42z
m-2388 0 c-3 -8 -6 -5 -6 6 -1 11 2 17 5 13 3 -3 4 -12 1 -19z m243 -51 c0 -8
-3 -29 -6 -46 -6 -28 -10 -31 -45 -31 -43 0 -44 1 -53 51 l-6 36 55 2 c41 1
55 -2 55 -12z m1683 -87 c-6 -23 -118 -130 -136 -130 -12 0 20 30 81 78 19 14
38 36 43 49 11 28 19 30 12 3z m-1737 -35 c-3 -9 0 -15 8 -15 8 0 16 5 18 12
3 7 7 6 11 -5 5 -14 1 -17 -23 -17 -17 0 -30 2 -30 4 0 10 13 36 17 36 3 0 3
-7 -1 -15z m541 -119 c-4 -10 0 -14 12 -11 14 3 17 -2 13 -21 -2 -13 -9 -24
-14 -24 -5 0 -6 -6 -2 -12 5 -10 4 -10 -5 -2 -20 18 -23 84 -4 84 3 0 3 -6 0
-14z m46 7 c-7 -2 -19 -2 -25 0 -7 3 -2 5 12 5 14 0 19 -2 13 -5z m933 -38
c-8 -8 -21 -15 -28 -15 -8 1 -6 6 6 15 26 20 42 19 22 0z m-911 -5 c3 -5 2
-10 -4 -10 -5 0 -13 5 -16 10 -3 6 -2 10 4 10 5 0 13 -4 16 -10z m1395 -47 c0
-6 6 -13 12 -15 20 -7 -33 -32 -69 -33 -18 -1 -30 2 -27 7 7 11 -9 10 -21 0
-6 -5 -21 -6 -35 -1 -18 5 -20 7 -6 8 10 1 31 12 47 25 31 26 99 32 99 9z
m-470 -23 c-20 -13 -33 -13 -25 0 3 6 14 10 23 10 15 0 15 -2 2 -10z m210 -39
c-30 -4 -98 -4 -150 -1 -87 6 -83 7 55 7 97 0 131 -2 95 -6z m349 -12 c45 -2
51 -5 51 -24 0 -33 -28 -121 -43 -133 -7 -6 -42 -14 -79 -18 -63 -6 -67 -5
-97 23 -26 25 -30 35 -25 62 6 27 4 31 -14 31 -25 0 -34 11 -22 29 7 12 155
41 171 34 4 -1 29 -3 58 -4z m-1659 -24 c0 -8 -4 -15 -10 -15 -5 0 -10 7 -10
15 0 8 5 15 10 15 6 0 10 -7 10 -15z"/>
<path d="M1495 1169 c6 -33 15 -36 15 -6 0 15 -4 27 -9 27 -6 0 -8 -10 -6 -21z"/>
<path d="M1536 1174 c-3 -8 -2 -12 4 -9 6 3 10 1 10 -5 0 -6 5 -8 10 -5 15 9
12 35 -4 35 -8 0 -17 -7 -20 -16z"/>
<path d="M1470 1119 c0 -5 5 -7 10 -4 6 3 10 8 10 11 0 2 -4 4 -10 4 -5 0 -10
-5 -10 -11z"/>
<path d="M1551 1108 c-1 -20 24 -24 35 -6 5 7 2 9 -9 5 -9 -3 -18 -1 -21 6 -2
7 -5 4 -5 -5z"/>
<path d="M1658 1093 c7 -3 16 -2 19 1 4 3 -2 6 -13 5 -11 0 -14 -3 -6 -6z"/>
<path d="M1182 1160 c0 -14 2 -19 5 -12 2 6 2 18 0 25 -3 6 -5 1 -5 -13z"/>
<path d="M3038 743 c7 -3 16 -2 19 1 4 3 -2 6 -13 5 -11 0 -14 -3 -6 -6z"/>
<path d="M3041 594 c0 -11 3 -14 6 -6 3 7 2 16 -1 19 -3 4 -6 -2 -5 -13z"/>
<path d="M3947 2054 c-14 -45 -18 -92 -10 -97 12 -7 32 89 22 104 -4 8 -9 5
-12 -7z"/>
<path d="M4076 2053 c-6 -14 -5 -15 5 -6 7 7 10 15 7 18 -3 3 -9 -2 -12 -12z"/>
<path d="M3270 2018 c0 -14 23 -58 32 -58 4 0 8 3 8 8 -1 9 -39 59 -40 50z"/>
<path d="M1022 1960 c-16 -26 -16 -70 1 -70 8 0 7 -3 -3 -10 -22 -13 -10 -16
40 -9 32 4 37 6 16 7 -28 2 -29 3 -11 16 11 8 25 12 31 9 7 -2 15 6 18 19 2
13 4 8 3 -12 -3 -39 -3 -39 76 -44 l47 -3 0 47 c0 30 -6 52 -15 60 -9 7 -16
11 -18 9 -22 -39 -23 -45 -13 -64 6 -11 16 -24 21 -28 10 -8 -22 -1 -63 14
-18 7 -21 14 -16 33 3 13 1 27 -5 30 -6 4 -11 3 -11 -1 0 -5 -19 -7 -42 -4
-38 4 -40 5 -18 12 l25 7 -25 1 c-15 1 -30 -7 -38 -19z"/>
<path d="M3345 1960 c-4 -6 -3 -16 3 -22 6 -6 12 -6 17 2 4 6 3 16 -3 22 -6 6
-12 6 -17 -2z"/>
<path d="M4025 1949 c-4 -6 -5 -12 -2 -15 2 -3 7 2 10 11 7 17 1 20 -8 4z"/>
<path d="M3206 1931 c-4 -6 5 -23 19 -38 l27 -28 -7 25 c-10 33 -30 55 -39 41z"/>
<path d="M4760 1907 c0 -20 5 -24 30 -24 23 0 29 4 25 14 -3 8 -5 19 -5 24 0
5 -11 9 -25 9 -20 0 -25 -5 -25 -23z"/>
<path d="M625 1870 c-8 -16 -15 -38 -15 -49 0 -10 -4 -21 -9 -23 -6 -1 -13
-25 -16 -53 l-7 -50 126 3 126 3 0 45 c0 45 -3 48 -50 44 -19 -2 -22 1 -13 12
9 11 3 12 -38 10 -27 -2 -49 -8 -49 -13 0 -5 -12 -9 -26 -9 -23 0 -25 2 -14
15 7 9 14 25 15 38 1 12 3 28 4 35 2 20 22 14 28 -8 6 -21 56 -54 66 -44 7 7
-14 56 -28 66 -5 4 -27 8 -47 8 -31 0 -40 -5 -53 -30z"/>
<path d="M3316 1892 c-2 -4 -1 -14 3 -21 6 -9 10 -7 14 8 5 20 -7 29 -17 13z"/>
<path d="M4140 1861 c0 -6 4 -13 10 -16 6 -3 7 1 4 9 -7 18 -14 21 -14 7z"/>
<path d="M4855 1861 c3 -6 -3 -14 -12 -20 -14 -8 -18 -23 -18 -71 0 -53 -3
-65 -24 -81 -13 -10 -18 -19 -12 -19 22 0 70 60 77 96 7 40 24 51 51 35 10 -6
13 -11 7 -11 -6 0 -14 -23 -18 -50 -9 -68 6 -83 86 -84 70 -1 83 13 79 84 -3
52 -11 60 -67 60 -29 0 -47 6 -60 21 -30 33 -106 67 -89 40z"/>
<path d="M4608 1821 c-19 -7 -12 -24 12 -34 11 -4 10 -6 -5 -7 -20 -1 -20 -1
-1 -15 19 -14 18 -15 -17 -15 -36 0 -37 -1 -37 -40 l0 -40 75 0 75 0 0 36 c0
27 -5 37 -20 41 -11 3 -20 14 -20 25 0 10 -4 16 -10 13 -5 -3 -10 1 -10 9 0 9
5 15 11 14 6 -2 13 2 16 9 4 12 -38 15 -69 4z"/>
<path d="M2595 1801 c-3 -2 5 -9 17 -15 16 -8 22 -22 24 -56 6 -90 34 -179 48
-148 3 7 4 4 1 -8 -14 -58 55 -256 135 -389 17 -27 33 -56 36 -62 8 -17 24 -6
24 15 0 15 -2 15 -11 2 -8 -12 -9 -10 -7 10 2 14 -2 24 -8 23 -7 -1 -9 8 -6
24 3 16 1 24 -5 20 -6 -4 -13 5 -16 21 -7 33 -18 72 -51 181 -28 91 -34 186
-15 256 6 22 13 57 16 78 4 32 3 37 -15 37 -12 0 -24 5 -27 11 -5 7 -14 5 -30
-5 -19 -13 -25 -13 -42 -1 -18 13 -58 17 -68 6z m82 -193 c-3 -8 -6 -5 -6 6
-1 11 2 17 5 13 3 -3 4 -12 1 -19z m50 -110 c-3 -8 -6 -5 -6 6 -1 11 2 17 5
13 3 -3 4 -12 1 -19z"/>
<path d="M2969 1788 c-19 -16 -69 -94 -69 -108 0 -19 -40 -50 -66 -50 -19 0
-28 -8 -40 -36 -13 -32 -13 -38 0 -53 8 -9 16 -39 18 -66 2 -28 7 -50 13 -50
5 0 8 19 7 42 -4 44 13 88 28 78 5 -3 14 -25 20 -48 52 -202 117 -353 86 -199
-7 31 -9 71 -6 87 6 30 4 45 -25 145 -8 30 -15 65 -15 78 0 31 29 130 40 137
5 3 29 -4 53 -16 39 -19 43 -24 31 -36 -15 -16 -19 -43 -5 -43 4 0 5 -19 1
-42 -11 -58 12 -201 50 -317 32 -98 33 -151 3 -151 -12 0 -13 -3 -4 -14 17
-20 2 -26 -65 -24 -38 0 -66 7 -78 17 -20 17 -49 77 -74 156 -15 46 -17 48
-20 21 -7 -57 100 -267 154 -302 33 -22 50 -13 58 33 9 53 16 61 61 64 49 4
59 23 74 135 14 94 14 200 1 324 -18 173 -55 225 -175 244 -27 5 -45 3 -56 -6z
m169 -111 c-11 -21 -11 -21 -19 -2 -4 11 -8 31 -8 45 l0 25 19 -23 c16 -20 18
-28 8 -45z"/>
<path d="M3474 1779 c-3 -6 -2 -15 4 -21 6 -6 11 -2 15 11 5 22 -7 29 -19 10z"/>
<path d="M3625 1770 c3 -5 8 -10 11 -10 2 0 4 5 4 10 0 6 -5 10 -11 10 -5 0
-7 -4 -4 -10z"/>
<path d="M3460 1731 c0 -25 6 -27 13 -6 4 8 2 17 -3 20 -6 4 -10 -3 -10 -14z"/>
<path d="M3551 1673 c-38 -74 -42 -83 -37 -83 7 0 67 113 64 122 -2 4 -14 -13
-27 -39z"/>
<path d="M2100 1681 c-31 -32 -42 -51 -32 -51 6 0 20 14 32 31 24 33 24 46 0
20z"/>
<path d="M5554 1691 c4 -6 1 -11 -8 -11 -19 0 -21 -16 -3 -23 7 -3 8 -6 1 -6
-7 -1 -10 -15 -7 -38 5 -44 11 -53 23 -33 7 10 10 11 10 3 0 -7 3 -13 8 -13
14 0 -2 123 -17 128 -8 3 -11 0 -7 -7z"/>
<path d="M5378 1663 c7 -3 16 -2 19 1 4 3 -2 6 -13 5 -11 0 -14 -3 -6 -6z"/>
<path d="M1798 1643 c7 -3 16 -2 19 1 4 3 -2 6 -13 5 -11 0 -14 -3 -6 -6z"/>
<path d="M2127 1643 c-19 -31 -45 -81 -51 -98 -5 -14 4 -9 28 15 35 35 58 90
38 90 -6 0 -13 -3 -15 -7z"/>
<path d="M3662 1630 c0 -14 2 -19 5 -12 2 6 2 18 0 25 -3 6 -5 1 -5 -13z"/>
<path d="M1745 1600 c10 -11 20 -20 23 -20 3 0 -3 9 -13 20 -10 11 -20 20 -23
20 -3 0 3 -9 13 -20z"/>
<path d="M1800 1589 c0 -13 -4 -18 -12 -13 -8 5 -7 0 2 -11 14 -17 15 -17 19
11 3 26 4 27 11 9 8 -19 9 -19 9 3 1 13 -5 22 -14 22 -8 0 -15 -9 -15 -21z"/>
<path d="M1990 1580 c0 -11 5 -20 10 -20 6 0 10 9 10 20 0 11 -4 20 -10 20 -5
0 -10 -9 -10 -20z"/>
<path d="M5468 1583 c7 -3 16 -2 19 1 4 3 -2 6 -13 5 -11 0 -14 -3 -6 -6z"/>
<path d="M3747 1533 c-4 -3 -7 -15 -7 -27 0 -20 0 -20 15 0 8 10 15 22 15 27
0 9 -14 9 -23 0z"/>
<path d="M1055 1522 c-6 -4 -11 -17 -11 -30 -2 -28 29 -27 34 2 5 22 -9 38
-23 28z"/>
<path d="M1103 1523 c-7 -3 -13 -16 -13 -29 0 -28 34 -34 44 -7 8 19 -13 43
-31 36z m17 -29 c0 -8 -4 -12 -10 -9 -5 3 -10 10 -10 16 0 5 5 9 10 9 6 0 10
-7 10 -16z"/>
<path d="M443 1513 c4 -3 1 -13 -6 -22 -11 -14 -10 -14 5 -2 16 12 16 31 1 31
-4 0 -3 -3 0 -7z"/>
<path d="M1150 1509 c0 -6 6 -17 14 -25 11 -11 16 -11 19 -1 4 9 6 9 6 0 1
-16 21 -17 21 -2 0 6 -6 17 -14 25 -11 11 -16 11 -19 1 -4 -9 -6 -9 -6 1 -1
15 -21 16 -21 1z"/>
<path d="M1002 1499 c2 -6 8 -10 13 -10 5 0 11 4 13 10 2 6 -4 11 -13 11 -9 0
-15 -5 -13 -11z"/>
<path d="M4155 1489 c-4 -6 -5 -12 -3 -14 2 -2 71 -5 153 -6 133 -2 150 0 153
14 3 15 -12 17 -147 17 -95 0 -152 -4 -156 -11z"/>
<path d="M3539 1420 c-20 -30 -42 -66 -48 -78 -11 -22 -11 -23 5 -14 9 5 24 8
33 6 35 -8 52 20 49 82 l-3 59 -36 -55z"/>
<path d="M3840 1350 c0 -5 7 -10 16 -10 8 0 12 5 9 10 -3 6 -10 10 -16 10 -5
0 -9 -4 -9 -10z"/>
<path d="M5282 1351 c-8 -5 -12 -21 -10 -37 3 -28 2 -29 -34 -26 -32 3 -38 1
-38 -17 0 -16 8 -20 38 -23 20 -2 38 -9 38 -15 1 -7 2 -22 3 -33 2 -34 29 -23
33 13 3 28 7 32 36 35 19 2 32 9 32 17 0 8 -13 15 -32 17 -28 3 -33 7 -36 33
-4 37 -13 47 -30 36z"/>
<path d="M970 1341 c0 -4 11 -6 25 -3 14 2 25 6 25 8 0 2 -11 4 -25 4 -14 0
-25 -4 -25 -9z"/>
<path d="M2832 1330 c0 -14 2 -19 5 -12 2 6 2 18 0 25 -3 6 -5 1 -5 -13z"/>
<path d="M3808 1343 c7 -3 16 -2 19 1 4 3 -2 6 -13 5 -11 0 -14 -3 -6 -6z"/>
<path d="M998 1323 c7 -3 16 -2 19 1 4 3 -2 6 -13 5 -11 0 -14 -3 -6 -6z"/>
<path d="M4552 1299 c-10 -15 -11 -24 -3 -32 8 -8 11 -8 11 1 0 7 9 12 21 12
15 0 19 -5 15 -15 -5 -13 5 -19 25 -17 4 1 9 -10 12 -23 2 -14 1 -25 -3 -25
-4 0 -10 -9 -13 -19 -4 -17 -2 -19 21 -10 18 7 27 6 32 -2 6 -8 9 -8 14 0 4 6
13 11 19 11 7 0 6 -4 -3 -10 -8 -5 -10 -10 -5 -10 6 0 1 -7 -9 -15 -19 -15
-19 -15 1 -15 21 0 39 -25 24 -35 -5 -2 -9 -28 -9 -56 0 -49 -19 -89 -29 -61
-3 6 -17 12 -31 11 l-27 -1 25 -7 c25 -7 25 -7 3 -13 -13 -3 -23 -14 -23 -23
0 -11 5 -15 15 -11 8 3 15 1 15 -4 0 -6 -8 -10 -17 -10 -16 -1 -16 -2 2 -15
51 -36 55 -45 56 -134 0 -107 12 -180 30 -192 12 -7 12 -9 -1 -10 -8 -1 -19
-3 -25 -4 -5 -2 -57 -4 -115 -6 l-105 -3 135 -8 c74 -4 168 -10 208 -13 l72
-7 0 30 c0 28 2 30 33 27 17 -2 47 -4 65 -4 28 -1 32 -5 32 -27 l0 -26 223 7
c220 7 299 15 156 15 -41 0 -90 3 -109 6 l-36 6 4 66 c2 37 8 72 14 79 6 7 5
14 -2 18 -5 3 -10 24 -10 45 0 39 1 39 33 35 26 -4 27 -3 7 3 -34 11 -33 37 2
37 31 0 45 10 18 13 -44 4 -50 6 -50 14 0 5 -4 7 -10 3 -5 -3 -21 33 -35 80
-33 108 -51 148 -95 213 -24 35 -42 52 -57 52 -12 0 -24 -4 -27 -8 -7 -12 31
-42 54 -42 11 0 20 -7 20 -16 0 -9 -5 -12 -11 -8 -7 4 -4 -6 5 -22 17 -30 47
-113 72 -199 19 -63 29 -284 15 -305 -9 -12 -44 -15 -210 -15 -120 0 -204 4
-210 10 -34 35 -38 398 -6 530 19 81 19 80 -17 79 -26 -1 -43 8 -85 47 -58 55
-99 64 -121 28z"/>
<path d="M988 1303 c6 -2 18 -2 25 0 6 3 1 5 -13 5 -14 0 -19 -2 -12 -5z"/>
<path d="M4526 1252 c-3 -6 -1 -14 5 -17 14 -9 20 -2 10 14 -6 8 -11 9 -15 3z"/>
<path d="M1271 1214 c0 -11 3 -14 6 -6 3 7 2 16 -1 19 -3 4 -6 -2 -5 -13z"/>
<path d="M2267 1203 c-3 -5 6 -9 19 -9 13 -1 21 2 18 7 -6 11 -31 12 -37 2z"/>
<path d="M4130 1170 c0 -6 67 -10 181 -10 117 0 178 3 174 10 -4 6 -75 10
-181 10 -109 0 -174 -4 -174 -10z"/>
<path d="M5531 1166 c-8 -9 -11 -19 -7 -23 9 -9 29 13 24 27 -2 8 -8 7 -17 -4z"/>
<path d="M5605 1170 c-3 -5 -12 -7 -20 -3 -8 3 -15 0 -15 -6 0 -15 20 -13 50
4 18 10 20 14 8 15 -9 0 -19 -4 -23 -10z"/>
<path d="M3670 944 c0 -125 -4 -232 -8 -238 -11 -17 -11 -70 0 -83 5 -7 7 -21
3 -32 -3 -10 -2 -22 3 -25 6 -3 111 -8 236 -11 250 -5 234 -9 216 60 l-8 30
-1 -27 c-1 -27 -3 -28 -58 -28 -44 0 -54 3 -45 12 17 17 15 55 -4 62 -24 9
-31 7 -14 -4 12 -8 13 -11 1 -19 -11 -7 -11 -9 0 -14 10 -4 8 -6 -4 -6 -11 -1
-15 -6 -11 -13 7 -11 -5 -10 -164 8 -35 5 -49 10 -40 15 10 7 8 9 -7 10 -11 1
0 5 25 9 98 17 114 24 107 51 -3 10 -1 21 4 24 4 3 5 13 2 23 -15 38 -36 47
-114 51 -93 4 -107 19 -50 52 41 23 51 46 51 118 0 42 -23 81 -48 81 -9 0 -24
5 -32 11 -12 8 -10 9 8 4 26 -8 27 -3 5 33 -55 86 -52 95 -53 -154z m57 20 c2
-13 1 -15 -4 -4 -3 8 -11 19 -17 23 -7 6 -6 7 4 4 8 -2 16 -12 17 -23z m-12
-53 c-3 -6 -11 -11 -16 -11 -5 0 -4 6 3 14 14 16 24 13 13 -3z m125 -156 c0
-8 -4 -15 -10 -15 -5 0 -10 6 -10 13 0 8 -4 7 -10 -3 -7 -11 -10 -11 -10 -2 0
7 -4 11 -9 7 -5 -3 -12 -1 -16 5 -4 6 8 10 29 10 25 0 36 -4 36 -15z"/>
<path d="M2875 1100 c-3 -5 -1 -10 4 -10 6 0 11 5 11 10 0 6 -2 10 -4 10 -3 0
-8 -4 -11 -10z"/>
<path d="M4566 1092 c-2 -4 4 -8 14 -8 10 0 16 4 14 8 -3 4 -9 8 -14 8 -5 0
-11 -4 -14 -8z"/>
<path d="M4615 1090 c4 -6 11 -8 16 -5 14 9 11 15 -7 15 -8 0 -12 -5 -9 -10z"/>
<path d="M2895 1060 c10 -11 20 -18 23 -15 7 6 -18 35 -31 35 -5 0 -2 -9 8
-20z"/>
<path d="M4130 1069 c0 -5 4 -8 9 -4 6 3 12 -16 14 -42 l3 -48 2 53 c2 40 -1
52 -13 52 -8 0 -15 -5 -15 -11z"/>
<path d="M4170 1035 c0 -31 5 -47 15 -51 8 -4 15 -11 15 -16 0 -6 -7 -8 -15
-4 -18 6 -20 -10 -3 -20 19 -12 38 28 38 83 0 50 -1 53 -25 53 -23 0 -25 -4
-25 -45z m35 -5 c0 -13 -6 -25 -12 -27 -9 -3 -13 6 -13 27 0 21 4 30 13 28 6
-3 12 -15 12 -28z"/>
<path d="M2150 1036 c0 -30 9 -37 31 -25 26 13 24 24 -6 37 -23 11 -25 9 -25
-12z"/>
<path d="M422 1030 c0 -14 2 -19 5 -12 2 6 2 18 0 25 -3 6 -5 1 -5 -13z"/>
<path d="M3816 994 c-3 -33 -7 -79 -8 -104 l-2 -45 59 3 c68 4 70 5 62 27 -4
9 -19 15 -37 15 -23 0 -30 4 -30 20 0 16 7 20 30 20 23 0 30 4 30 20 0 16 -7
20 -31 20 -24 0 -30 4 -27 18 2 12 14 18 41 20 45 4 53 32 8 32 -16 0 -42 3
-59 6 l-30 6 -6 -58z"/>
<path d="M4132 1025 c0 -16 2 -22 5 -12 2 9 2 23 0 30 -3 6 -5 -1 -5 -18z"/>
<path d="M4652 1030 c0 -14 2 -19 5 -12 2 6 2 18 0 25 -3 6 -5 1 -5 -13z"/>
<path d="M3970 1006 c0 -18 -3 -61 -6 -95 -6 -56 -5 -61 13 -61 18 0 21 9 26
76 3 42 7 78 9 80 2 2 14 1 26 -3 27 -7 28 -27 3 -45 -17 -12 -18 -19 -8 -61
8 -38 14 -47 32 -47 21 0 22 2 12 40 -9 33 -8 42 6 58 20 22 22 63 5 80 -7 7
-36 12 -65 12 l-53 0 0 -34z"/>
<path d="M4510 1023 c0 -15 2 -16 10 -3 9 13 11 13 20 0 8 -13 10 -12 10 3 0
10 -8 17 -20 17 -12 0 -20 -7 -20 -17z"/>
<path d="M930 1023 c0 -5 5 -15 10 -23 8 -12 10 -11 10 8 0 12 -4 22 -10 22
-5 0 -10 -3 -10 -7z"/>
<path d="M4570 1006 c7 -7 13 -7 20 0 6 6 3 10 -10 10 -13 0 -16 -4 -10 -10z"/>
<path d="M4513 983 c15 -2 37 -2 50 0 12 2 0 4 -28 4 -27 0 -38 -2 -22 -4z"/>
<path d="M5543 963 c-3 -10 -8 -22 -10 -28 -3 -5 2 -2 10 8 14 17 15 17 22 0
6 -17 7 -17 21 1 8 11 14 25 14 30 0 6 -5 4 -11 -4 -8 -11 -12 -12 -16 -2 -7
17 -23 15 -30 -5z"/>
<path d="M411 944 c0 -11 3 -14 6 -6 3 7 2 16 -1 19 -3 4 -6 -2 -5 -13z"/>
<path d="M4250 940 c0 -12 -5 -17 -14 -14 -8 3 -17 0 -21 -5 -3 -6 -11 -9 -16
-6 -5 4 -13 -4 -18 -17 -9 -22 -10 -22 -11 7 -1 17 -4 24 -7 17 -4 -10 -8 -10
-19 -1 -12 10 -14 4 -14 -33 0 -50 7 -63 27 -47 10 9 13 8 13 -2 0 -28 20 15
21 46 1 28 2 27 9 -8 8 -45 21 -60 43 -51 13 5 17 20 17 70 0 35 -2 64 -5 64
-3 0 -5 -9 -5 -20z m-5 -66 c0 -19 -5 -29 -15 -29 -16 0 -25 28 -16 51 10 25
31 10 31 -22z"/>
<path d="M2283 914 c-5 -13 -8 -13 -15 -2 -8 11 -9 10 -6 -1 6 -22 34 -21 34
0 0 23 -5 24 -13 3z"/>
<path d="M4292 917 c-20 -24 -18 -82 3 -91 18 -6 45 2 45 15 0 5 -10 8 -21 6
-12 -1 -24 4 -26 11 -3 7 5 12 21 12 19 0 26 5 26 20 0 25 -34 45 -48 27z m36
-25 c2 -7 -6 -12 -17 -12 -21 0 -27 11 -14 24 9 9 26 2 31 -12z"/>
<path d="M4362 868 l2 -53 3 47 c3 33 9 48 21 51 12 3 11 5 -5 6 -21 1 -23 -3
-21 -51z"/>
<path d="M1942 870 c-26 -41 -8 -125 27 -125 3 0 5 -9 3 -21 -1 -11 7 -29 18
-39 22 -20 21 -22 24 50 1 11 9 21 19 23 19 4 23 -14 5 -21 -7 -3 -3 -6 10 -6
13 -1 21 3 18 8 -5 8 84 3 94 -6 2 -2 -2 -9 -10 -14 -13 -9 -13 -10 0 -8 8 1
33 0 55 -1 34 -2 36 -3 15 -9 -14 -4 -20 -10 -14 -13 15 -10 71 30 87 61 13
27 13 28 -6 23 -16 -4 -19 -2 -14 11 5 14 0 17 -31 16 -20 0 -46 -4 -57 -9
-16 -7 -12 -9 20 -10 48 -2 25 -14 -42 -23 l-42 -5 -3 37 c-2 26 -7 35 -18 32
-35 -8 -70 -10 -70 -3 0 4 -15 7 -32 7 -25 0 -33 4 -32 17 1 10 -3 15 -8 12
-6 -4 -8 2 -3 15 8 26 3 27 -13 1z m108 -90 c-20 -13 -33 -13 -25 0 3 6 14 10
23 10 15 0 15 -2 2 -10z"/>
<path d="M2270 859 c0 -5 5 -7 10 -4 6 3 10 8 10 11 0 2 -4 4 -10 4 -5 0 -10
-5 -10 -11z"/>
<path d="M390 781 c0 -42 4 -70 9 -66 9 5 4 124 -5 134 -2 2 -4 -28 -4 -68z"/>
<path d="M5525 800 c-3 -6 1 -7 9 -4 18 7 21 14 7 14 -6 0 -13 -4 -16 -10z"/>
<path d="M4130 776 c0 -14 23 -16 180 -16 99 0 180 4 180 9 0 4 -72 9 -160 9
-89 1 -170 4 -180 7 -14 4 -20 2 -20 -9z"/>
<path d="M5560 780 c-9 -6 -10 -10 -3 -10 6 0 15 5 18 10 8 12 4 12 -15 0z"/>
<path d="M983 730 c0 -25 2 -35 4 -22 2 12 2 32 0 45 -2 12 -4 2 -4 -23z"/>
<path d="M5524 660 l1 -90 40 1 c35 1 37 2 15 9 -19 6 -20 8 -6 9 12 1 16 6
12 16 -3 8 -1 15 4 15 21 0 9 30 -15 36 -22 5 -38 26 -17 23 4 -1 32 -1 62 0
38 1 50 4 40 10 -8 6 -27 7 -42 4 -21 -4 -28 -2 -28 11 0 9 -8 16 -17 16 -14
0 -15 2 -5 9 11 7 10 10 -3 15 -40 15 -43 9 -41 -84z"/>
<path d="M2093 709 c14 -8 22 -8 30 0 8 8 3 11 -18 11 -26 -1 -28 -2 -12 -11z"/>
<path d="M4040 635 c0 -14 5 -25 10 -25 6 0 10 11 10 25 0 14 -4 25 -10 25 -5
0 -10 -11 -10 -25z"/>
<path d="M4074 635 c-7 -17 3 -35 19 -35 8 0 8 3 0 11 -6 6 -9 18 -6 25 3 8 2
14 -1 14 -4 0 -9 -7 -12 -15z"/>
<path d="M698 613 c7 -3 16 -2 19 1 4 3 -2 6 -13 5 -11 0 -14 -3 -6 -6z"/>
<path d="M4313 523 c15 -2 37 -2 50 0 12 2 0 4 -28 4 -27 0 -38 -2 -22 -4z"/>
</g>
</svg>
