<?xml version="1.0" standalone="no"?>
<!DOCTYPE svg PUBLIC "-//W3C//DTD SVG 20010904//EN"
 "http://www.w3.org/TR/2001/REC-SVG-20010904/DTD/svg10.dtd">
<svg version="1.0" xmlns="http://www.w3.org/2000/svg"
 width="420.000000pt" height="280.000000pt" viewBox="0 0 420.000000 280.000000"
 preserveAspectRatio="xMidYMid meet">

<g transform="translate(0.000000,280.000000) scale(0.100000,-0.100000)"
fill="#000000" stroke="none">
<path d="M0 2374 c0 -376 2 -425 15 -420 27 10 65 -15 65 -43 0 -19 11 -33 37
-51 30 -21 50 -25 115 -27 43 -1 82 -4 87 -8 16 -9 81 22 81 39 0 8 12 23 26
33 39 27 104 84 104 92 0 3 -13 12 -29 19 -17 7 -28 19 -25 26 5 13 48 16 59
4 4 -4 20 -4 36 -1 16 3 36 2 46 -2 27 -12 54 -5 73 17 13 16 23 19 43 14 30
-7 35 -27 12 -50 -12 -11 -22 -13 -40 -6 -23 9 -55 4 -55 -7 0 -3 9 -21 21
-39 17 -29 25 -33 47 -28 44 11 46 10 50 -14 5 -30 -34 -46 -65 -26 -30 19
-37 18 -73 -12 -17 -15 -57 -37 -88 -50 -44 -18 -59 -29 -66 -51 -18 -57 -77
-96 -150 -97 -49 -1 -80 -38 -79 -92 1 -50 13 -57 56 -39 20 8 43 15 52 15 26
0 17 -30 -12 -40 -16 -6 -39 -16 -53 -24 -26 -14 -54 -11 -44 5 3 5 -14 9 -37
9 -41 0 -41 0 -35 30 7 36 3 36 -58 9 -26 -11 -54 -19 -64 -18 -50 5 -52 3
-52 -71 l0 -70 30 0 c33 0 38 -14 14 -41 -16 -18 -13 -49 4 -49 5 0 15 13 22
30 7 17 18 30 24 30 11 0 90 35 138 61 10 5 24 9 32 9 27 0 4 -37 -47 -76 -29
-21 -58 -46 -65 -56 -7 -9 -25 -18 -40 -20 -20 -2 -28 -9 -30 -26 -3 -22 -1
-23 27 -17 32 7 40 -5 22 -33 -6 -11 -12 -11 -27 -2 -15 9 -28 8 -59 -2 l-40
-13 -3 -109 c-2 -68 1 -113 8 -121 8 -10 8 -20 0 -35 -11 -21 -10 -22 22 -15
44 10 50 20 43 85 -8 68 5 104 44 125 42 21 48 19 61 -19 6 -19 17 -36 24 -39
26 -10 116 45 116 72 0 6 23 34 50 61 41 41 57 50 86 50 19 0 45 -5 56 -11 14
-7 27 -8 42 -1 45 21 103 42 143 52 47 12 61 26 44 43 -9 9 -16 8 -29 -1 -32
-23 -106 -53 -119 -48 -7 3 -13 15 -13 26 0 25 -25 37 -44 21 -10 -8 -23 -7
-51 4 -31 13 -36 20 -31 38 3 12 6 28 6 35 0 16 31 15 66 -3 37 -19 77 -19
116 1 24 13 36 14 56 5 33 -16 38 -7 16 26 -10 15 -18 31 -17 34 3 10 -86 -7
-101 -20 -13 -11 -24 -10 -61 8 -42 20 -48 20 -68 6 -33 -23 -43 -19 -60 27
-16 39 -16 43 1 61 28 31 72 49 103 43 16 -3 29 -1 29 4 0 6 13 24 30 41 16
18 27 35 24 40 -5 9 48 39 71 39 8 0 21 11 27 25 15 34 42 40 88 18 44 -20 54
-55 23 -80 -10 -8 -12 -12 -5 -8 7 4 19 1 27 -5 18 -15 20 -50 3 -51 -7 0 -4
-4 7 -9 17 -7 17 -9 3 -9 -10 -1 -22 -10 -28 -21 -6 -11 -17 -20 -25 -20 -21
0 -19 -39 3 -47 25 -9 62 -44 62 -60 0 -7 4 -13 10 -13 19 0 31 78 22 143 -14
107 24 177 48 88 18 -67 54 -61 101 16 16 25 19 43 15 68 -4 19 -11 35 -16 35
-24 0 -58 -21 -62 -38 -4 -13 -13 -19 -29 -17 -38 4 -39 4 -39 20 0 18 -1 18
-34 5 -28 -10 -40 -1 -30 24 9 23 43 30 62 13 9 -8 27 -18 39 -21 18 -6 20 -4
16 14 -3 12 2 28 11 39 16 17 15 19 -6 25 -32 8 -78 8 -78 -1 0 -15 -70 -55
-85 -49 -20 7 -19 25 3 33 25 9 52 34 52 49 0 7 -13 15 -30 19 -16 4 -30 10
-31 13 -1 4 -3 34 -5 67 -3 52 1 65 24 100 17 24 42 45 66 54 35 13 42 13 89
-7 l51 -22 45 29 c25 16 67 39 94 52 26 12 55 31 64 41 16 18 16 21 -1 53 -18
34 -19 100 -1 161 6 20 3 20 -102 19 -96 -2 -112 1 -148 21 -35 20 -46 22 -84
13 -24 -5 -63 -7 -87 -3 -48 7 -107 -3 -98 -17 3 -5 15 -9 28 -9 13 0 31 -9
41 -20 15 -17 17 -30 10 -92 -4 -40 -8 -108 -9 -150 0 -42 -6 -82 -12 -88 -7
-7 -37 -7 -100 0 -49 6 -130 13 -181 16 -87 6 -91 5 -98 -16 -5 -15 -1 -25 11
-34 9 -7 14 -18 10 -24 -9 -15 -56 -15 -76 -2 -13 9 -12 13 9 30 l24 20 -27
25 c-14 13 -26 32 -26 42 0 15 2 16 10 3 7 -11 10 -11 10 -2 0 7 4 11 9 8 4
-3 16 3 25 13 13 14 16 29 11 57 -12 76 -15 83 -37 86 -13 2 -22 11 -23 24 -2
27 -54 84 -76 84 -25 0 -34 -19 -12 -26 62 -19 73 -43 42 -88 -13 -20 -30 -38
-37 -41 -19 -7 -54 13 -81 47 -23 29 -24 31 -7 58 15 27 15 31 -4 83 -17 46
-19 59 -9 81 10 21 10 31 -1 51 -7 14 -19 25 -26 25 -17 0 -64 58 -64 79 0 9
7 27 16 39 13 19 24 22 84 22 38 0 72 -5 75 -10 3 -6 25 -9 48 -9 23 1 83 -1
132 -4 50 -4 126 -9 170 -11 44 -3 87 -7 96 -11 22 -8 64 28 56 48 -6 15 -40
17 -357 17 l-350 0 0 -426z m87 -41 c-3 -10 -5 -4 -5 12 0 17 2 24 5 18 2 -7
2 -21 0 -30z m153 -112 c15 -29 12 -49 -9 -61 -26 -14 -50 -3 -57 26 -12 46
44 75 66 35z m-203 -37 c-3 -3 -12 -4 -19 -1 -8 3 -5 6 6 6 11 1 17 -2 13 -5z
m307 -700 c17 -17 22 -74 6 -74 -15 0 -41 57 -34 74 8 20 9 20 28 0z m-184
-19 c0 -22 -37 -55 -60 -55 -26 0 -25 18 2 47 24 26 58 31 58 8z m105 -345
c-3 -5 -11 -10 -16 -10 -6 0 -7 5 -4 10 3 6 11 10 16 10 6 0 7 -4 4 -10z"/>
<path d="M822 2780 c7 -11 18 -20 25 -20 6 0 18 -3 27 -6 22 -8 20 15 -1 32
-10 7 -28 14 -41 14 -20 0 -21 -2 -10 -20z"/>
<path d="M2471 2791 c-12 -8 -12 -12 -2 -25 7 -8 10 -20 6 -26 -4 -6 -3 -24 0
-41 10 -45 39 -35 42 15 1 24 11 48 24 62 l22 24 -39 0 c-21 0 -45 -4 -53 -9z"/>
<path d="M2704 2768 c4 -18 7 -45 7 -60 0 -26 39 -78 58 -78 23 0 15 64 -13
108 -12 20 -2 24 28 12 21 -8 28 -7 32 5 13 33 -4 45 -62 45 l-56 0 6 -32z"/>
<path d="M2840 2790 c0 -5 5 -10 10 -10 6 0 10 5 10 10 0 6 -4 10 -10 10 -5 0
-10 -4 -10 -10z"/>
<path d="M2942 2788 c-7 -7 -12 -16 -12 -21 0 -13 103 3 120 19 12 12 7 14
-41 14 -30 0 -60 -5 -67 -12z"/>
<path d="M3099 2789 c28 -11 124 -14 140 -5 6 4 19 2 30 -3 14 -8 20 -7 25 4
5 13 -12 15 -107 14 -81 0 -105 -3 -88 -10z"/>
<path d="M3329 2786 c9 -10 8 -28 -4 -72 -18 -70 -19 -106 -3 -122 10 -10 10
-17 0 -32 -15 -24 -15 -37 -2 -53 6 -7 16 -20 23 -30 13 -18 15 -18 82 2 63
20 84 33 85 53 0 4 -19 5 -43 2 -49 -7 -117 16 -117 40 0 24 82 32 142 12 28
-9 60 -16 72 -16 33 0 67 29 64 53 -2 15 5 25 25 35 19 9 27 21 27 38 0 42 18
66 48 62 22 -2 28 2 30 20 3 21 0 22 -62 22 -54 0 -70 -4 -87 -21 l-21 -21
-22 21 c-20 19 -34 21 -135 21 -95 0 -112 -2 -102 -14z"/>
<path d="M3895 2789 c-9 -14 1 -22 30 -26 20 -3 25 1 25 17 0 15 -7 20 -24 20
-14 0 -28 -5 -31 -11z"/>
<path d="M3970 2781 c0 -10 7 -24 15 -31 21 -18 19 -48 -5 -55 -11 -3 -20 -10
-20 -15 0 -18 21 -21 42 -8 17 11 22 26 24 71 l3 57 -29 0 c-23 0 -30 -5 -30
-19z"/>
<path d="M4092 2784 c-19 -13 -22 -23 -19 -50 4 -26 1 -34 -11 -34 -13 0 -13
-2 3 -14 10 -7 27 -11 37 -8 23 6 80 -17 72 -30 -4 -6 -10 -6 -17 1 -6 6 -24
11 -39 11 -32 0 -77 -43 -78 -72 0 -33 -30 -20 -30 12 0 39 -26 51 -46 21 -8
-11 -24 -21 -34 -21 -11 0 -24 -9 -30 -20 -9 -16 -8 -20 5 -20 8 0 15 7 15 15
0 12 3 12 19 -2 18 -18 18 -18 -5 -38 -13 -12 -24 -25 -24 -31 0 -6 -10 -20
-23 -32 -27 -25 -60 -20 -93 15 -12 13 -28 23 -37 23 -9 0 -18 4 -21 9 -3 4
-16 6 -29 4 -23 -5 -24 -8 -22 -79 2 -60 -1 -76 -14 -84 -9 -5 -11 -10 -4 -10
19 0 -1 -54 -25 -65 -19 -8 -35 -33 -37 -57 0 -4 -6 -13 -12 -19 -15 -15 -18
-73 -3 -64 6 3 10 -1 10 -9 0 -8 -4 -17 -9 -21 -5 -3 -8 -16 -5 -29 2 -13 0
-45 -5 -71 -6 -33 -6 -54 2 -66 9 -15 8 -21 -8 -33 -10 -7 -25 -12 -31 -9 -7
2 -22 -1 -34 -7 -13 -7 -34 -13 -48 -15 -27 -3 -66 -41 -57 -56 8 -12 35 0 32
14 -1 7 13 13 33 15 19 2 49 4 66 6 40 4 72 26 68 49 -1 10 4 21 12 24 21 8
29 -4 14 -22 -10 -12 -8 -16 15 -25 23 -9 35 -6 70 15 24 14 50 23 57 20 9 -4
19 4 26 20 9 19 17 25 31 20 13 -4 20 0 23 12 5 21 -22 51 -40 45 -14 -4 -16
24 -2 33 5 3 20 3 34 -1 18 -4 25 -12 23 -28 -2 -16 4 -22 27 -24 23 -3 28 0
23 12 -5 11 -1 16 13 16 34 0 20 -32 -17 -44 -28 -9 -29 -22 -4 -36 27 -14 28
-13 35 13 5 21 49 50 60 40 2 -3 28 -6 56 -8 42 -3 51 -1 46 10 -3 8 2 21 10
30 9 8 13 15 9 15 -3 0 12 18 35 40 37 36 40 43 40 93 0 59 -6 72 -27 56 -7
-6 -13 -8 -13 -4 0 4 -6 2 -14 -4 -9 -8 -21 -8 -40 -1 -17 6 -26 6 -26 0 0 -6
7 -10 15 -10 8 0 15 -3 15 -6 0 -10 -28 -33 -33 -27 -3 3 -18 -13 -34 -35 -23
-34 -33 -40 -61 -40 -18 1 -35 5 -38 10 -3 4 -9 6 -14 3 -5 -3 -16 10 -26 30
-18 39 -26 42 -44 20 -7 -9 -21 -13 -35 -9 -16 4 -24 0 -29 -13 -4 -10 -2 -19
3 -21 20 -7 11 -22 -12 -22 -28 0 -47 -17 -47 -42 0 -10 -4 -18 -10 -18 -16 0
-11 33 9 63 19 30 101 106 114 107 4 0 7 15 7 34 0 42 25 69 57 63 19 -4 23 0
23 22 0 35 21 81 37 81 7 0 18 9 25 20 8 12 28 23 50 26 33 6 37 10 48 52 11
44 55 96 72 86 4 -3 -6 -17 -23 -31 -23 -19 -29 -32 -25 -48 4 -15 1 -25 -9
-29 -8 -3 -15 -17 -15 -31 0 -16 -6 -25 -15 -25 -8 0 -15 -9 -15 -20 0 -15 7
-20 26 -20 21 0 24 4 19 20 -4 11 -2 20 4 20 6 0 11 7 11 15 0 9 9 15 23 15
20 0 22 4 19 50 -3 37 0 51 11 56 12 4 15 28 16 115 l2 109 -43 0 c-24 0 -54
-7 -66 -16z m-127 -284 c-3 -5 -11 -10 -16 -10 -6 0 -7 5 -4 10 3 6 11 10 16
10 6 0 7 -4 4 -10z m-20 -60 c-3 -5 -13 -10 -21 -10 -8 0 -12 5 -9 10 3 6 13
10 21 10 8 0 12 -4 9 -10z m-75 -14 c0 -3 -4 -8 -10 -11 -5 -3 -10 -1 -10 4 0
6 5 11 10 11 6 0 10 -2 10 -4z m-184 -217 c-20 -29 -20 -40 -1 -33 8 4 15 1
15 -4 0 -18 -16 -22 -34 -9 -16 12 -16 15 -1 51 11 27 20 35 27 28 7 -7 5 -17
-6 -33z m-16 -74 c0 -8 -4 -15 -10 -15 -5 0 -10 -7 -10 -15 0 -8 -5 -15 -11
-15 -6 0 -8 7 -5 16 3 9 6 22 6 30 0 8 7 14 15 14 8 0 15 -7 15 -15z m214 -40
c4 -11 -2 -15 -21 -15 -26 0 -26 1 -7 15 10 8 20 15 20 15 1 0 4 -7 8 -15z
m-244 -45 c0 -5 7 -10 15 -10 8 0 15 -7 15 -15 0 -8 -7 -15 -16 -15 -11 0 -13
-6 -9 -19 8 -25 -9 -35 -28 -17 -12 12 -12 22 -3 50 10 33 26 49 26 26z"/>
<path d="M3851 2751 c-13 -9 -10 -93 4 -98 6 -1 17 2 25 8 11 8 12 12 3 16
-18 7 -16 32 2 39 8 4 15 12 15 19 0 15 -33 26 -49 16z"/>
<path d="M2237 2723 c-13 -13 -7 -32 8 -27 8 4 15 12 15 20 0 15 -12 19 -23 7z"/>
<path d="M2884 2705 c-8 -20 4 -35 21 -28 9 3 22 0 30 -7 14 -12 35 -6 35 10
0 8 -62 40 -77 40 -2 0 -6 -7 -9 -15z"/>
<path d="M2292 2650 c0 -14 2 -19 5 -12 2 6 2 18 0 25 -3 6 -5 1 -5 -13z"/>
<path d="M283 2630 c-30 -12 -29 -38 2 -52 18 -8 38 -8 70 -1 30 7 45 7 48 0
2 -6 11 -8 21 -4 21 8 12 27 -13 27 -10 0 -26 9 -36 20 -19 21 -55 25 -92 10z"/>
<path d="M1988 2634 c6 -3 12 -12 12 -19 0 -7 15 -17 33 -21 27 -6 29 -8 16
-17 -14 -8 -15 -16 -7 -39 6 -16 8 -31 5 -34 -10 -10 -88 -6 -117 6 -40 16
-44 11 -23 -31 9 -19 17 -55 17 -81 l1 -48 -35 0 c-41 -1 -189 -32 -208 -43
-7 -5 -10 -16 -7 -26 4 -14 0 -16 -30 -13 -28 3 -35 1 -35 -13 0 -12 5 -15 20
-10 15 5 28 -3 52 -29 28 -30 41 -36 83 -38 41 -2 50 -7 53 -23 2 -13 -8 -27
-28 -40 -17 -11 -33 -31 -37 -45 -10 -38 -42 -57 -108 -64 -33 -3 -69 -7 -80
-9 -17 -2 -20 3 -17 31 1 20 -2 32 -10 32 -20 -1 -58 -68 -59 -103 0 -29 -1
-30 -12 -13 -45 72 -73 81 -79 27 -2 -20 5 -28 40 -45 37 -18 42 -25 42 -53 0
-18 4 -33 9 -33 14 0 33 28 26 40 -3 5 1 10 9 10 18 0 23 -59 7 -88 -17 -33
-22 -96 -9 -114 18 -25 54 -13 73 25 19 37 19 34 -6 40 -18 5 -20 10 -14 39
10 47 22 58 67 58 25 0 37 4 33 11 -12 18 5 78 24 89 14 7 25 5 44 -10 31 -25
38 -16 39 50 0 47 2 50 26 50 24 0 24 -1 9 -18 -22 -24 -21 -35 3 -57 25 -22
26 -44 3 -51 -78 -26 -92 -46 -48 -66 26 -12 33 -32 15 -43 -14 -9 -12 -45 3
-45 7 0 18 9 25 20 16 27 52 26 59 -1 5 -16 12 -20 34 -17 18 3 29 0 29 -7 0
-7 9 -20 20 -30 18 -17 21 -17 60 4 49 26 69 26 86 4 20 -26 18 -30 -26 -58
-22 -14 -40 -30 -40 -35 0 -16 42 -11 63 7 18 17 19 17 33 -2 14 -19 15 -18
72 10 57 29 57 30 25 33 -26 2 -33 8 -33 24 0 15 -5 19 -20 15 -29 -7 -53 29
-38 57 6 12 19 27 30 34 32 23 23 58 -22 79 -49 23 -58 54 -35 123 10 31 14
58 9 72 -10 29 -6 48 14 71 12 13 13 20 4 29 -16 16 -15 101 0 116 7 7 22 12
35 12 13 0 29 10 38 24 32 48 92 38 82 -14 -4 -15 1 -33 11 -46 15 -18 24 -20
74 -15 l58 6 -42 63 c-41 62 -42 63 -77 58 -36 -6 -36 -6 -15 12 18 15 20 26
16 78 -4 58 -5 61 -28 56 -13 -2 -30 0 -37 6 -15 12 -75 -18 -69 -36 5 -15
-104 -17 -113 -2 -13 21 17 42 52 35 24 -4 33 -2 33 8 0 19 -21 37 -43 37 -11
0 -34 8 -51 19 -17 10 -42 21 -56 25 -14 3 -19 3 -12 0z m277 -160 c13 -5 14
-8 3 -15 -19 -13 -28 -11 -28 6 0 17 2 18 25 9z m-440 -194 c4 -6 -8 -10 -29
-10 -19 0 -38 5 -41 10 -4 6 8 10 29 10 19 0 38 -4 41 -10z m185 -155 c0 -8
-7 -15 -15 -15 -16 0 -20 12 -8 23 11 12 23 8 23 -8z m-16 -154 c-18 -42 -40
-53 -50 -26 -8 21 45 90 58 77 7 -7 4 -24 -8 -51z m-374 9 c0 -5 -4 -10 -10
-10 -5 0 -10 5 -10 10 0 6 5 10 10 10 6 0 10 -4 10 -10z m390 -140 c0 -5 -7
-10 -15 -10 -8 0 -15 5 -15 10 0 6 7 10 15 10 8 0 15 -4 15 -10z"/>
<path d="M2480 2614 c0 -31 23 -28 28 4 2 15 -2 22 -12 22 -11 0 -16 -9 -16
-26z"/>
<path d="M3732 2612 c-24 -33 -19 -42 12 -19 10 7 17 22 14 33 -3 16 -6 14
-26 -14z"/>
<path d="M3877 2613 c-4 -3 -7 -11 -7 -17 0 -6 5 -5 12 2 6 6 9 14 7 17 -3 3
-9 2 -12 -2z"/>
<path d="M2220 2580 c0 -5 5 -10 10 -10 6 0 10 5 10 10 0 6 -4 10 -10 10 -5 0
-10 -4 -10 -10z"/>
<path d="M3111 2551 c-8 -5 -9 -11 -3 -15 5 -3 12 1 16 9 6 17 6 18 -13 6z"/>
<path d="M2374 2508 c7 -46 30 -88 47 -88 18 0 20 27 6 76 -11 38 -19 50 -37
52 -22 4 -22 2 -16 -40z"/>
<path d="M3780 2540 c0 -5 4 -10 9 -10 6 0 13 5 16 10 3 6 -1 10 -9 10 -9 0
-16 -4 -16 -10z"/>
<path d="M3833 2536 c9 -7 17 -19 17 -25 0 -7 5 -11 12 -9 22 8 19 24 -7 36
-34 16 -44 15 -22 -2z"/>
<path d="M554 2469 c-17 -19 -26 -21 -85 -16 l-67 6 -10 -42 c-6 -23 -10 -42
-9 -43 1 -1 44 -4 95 -6 l92 -5 0 28 c0 28 6 37 44 63 11 7 16 18 12 24 -12
19 -51 14 -72 -9z"/>
<path d="M640 2460 c0 -5 5 -10 10 -10 6 0 10 5 10 10 0 6 -4 10 -10 10 -5 0
-10 -4 -10 -10z"/>
<path d="M4183 2434 c-15 -16 -16 -24 -4 -24 8 0 24 30 19 35 -2 2 -9 -3 -15
-11z"/>
<path d="M1858 2433 c7 -3 16 -2 19 1 4 3 -2 6 -13 5 -11 0 -14 -3 -6 -6z"/>
<path d="M3043 2423 c-7 -2 -13 -9 -13 -14 0 -14 26 -10 40 6 10 12 10 15 -1
14 -8 0 -20 -3 -26 -6z"/>
<path d="M2432 2398 c5 -32 28 -35 28 -4 0 17 -5 26 -16 26 -10 0 -14 -7 -12
-22z"/>
<path d="M3636 2395 c-3 -9 0 -15 9 -15 8 0 15 7 15 15 0 8 -4 15 -9 15 -5 0
-11 -7 -15 -15z"/>
<path d="M4065 2371 c-3 -5 -2 -12 3 -15 13 -8 53 5 46 15 -7 12 -41 12 -49 0z"/>
<path d="M4006 2361 c-4 -7 -5 -15 -2 -18 9 -9 19 4 14 18 -4 11 -6 11 -12 0z"/>
<path d="M4180 2355 c0 -9 -6 -15 -12 -14 -27 3 -36 -2 -41 -22 -3 -12 -10
-18 -16 -14 -6 3 -19 -2 -29 -11 -16 -17 -17 -17 -20 4 -5 32 -17 27 -36 -13
-12 -24 -21 -32 -32 -28 -13 5 -13 2 2 -15 21 -25 34 -28 34 -8 0 19 26 27 57
20 22 -6 24 -4 18 15 -4 12 -2 21 4 21 6 0 11 -4 11 -10 0 -18 18 -10 23 10 3
14 14 20 31 20 22 0 26 4 26 30 0 17 -4 30 -10 30 -5 0 -10 -7 -10 -15z"/>
<path d="M2211 2321 l-23 -6 20 -25 20 -25 7 28 c9 33 7 36 -24 28z"/>
<path d="M3573 2323 c-7 -2 -13 -18 -13 -34 0 -18 -4 -28 -10 -24 -6 3 -10 -4
-10 -17 0 -18 -2 -20 -10 -8 -7 10 -10 11 -10 2 0 -7 -15 -26 -32 -42 -76 -67
-112 -102 -100 -96 6 4 12 2 12 -3 0 -6 9 -11 20 -11 11 0 20 4 20 9 0 16 113
121 130 121 4 0 13 19 19 43 7 23 18 48 23 55 8 9 6 12 -8 11 -11 0 -25 -3
-31 -6z"/>
<path d="M566 2289 c-8 -39 -8 -93 0 -112 4 -11 16 -14 42 -11 44 6 58 17 65
53 11 56 -8 81 -74 95 -23 5 -27 2 -33 -25z"/>
<path d="M3895 2290 c-3 -5 -1 -10 4 -10 6 0 11 5 11 10 0 6 -2 10 -4 10 -3 0
-8 -4 -11 -10z"/>
<path d="M4180 2281 c0 -12 5 -21 10 -21 6 0 10 6 10 14 0 8 -4 18 -10 21 -5
3 -10 -3 -10 -14z"/>
<path d="M3876 2255 c-7 -18 16 -30 41 -21 14 6 14 8 -3 21 -24 18 -31 18 -38
0z"/>
<path d="M3951 2256 c-8 -9 -11 -19 -7 -23 9 -9 29 13 24 27 -2 8 -8 7 -17 -4z"/>
<path d="M3981 2194 c0 -11 3 -14 6 -6 3 7 2 16 -1 19 -3 4 -6 -2 -5 -13z"/>
<path d="M3535 2157 c-11 -12 -37 -35 -58 -50 -20 -16 -35 -33 -31 -38 4 -6
11 -6 20 2 8 6 17 9 21 5 10 -9 -39 -57 -53 -52 -15 6 -54 -30 -54 -49 0 -11
11 -13 53 -8 28 3 54 9 57 12 3 4 17 12 31 18 22 9 28 20 31 53 4 41 -5 63
-15 38 -4 -9 -6 -8 -6 2 -1 9 6 26 15 38 23 33 14 57 -11 29z"/>
<path d="M1452 2142 c-35 -30 -40 -47 -16 -56 27 -11 34 -7 34 20 0 15 10 34
23 45 16 13 18 18 7 18 -8 0 -30 -12 -48 -27z"/>
<path d="M3290 2130 c0 -19 -4 -21 -27 -15 -51 13 -144 24 -158 19 -8 -3 -15
-15 -17 -27 -2 -15 -18 -29 -48 -43 -50 -24 -52 -24 -56 9 -1 12 -3 24 -4 27
0 3 -9 -14 -18 -38 -12 -31 -27 -49 -52 -62 -76 -40 -118 -58 -123 -54 -5 6
-97 -33 -97 -41 0 -3 9 -1 19 5 23 12 51 4 51 -15 0 -14 -58 -41 -77 -37 -7 2
-13 -1 -13 -6 0 -18 13 -21 34 -7 11 8 52 26 89 40 81 30 88 14 10 -25 -28
-14 -58 -32 -67 -39 -10 -9 -29 -12 -50 -8 -28 4 -35 2 -39 -15 -4 -15 -11
-18 -26 -13 -15 4 -21 2 -21 -8 0 -21 35 -48 54 -41 12 5 16 0 16 -16 0 -15 4
-20 15 -16 8 3 19 -3 25 -12 9 -14 10 -13 6 8 -3 14 -9 35 -12 47 -7 26 15 38
88 48 26 3 50 11 54 16 10 16 84 60 97 57 24 -5 94 31 100 52 4 17 12 20 46
18 48 -4 61 -29 28 -54 -21 -15 -21 -16 -2 -11 11 3 40 9 64 12 30 5 39 10 30
16 -8 5 -24 9 -36 9 -16 0 -23 6 -23 20 0 11 4 20 9 20 10 0 123 53 166 78 28
16 38 52 14 52 -5 0 -9 -8 -10 -17 0 -17 -1 -17 -12 -1 -10 14 -15 15 -37 4
-14 -8 -61 -28 -105 -46 -44 -17 -95 -38 -114 -46 -20 -9 -38 -11 -43 -6 -11
11 53 54 107 72 l40 13 -27 9 c-16 6 -28 14 -28 19 0 13 64 11 78 -3 17 -17
122 20 122 43 0 10 -4 21 -10 24 -5 3 -10 -4 -10 -15z m-460 -209 c0 -6 -9 -9
-20 -8 -11 1 -20 5 -20 9 0 4 9 8 20 8 11 0 20 -4 20 -9z"/>
<path d="M1592 2118 c-7 -7 -12 -20 -12 -31 0 -30 34 -16 38 16 4 29 -6 35
-26 15z"/>
<path d="M4180 2071 c12 -9 10 -11 -12 -11 -16 0 -28 -5 -28 -11 0 -6 7 -8 18
-4 14 5 15 4 5 -6 -19 -19 -16 -24 13 -27 23 -2 25 1 22 30 -2 17 -10 33 -18
35 -13 4 -13 3 0 -6z"/>
<path d="M1266 2031 c-3 -5 1 -14 9 -21 8 -7 15 -19 15 -27 0 -20 24 -11 28
11 6 31 -37 62 -52 37z"/>
<path d="M4117 1982 c-19 -21 -22 -32 -7 -32 6 0 10 7 10 15 0 8 3 15 8 15 4
0 7 -20 7 -44 0 -38 -2 -43 -17 -35 -9 5 -19 14 -21 21 -3 8 -6 6 -6 -4 -1
-10 -5 -18 -10 -18 -5 0 -14 -14 -20 -31 -14 -40 -14 -52 -1 -44 20 12 48 -5
43 -25 -3 -11 -10 -20 -15 -20 -6 0 -8 -7 -4 -15 3 -9 -3 -24 -14 -35 -11 -11
-15 -20 -10 -20 6 0 10 -5 10 -11 0 -13 -25 -39 -38 -39 -6 0 -12 -6 -14 -12
-3 -8 -9 -4 -17 10 -7 14 -8 22 -1 22 15 0 12 17 -5 24 -21 8 -45 -3 -45 -20
0 -8 -7 -14 -15 -14 -9 0 -15 -9 -15 -23 0 -27 -31 -67 -51 -67 -10 0 -10 3
-3 8 13 8 7 72 -7 72 -5 0 -9 -7 -9 -16 0 -8 -5 -12 -10 -9 -7 4 -9 -3 -4 -22
6 -27 6 -27 -12 -11 -17 17 -17 19 7 44 13 14 23 28 21 30 -5 8 25 33 32 27 3
-4 6 -2 7 3 0 5 2 21 4 37 3 25 1 27 -31 27 -31 0 -35 3 -29 20 7 23 -10 27
-19 4 -3 -8 -10 -13 -14 -10 -5 3 -7 -6 -4 -19 2 -14 8 -25 13 -25 5 0 6 -7 3
-15 -4 -8 -15 -15 -26 -15 -12 0 -27 -8 -34 -17 -12 -17 -13 -16 -14 4 0 33
-19 38 -30 8 -5 -14 -14 -23 -20 -20 -5 3 -10 -1 -10 -9 0 -9 -7 -16 -15 -16
-18 0 -19 12 -3 28 8 8 8 12 1 12 -22 0 -25 -35 -4 -49 27 -17 27 -31 -1 -31
-11 0 -49 -16 -83 -35 -44 -24 -65 -31 -73 -23 -11 11 -5 41 8 33 4 -3 14 10
21 28 7 17 18 35 23 39 6 4 -6 8 -26 8 -26 0 -38 5 -38 14 0 23 -39 27 -50 5
-9 -16 -7 -19 15 -19 14 0 25 -5 25 -11 0 -7 -10 -9 -25 -7 -21 4 -23 3 -14
-9 17 -20 4 -27 -15 -8 -9 9 -17 14 -17 11 -5 -21 -4 -32 3 -36 4 -3 -5 -19
-20 -35 -23 -25 -27 -27 -30 -12 -6 29 -27 12 -24 -18 2 -15 -2 -32 -9 -36
-10 -6 -10 -11 0 -23 18 -22 104 -64 120 -58 9 3 11 0 6 -7 -5 -8 2 -11 22 -9
18 2 27 -1 26 -9 -2 -7 16 -17 40 -24 23 -6 50 -15 59 -20 24 -12 55 -11 80 2
17 9 20 9 15 -4 -3 -8 0 -20 6 -26 9 -9 4 -11 -18 -10 -65 5 -85 0 -95 -26
-12 -33 -18 -32 -13 3 3 26 3 26 -8 5 -14 -27 -25 -29 -33 -8 -3 9 0 15 8 15
8 0 16 7 19 14 7 18 -19 11 -46 -13 -16 -13 -18 -13 -15 -1 2 12 -5 14 -32 12
-19 -2 -32 -1 -29 3 4 3 24 7 45 8 29 2 40 8 42 21 4 16 -1 18 -32 13 -26 -4
-36 -2 -36 8 0 8 -7 11 -19 8 -13 -3 -20 2 -25 21 -3 14 -10 25 -14 24 -11 -2
-45 14 -65 30 -9 8 -20 12 -23 9 -4 -4 -18 3 -32 13 -23 18 -26 19 -37 4 -11
-15 -12 -15 -18 -1 -6 16 -70 48 -91 46 -20 -2 -57 13 -54 23 2 5 7 9 12 8 5
-1 13 4 17 12 7 10 12 11 29 1 11 -7 29 -13 39 -13 11 0 23 -5 26 -11 5 -7 13
-5 25 6 9 8 24 13 32 10 16 -6 68 30 68 48 0 7 12 23 26 37 15 13 22 26 16 28
-6 2 -8 20 -5 41 4 32 2 39 -16 44 -20 5 -20 4 -5 -24 14 -28 12 -49 -5 -49
-10 0 -24 39 -21 60 2 12 -2 12 -17 -3 -11 -9 -26 -17 -34 -18 -8 0 1 -5 19
-10 17 -5 32 -13 32 -18 0 -20 -40 -51 -65 -51 -27 0 -28 0 -10 20 16 18 16
20 2 20 -10 0 -17 -4 -17 -10 0 -13 -79 -10 -87 3 -4 6 0 8 10 4 11 -4 17 -1
17 9 0 10 -7 13 -25 8 -16 -4 -34 0 -50 10 -13 9 -32 16 -42 16 -14 0 -15 -2
-5 -9 15 -9 -31 -34 -85 -46 -54 -11 -37 -23 18 -13 51 9 109 -3 109 -23 0
-13 -36 -29 -65 -29 -14 0 -24 -4 -21 -9 7 -10 -17 -21 -45 -21 -27 0 -24 20
4 21 12 0 16 3 10 6 -21 8 -15 32 6 26 10 -3 22 0 25 6 5 7 -2 11 -18 11 -14
0 -28 -4 -31 -10 -9 -14 -72 -13 -81 2 -5 8 0 9 15 5 15 -4 24 0 28 11 10 25
38 49 54 44 8 -2 5 3 -6 12 -22 17 -39 21 -31 7 6 -10 -24 -25 -32 -16 -3 3 1
5 9 5 8 0 4 7 -10 16 l-23 17 28 23 c28 23 28 23 6 24 -15 0 -26 -8 -32 -26
-6 -14 -14 -23 -19 -20 -5 3 -11 0 -14 -8 -3 -7 -25 -23 -49 -35 -23 -11 -35
-21 -26 -21 9 0 23 -3 32 -6 11 -4 16 -1 16 11 0 10 5 13 12 9 7 -5 8 -3 3 6
-6 10 -4 12 8 7 10 -3 17 -2 17 3 0 6 4 10 9 10 6 0 9 -9 8 -20 -2 -25 -55
-52 -78 -39 -28 14 -42 11 -25 -6 8 -8 23 -15 33 -15 17 -1 17 -1 -1 -12 -15
-8 -21 -7 -28 5 -7 13 -14 14 -36 6 -15 -6 -27 -9 -27 -7 -1 4 -18 -11 -77
-63 -56 -48 -64 -41 -13 12 19 20 31 39 28 42 -8 9 -44 -13 -38 -23 3 -5 -8
-18 -25 -30 -16 -12 -30 -27 -30 -34 0 -7 -17 -18 -39 -24 -51 -16 -72 -15
-41 1 45 24 70 42 70 50 0 5 -10 5 -22 2 -17 -6 -20 -4 -15 10 4 9 7 19 7 21
0 3 9 0 20 -6 16 -9 18 -8 14 5 -4 8 -13 15 -22 15 -21 0 -52 -29 -46 -43 2
-7 -24 -30 -59 -52 -34 -22 -68 -46 -74 -55 -8 -10 -15 -11 -20 -5 -10 13
-114 65 -130 65 -15 0 -23 -26 -11 -38 7 -7 4 -18 -7 -36 -17 -25 -17 -26 3
-26 11 0 22 -6 25 -12 4 -10 7 -10 18 0 7 6 17 12 22 12 14 0 -33 -33 -65 -48
-19 -8 -28 -8 -28 -1 0 6 -14 -1 -31 -15 -17 -14 -35 -26 -41 -26 -6 0 -9 -3
-6 -6 7 -7 49 14 61 30 6 7 7 4 3 -7 -3 -10 -6 -23 -6 -29 0 -6 -7 -8 -15 -4
-8 3 -15 1 -15 -4 0 -6 -5 -10 -11 -10 -6 0 -18 -8 -27 -17 -16 -16 -17 -15
-21 8 -3 25 -52 75 -83 85 -10 3 -18 10 -18 15 0 18 -32 9 -37 -11 -3 -12 -10
-19 -16 -17 -14 4 -47 -29 -47 -48 0 -22 -26 -18 -43 5 l-14 21 -6 -21 c-3
-13 -13 -20 -30 -20 -18 0 -45 -19 -86 -59 -34 -33 -61 -64 -61 -70 0 -6 -5
-11 -11 -11 -6 0 -24 -9 -40 -21 -16 -11 -34 -17 -39 -14 -6 4 -16 -7 -23 -24
-7 -19 -21 -34 -35 -38 -15 -4 -33 -25 -52 -64 -17 -32 -30 -63 -30 -69 0 -5
30 6 66 25 74 40 78 41 70 20 -4 -12 2 -14 28 -12 19 1 34 4 34 7 -2 29 34 69
87 97 16 9 35 22 43 30 20 19 26 9 10 -16 -7 -12 -23 -24 -35 -27 -13 -4 -23
-10 -23 -15 0 -5 -7 -9 -17 -9 -9 0 -14 -3 -10 -6 3 -3 -5 -17 -19 -31 -25
-24 -32 -39 -14 -28 20 12 32 -7 13 -21 -17 -14 -17 -15 5 -9 48 14 18 -14
-54 -49 -42 -21 -74 -40 -71 -42 3 -3 28 6 57 21 28 14 59 24 68 22 13 -4 12
-5 -4 -6 -11 0 -24 -5 -30 -9 -5 -5 -36 -24 -69 -41 -33 -18 -51 -25 -41 -17
23 18 10 21 -30 6 -15 -6 -43 -13 -63 -15 -20 -3 -67 -16 -106 -29 -67 -23
-96 -25 -65 -6 24 16 1 11 -31 -6 -17 -8 -32 -14 -34 -12 -2 2 14 32 35 66 22
35 40 68 40 74 0 7 15 9 43 5 l43 -6 37 77 c21 42 37 82 37 87 0 6 -14 19 -30
30 -17 11 -33 28 -36 38 -3 11 -12 16 -20 13 -7 -3 -19 3 -26 13 -16 23 -33
16 -103 -46 -31 -28 -50 -54 -54 -75 -5 -22 -14 -34 -26 -36 -30 -6 -62 -39
-115 -121 -27 -40 -60 -79 -75 -87 -33 -17 -58 -8 -49 18 5 17 1 17 -34 -7
-27 -18 -47 -25 -61 -20 -25 8 -30 -19 -6 -32 9 -5 12 -17 8 -31 -7 -28 -27
-24 -31 7 -5 34 -30 37 -61 7 -15 -14 -31 -26 -35 -26 -18 0 -57 -53 -48 -62
7 -7 14 -3 21 11 7 12 18 21 25 21 8 0 19 7 26 15 18 21 47 19 53 -5 7 -26
-27 -50 -70 -50 -24 0 -37 -7 -49 -25 -9 -14 -24 -25 -34 -25 -10 0 -27 -11
-38 -25 -11 -14 -24 -25 -29 -25 -10 0 -57 -60 -51 -64 21 -19 47 -23 66 -13
11 7 40 22 62 35 23 12 58 24 79 26 20 2 55 13 78 24 23 12 45 22 48 22 3 0 5
-13 5 -30 0 -25 -5 -31 -32 -38 -24 -6 -34 -15 -36 -31 -3 -21 -33 -39 -107
-65 -19 -7 -19 -8 5 -26 18 -14 34 -18 56 -14 23 4 33 1 37 -10 4 -9 11 -16
18 -16 6 0 9 7 6 15 -4 8 -2 17 3 20 6 4 10 22 10 41 0 24 4 34 13 31 6 -2 23
4 36 14 13 11 29 19 36 19 11 0 85 81 85 93 0 3 -8 7 -17 9 -14 3 -13 7 8 28
13 14 21 21 17 16 -14 -18 -9 -28 11 -21 17 5 28 -6 31 -33 1 -4 11 -13 23
-19 l22 -13 -23 -6 c-12 -3 -22 -14 -21 -23 0 -11 2 -12 6 -3 4 9 8 10 18 2
10 -8 21 -7 44 5 31 16 44 42 16 31 -11 -4 -15 1 -15 19 0 16 -6 25 -16 25
-14 0 -14 3 -4 15 13 16 32 21 28 8 -3 -9 5 -13 25 -13 8 0 7 4 -3 11 -13 9
-13 10 0 6 8 -2 18 -17 21 -33 5 -23 7 -24 8 -6 1 13 7 22 17 22 9 0 14 -3 12
-7 -3 -5 -10 -23 -17 -40 -7 -18 -17 -33 -22 -33 -5 0 -8 -3 -8 -8 4 -21 -3
-32 -18 -32 -15 0 -15 -2 -4 -9 8 -5 20 -7 26 -5 14 6 27 -29 26 -66 0 -14 2
-19 5 -12 8 17 27 15 21 -2 -3 -7 0 -19 6 -25 8 -8 8 -14 -1 -23 -9 -9 -12 -8
-12 4 0 22 -30 32 -31 10 -1 -9 -1 -20 0 -24 0 -5 -6 -8 -14 -8 -9 0 -20 -10
-25 -22 -5 -13 -9 -17 -9 -10 -1 23 -18 3 -25 -28 -3 -20 -10 -29 -17 -24 -6
3 -15 1 -19 -7 -11 -17 -86 -38 -182 -52 -81 -11 -96 -24 -58 -50 11 -8 17
-17 12 -22 -4 -4 2 -5 13 -2 31 10 200 36 204 32 2 -2 -10 -7 -25 -10 -142
-32 -211 -60 -244 -99 -11 -14 23 -16 349 -16 l362 0 -6 38 -5 37 13 -35 14
-35 81 -3 c85 -3 89 -1 149 57 13 13 15 12 11 -5 -2 -10 -9 -19 -16 -19 -6 0
-12 -3 -12 -7 0 -5 0 -12 0 -17 0 -15 595 -14 622 0 17 9 23 9 26 0 3 -8 69
-11 228 -11 187 0 224 2 224 14 0 24 29 46 60 46 15 0 30 6 33 13 3 7 37 26
77 41 78 31 104 63 77 95 -17 19 -11 42 9 34 7 -3 38 9 69 26 74 42 83 39 12
-5 l-57 -35 22 -29 c11 -16 18 -36 15 -44 -5 -13 1 -16 35 -16 53 0 46 -7 -15
-14 -31 -4 -74 -22 -130 -56 -46 -28 -88 -50 -95 -50 -6 0 -14 -4 -17 -10 -4
-6 10 -10 34 -10 30 0 41 4 41 15 0 11 9 14 37 10 21 -3 39 -9 41 -15 2 -5 30
-10 63 -10 48 0 73 7 129 35 51 26 70 31 70 21 0 -8 -6 -17 -12 -20 -7 -2 -2
-4 12 -3 15 1 24 -3 22 -10 -3 -19 15 -16 26 3 7 13 13 14 31 4 34 -18 81 -2
132 45 45 42 138 85 184 85 18 0 57 32 142 117 87 85 132 123 172 140 47 21
52 26 46 46 -4 12 -10 48 -12 79 -4 47 -1 62 17 86 31 42 21 76 -30 98 -40 18
-44 34 -9 34 11 0 22 -7 25 -15 8 -19 21 -19 21 0 0 8 -4 12 -8 10 -4 -3 -9 2
-13 10 -8 21 20 19 74 -6 78 -37 99 -40 110 -19 14 27 12 56 -5 70 -21 18 -19
29 10 42 14 6 25 14 25 18 0 4 -42 22 -92 40 -130 46 -198 77 -198 90 0 6 14
24 31 39 25 23 28 29 15 34 -22 9 -48 -3 -42 -18 7 -20 -65 -45 -108 -38 -20
3 -41 12 -47 20 -10 11 -9 12 5 7 9 -3 16 -1 16 5 0 6 7 11 16 11 8 0 12 5 8
11 -4 8 -9 8 -17 0 -16 -16 -30 -14 -24 3 4 11 -1 13 -20 10 -15 -3 -30 0 -34
8 -7 10 -9 10 -9 -2 0 -12 -2 -13 -9 -1 -7 11 -10 9 -16 -8 -3 -11 -14 -21
-23 -21 -15 0 -15 2 -2 11 10 7 11 12 3 15 -6 3 -21 14 -34 25 l-22 19 39 1
c21 1 66 1 100 0 38 -2 75 3 99 13 35 15 62 14 40 -2 -6 -4 -18 -22 -27 -40
l-17 -32 27 0 c23 0 53 14 82 37 2 2 -1 8 -9 12 -8 5 4 12 35 20 26 7 66 23
88 35 23 13 56 24 75 24 l35 1 -30 -20 c-31 -20 -21 -24 35 -13 l31 7 -2 241
-3 241 -27 0 c-15 1 -30 4 -34 8 -7 7 -6 8 34 12 27 3 42 15 19 15 -9 0 -17 5
-17 10 0 6 7 10 15 10 12 0 15 16 15 84 0 80 -1 85 -22 89 l-23 4 23 2 c20 1
22 6 22 50 0 44 -2 49 -20 44 -11 -3 -20 0 -20 6 0 17 -25 13 -43 -7z m-7
-113 c0 -5 -7 -9 -16 -9 -8 0 -12 -4 -9 -10 3 -5 1 -10 -4 -10 -15 0 -14 37 2
43 15 5 27 -1 27 -14z m0 -169 c0 -5 -5 -10 -11 -10 -5 0 -7 5 -4 10 3 6 8 10
11 10 2 0 4 -4 4 -10z m50 -1 c0 -15 -18 -19 -23 -6 -3 8 1 14 9 14 8 0 14 -4
14 -8z m-170 -3 c0 -2 -7 -7 -16 -10 -8 -3 -12 -2 -9 4 6 10 25 14 25 6z
m-1080 -16 c0 -5 -5 -10 -11 -10 -5 0 -7 5 -4 10 3 6 8 10 11 10 2 0 4 -4 4
-10z m-73 -60 c-32 -25 -42 -26 -19 -1 9 11 23 20 31 20 7 1 2 -8 -12 -19z
m1148 10 c-3 -5 -10 -10 -16 -10 -5 0 -9 5 -9 10 0 6 7 10 16 10 8 0 12 -4 9
-10z m-1205 -24 c0 -2 -9 -2 -20 1 -11 3 -20 9 -20 15 0 5 9 4 20 -2 11 -6 20
-12 20 -14z m100 4 c0 -5 -2 -10 -4 -10 -3 0 -8 5 -11 10 -3 6 -1 10 4 10 6 0
11 -4 11 -10z m901 -42 c-25 -27 -26 -22 -4 23 13 25 18 29 21 17 2 -10 -6
-27 -17 -40z m-1022 23 c10 -6 3 -12 -23 -21 -21 -7 -40 -9 -43 -6 -4 3 8 9
26 12 23 5 29 9 19 15 -7 5 -8 9 -3 9 6 0 16 -4 24 -9z m91 -1 c0 -5 -5 -10
-11 -10 -5 0 -7 5 -4 10 3 6 8 10 11 10 2 0 4 -4 4 -10z m200 0 c0 -5 -7 -10
-15 -10 -8 0 -15 5 -15 10 0 6 7 10 15 10 8 0 15 -4 15 -10z m-120 -19 c0 -11
-69 -36 -77 -28 -6 6 46 36 65 37 6 0 12 -4 12 -9z m550 -11 c0 -5 -4 -10 -10
-10 -5 0 -10 5 -10 10 0 6 5 10 10 10 6 0 10 -4 10 -10z m350 1 c0 -4 11 -7
25 -6 29 4 31 -6 9 -41 -19 -28 -12 -43 10 -25 9 8 16 8 20 2 4 -5 2 -12 -3
-15 -5 -3 -7 -16 -4 -29 4 -19 3 -20 -7 -4 -6 9 -8 22 -4 29 5 7 3 8 -7 2 -24
-15 -37 -13 -32 5 2 10 -3 24 -13 32 -16 13 -16 12 -4 -11 12 -23 12 -24 -3
-11 -15 11 -17 11 -17 -2 0 -17 -24 -29 -44 -21 -8 3 -17 1 -21 -5 -10 -17
-25 -13 -19 4 4 8 1 15 -5 15 -6 0 -8 7 -5 15 4 8 12 15 18 15 7 0 26 13 42
30 27 28 64 40 64 21z m-1149 -8 c1 -9 5 -29 10 -53 2 -9 -2 -14 -10 -12 -7 2
-41 -10 -75 -26 -46 -22 -70 -28 -100 -24 -29 3 -43 0 -51 -11 -13 -18 -62
-30 -70 -17 -3 4 2 11 11 14 8 3 13 10 10 15 -3 5 2 7 13 4 21 -5 81 22 81 38
0 6 4 8 9 4 5 -3 12 -1 16 5 10 16 28 12 21 -5 -7 -19 -7 -19 48 5 25 10 46
24 46 30 0 6 -12 5 -30 -5 -37 -19 -60 -21 -41 -2 6 6 15 12 19 13 37 6 72 18
72 25 0 11 20 12 21 2z m307 -9 c-2 -12 -14 -17 -41 -18 -21 -1 -35 3 -33 9 2
6 18 9 37 7 25 -1 30 0 19 8 -13 8 -12 10 3 10 12 0 17 -6 15 -16z m962 -19
c-7 -9 -10 -18 -6 -22 3 -3 6 -1 6 5 0 7 6 12 14 12 8 0 14 -10 14 -25 0 -29
1 -28 -32 -14 -14 7 -22 17 -19 25 3 8 -1 14 -8 14 -8 0 -3 6 11 13 30 16 38
13 20 -8z m-1090 -7 c0 -6 -10 -8 -22 -5 -12 3 -30 1 -41 -5 -14 -7 -18 -7
-12 2 16 26 75 32 75 8z m644 4 c-6 -4 -14 -16 -18 -27 -6 -13 -10 -16 -13 -7
-6 15 14 42 31 42 8 0 8 -3 0 -8z m56 -27 c0 -8 -4 -15 -10 -15 -5 0 -10 7
-10 15 0 8 5 15 10 15 6 0 10 -7 10 -15z m498 6 c10 -6 8 -10 -10 -14 -41 -12
-54 -8 -32 8 22 17 25 17 42 6z m-868 -13 c-10 -4 -21 -16 -25 -28 -4 -12 -23
-29 -43 -38 -35 -14 -36 -16 -13 -21 21 -6 22 -8 7 -20 -9 -7 -16 -20 -16 -28
0 -10 -6 -13 -16 -9 -9 3 -22 6 -30 6 -8 0 -14 5 -14 11 0 7 10 9 25 5 14 -4
25 -2 25 4 0 11 -30 13 -54 4 -9 -3 -13 -10 -10 -15 3 -5 -2 -9 -10 -9 -9 0
-16 -5 -16 -10 0 -7 -7 -7 -21 0 -24 13 -73 5 -64 -10 8 -12 -35 -29 -54 -22
-8 3 -12 1 -8 -5 4 -6 -6 -10 -24 -11 -18 0 -37 -9 -48 -23 -11 -14 -23 -19
-30 -14 -13 8 5 21 59 45 14 6 48 22 77 36 28 13 61 24 72 24 25 0 71 20 71
31 0 5 6 6 13 4 6 -2 25 7 41 21 28 25 29 27 12 40 -14 10 -24 10 -38 3 -11
-6 -22 -8 -25 -5 -11 11 7 35 29 39 39 6 149 3 128 -5z m-733 -4 c-10 -10 -77
-22 -77 -14 0 8 18 13 64 17 10 1 16 0 13 -3z m403 -8 c8 -2 14 -7 13 -12 -3
-16 -20 -15 -37 2 -16 15 -18 15 -29 0 -8 -11 -19 -15 -31 -10 -17 6 -16 8 5
20 13 8 33 11 44 8 11 -3 27 -6 35 -8z m45 4 c3 -5 1 -10 -4 -10 -6 0 -11 5
-11 10 0 6 2 10 4 10 3 0 8 -4 11 -10z m1285 0 c0 -5 -4 -10 -10 -10 -5 0 -10
-5 -10 -11 0 -5 5 -7 10 -4 6 3 10 1 10 -5 0 -21 -25 -4 -28 18 -2 15 2 22 12
22 9 0 16 -4 16 -10z m-236 -21 c-3 -5 -11 -9 -19 -9 -7 0 -16 -6 -18 -12 -3
-7 -6 -4 -6 8 -1 11 2 23 5 26 8 9 44 -3 38 -13z m-1310 -7 c2 -4 -5 -9 -17
-9 -17 -2 -19 0 -7 7 18 12 18 12 24 2z m1331 -21 c-3 -12 -15 -21 -26 -21
-25 0 -24 8 4 30 26 21 31 19 22 -9z m-1209 -8 c-8 -8 -36 5 -36 17 0 7 6 7
21 0 11 -7 18 -14 15 -17z m1014 11 c0 -7 -8 -10 -20 -7 -11 3 -20 8 -20 12 0
4 9 7 20 7 11 0 20 -6 20 -12z m50 12 c0 -3 -4 -8 -10 -11 -5 -3 -10 -1 -10 4
0 6 5 11 10 11 6 0 10 -2 10 -4z m-1447 -18 c-4 -7 -8 -16 -8 -20 0 -7 -50
-48 -59 -48 -4 0 -17 -9 -29 -20 -12 -11 -28 -18 -35 -15 -8 3 -27 -5 -42 -17
-16 -13 -47 -36 -70 -52 -23 -15 -39 -31 -36 -33 3 -3 12 -1 19 5 8 7 17 9 20
6 6 -6 79 44 85 59 2 4 15 7 28 7 13 0 24 5 24 10 0 6 5 10 11 10 6 0 17 7 25
15 9 8 21 15 27 15 7 0 0 -10 -15 -21 -16 -11 -28 -27 -28 -35 0 -9 -5 -12
-10 -9 -6 4 -18 4 -27 1 -14 -6 -14 -8 3 -21 18 -13 18 -14 -6 -9 -24 5 -24 5
-6 -10 17 -14 17 -16 4 -16 -9 0 -19 4 -23 9 -3 6 -30 1 -63 -10 -50 -17 -59
-24 -68 -52 -5 -18 -16 -32 -24 -32 -8 0 -21 -8 -28 -17 -7 -10 -19 -18 -27
-18 -8 0 -21 -10 -29 -22 -9 -12 -16 -19 -16 -14 0 5 -7 3 -15 -4 -10 -8 -15
-9 -15 -2 0 6 -7 9 -16 5 -8 -3 -13 -12 -10 -19 3 -8 0 -14 -7 -14 -13 0 -67
-56 -67 -69 0 -4 -15 -7 -32 -7 -18 0 -45 -4 -60 -8 -21 -6 -26 -5 -24 8 1 8
6 19 11 23 4 4 5 2 1 -4 -10 -17 25 -17 48 0 9 7 21 30 26 51 l8 38 -44 -4
c-24 -2 -44 0 -44 4 0 5 6 8 14 8 7 0 27 7 42 15 16 8 43 15 59 15 25 0 42 12
90 65 33 35 66 67 75 70 8 4 1 -9 -17 -27 -77 -81 -122 -133 -138 -162 -14
-25 -6 -20 38 24 31 30 64 55 74 55 10 0 18 5 18 11 0 7 15 33 33 58 32 44 76
76 104 76 7 0 38 18 68 40 30 22 69 47 85 55 17 8 44 26 60 40 32 27 51 33 38
13z m117 -19 c0 -11 -27 -12 -34 0 -3 4 -3 11 0 14 8 8 34 -3 34 -14z m873 7
c4 -10 0 -12 -14 -9 -22 6 -26 23 -5 23 8 0 16 -6 19 -14z m497 -7 c0 -4 -7
-6 -15 -3 -8 4 -15 10 -15 15 0 4 7 6 15 3 8 -4 15 -10 15 -15z m-1060 7 c0
-3 -4 -8 -10 -11 -5 -3 -10 -1 -10 4 0 6 5 11 10 11 6 0 10 -2 10 -4z m917
-22 c2 -6 -3 -11 -12 -11 -8 0 -15 7 -15 15 0 15 22 12 27 -4z m72 1 c1 15 4
16 13 7 14 -14 3 -28 -27 -34 -11 -2 -20 -8 -20 -13 -2 -25 -18 -55 -30 -55
-7 0 -15 13 -17 29 -3 23 -1 27 14 23 11 -2 18 -1 16 4 -2 5 6 18 17 29 17 18
21 19 27 5 5 -12 7 -11 7 5z m-1411 -17 c-3 -7 -13 -15 -23 -16 -15 -4 -16 -2
-4 12 17 19 32 21 27 4z m826 -3 c-4 -9 -19 -15 -40 -15 -24 0 -34 5 -34 15 0
11 11 15 40 15 31 0 38 -3 34 -15z m-628 -20 c-26 -19 -42 -19 -26 0 7 8 20
15 29 15 13 -1 13 -3 -3 -15z m664 5 c8 -5 12 -12 9 -15 -8 -8 -39 5 -39 16 0
11 11 11 30 -1z m-713 -24 c5 -8 19 -19 33 -25 14 -5 19 -10 12 -10 -7 -1 -11
-5 -8 -10 3 -5 -1 -12 -10 -15 -12 -4 -15 -2 -11 9 8 18 -13 32 -23 15 -11
-18 0 -52 16 -46 18 7 28 -12 15 -28 -7 -8 -43 -22 -82 -32 -38 -10 -78 -26
-88 -35 -10 -10 -21 -15 -24 -12 -8 8 4 34 13 28 5 -3 11 -1 15 5 3 5 -3 10
-14 10 -12 0 -21 -4 -21 -9 0 -5 -11 -16 -25 -25 -14 -9 -25 -13 -25 -9 1 14
47 64 61 66 8 2 20 6 27 11 8 5 12 3 10 -6 -2 -9 7 -12 32 -10 19 2 36 7 38
12 2 4 11 6 20 3 10 -2 28 0 42 6 22 9 23 10 5 12 -11 1 -23 1 -26 1 -4 -1 -5
9 -3 21 l5 22 -12 -22 c-7 -14 -21 -23 -35 -23 -13 0 -26 -5 -29 -10 -4 -6
-12 -5 -21 4 -8 9 -22 12 -32 9 -26 -9 -11 2 27 20 28 14 31 14 21 1 -11 -12
-9 -14 17 -12 24 2 29 6 25 20 -3 13 1 18 16 18 22 0 35 33 19 49 -8 8 -8 11
1 11 6 0 15 -6 19 -14z m-162 -6 c3 -5 1 -10 -4 -10 -6 0 -11 5 -11 10 0 6 2
10 4 10 3 0 8 -4 11 -10z m605 -16 c0 -14 -3 -14 -15 -4 -8 7 -15 14 -15 16 0
2 7 4 15 4 8 0 15 -7 15 -16z m240 4 c-14 -6 -40 -10 -59 -9 -19 0 -40 -4 -48
-10 -7 -6 -21 -8 -30 -5 -10 4 -14 4 -11 0 4 -3 -3 -15 -15 -24 -16 -13 -24
-15 -29 -7 -6 9 -8 9 -8 0 0 -7 -5 -13 -11 -13 -6 0 -9 6 -6 13 2 6 12 12 23
12 10 0 19 7 19 14 0 17 84 38 155 38 40 0 42 -1 20 -9z m40 -8 c0 -5 -5 -10
-11 -10 -5 0 -7 5 -4 10 3 6 8 10 11 10 2 0 4 -4 4 -10z m-320 -20 c0 -11 -7
-20 -15 -20 -13 0 -13 3 -3 20 7 11 14 20 15 20 2 0 3 -9 3 -20z m394 11 c4
-5 -3 -7 -14 -4 -23 6 -26 13 -6 13 8 0 17 -4 20 -9z m305 -15 c10 -12 8 -13
-8 -9 -12 3 -21 9 -21 14 0 14 16 11 29 -5z m-539 -26 c-8 -5 -17 -7 -19 -4
-3 3 1 9 9 14 8 5 17 7 19 4 3 -3 -1 -9 -9 -14z m-438 -27 c-18 -7 -32 -18
-32 -24 0 -5 -5 -7 -11 -3 -17 10 39 54 59 46 13 -4 9 -9 -16 -19z m325 11
c-3 -3 -12 -4 -19 -1 -8 3 -5 6 6 6 11 1 17 -2 13 -5z m-240 -10 c-3 -3 -12
-4 -19 -1 -8 3 -5 6 6 6 11 1 17 -2 13 -5z m883 -4 c0 -5 -7 -10 -16 -10 -8 0
-12 5 -9 10 3 6 10 10 16 10 5 0 9 -4 9 -10z m214 -7 c4 -9 0 -23 -9 -32 -15
-15 -16 -13 -9 13 6 25 4 28 -10 23 -10 -4 -15 -3 -11 3 10 16 32 12 39 -7z
m-1651 -36 c-10 -20 -23 -37 -30 -37 -7 0 -13 -7 -13 -15 0 -8 -9 -19 -19 -25
-11 -5 -23 -19 -26 -30 -3 -11 -14 -20 -23 -20 -15 0 -15 -2 -2 -10 13 -9 13
-10 0 -11 -8 -1 -19 -1 -24 0 -5 1 -18 -6 -30 -17 -24 -21 -80 -47 -72 -33 3
5 30 25 60 45 57 38 116 92 116 106 0 5 9 11 20 15 11 3 27 22 36 41 22 46 28
38 7 -9z m731 37 c15 -6 15 -8 -1 -20 -10 -7 -22 -13 -28 -14 -5 0 -3 5 5 11
12 8 9 9 -12 5 -45 -10 -34 3 19 23 1 1 9 -2 17 -5z m81 -4 c-3 -5 -14 -10
-23 -10 -15 0 -15 2 -2 10 20 13 33 13 25 0z m55 0 c-19 -13 -30 -13 -30 0 0
6 10 10 23 10 18 0 19 -2 7 -10z m180 -10 c0 -5 -2 -10 -4 -10 -3 0 -8 5 -11
10 -3 6 -1 10 4 10 6 0 11 -4 11 -10z m125 0 c-3 -5 -13 -10 -21 -10 -8 0 -14
5 -14 10 0 6 9 10 21 10 11 0 17 -4 14 -10z m-1142 -20 c-3 -12 -8 -19 -11
-16 -5 6 5 36 12 36 2 0 2 -9 -1 -20z m62 -30 c-3 -6 -16 -9 -28 -9 -17 1 -18
2 -4 6 9 2 17 14 17 26 1 20 2 20 11 4 5 -9 7 -22 4 -27z m472 34 c-3 -3 -12
-4 -19 -1 -8 3 -5 6 6 6 11 1 17 -2 13 -5z m228 -4 c-4 -6 -10 -8 -15 -5 -5 3
-20 0 -32 -6 -21 -11 -22 -11 -9 4 14 18 67 24 56 7z m-412 -17 c-7 -2 -19 -2
-25 0 -7 3 -2 5 12 5 14 0 19 -2 13 -5z m321 -13 c-5 -4 -27 -11 -48 -15 -33
-5 -38 -4 -28 7 6 8 28 14 48 15 20 1 32 -2 28 -7z m-669 -10 c3 -5 1 -10 -4
-10 -6 0 -11 5 -11 10 0 6 2 10 4 10 3 0 8 -4 11 -10z m1275 0 c-8 -5 -19 -10
-25 -10 -5 0 -3 5 5 10 8 5 20 10 25 10 6 0 3 -5 -5 -10z m-540 -7 c0 -5 -12
-9 -27 -10 -19 -1 -22 1 -12 8 17 11 39 12 39 2z m-256 -18 c-10 -8 -26 -14
-34 -15 -8 0 -4 6 10 14 34 19 48 20 24 1z m-454 -15 c-7 -12 -16 -17 -27 -13
-11 4 -14 3 -9 -5 4 -7 3 -12 -3 -12 -5 0 -11 6 -14 13 -3 9 26 27 61 36 1 1
-2 -8 -8 -19z m-955 0 c3 -5 -3 -18 -15 -30 -11 -11 -20 -24 -20 -29 0 -19
-55 -31 -100 -22 l-45 8 45 21 c25 12 59 31 75 42 33 22 51 25 60 10z m1493
-12 c-2 -12 -10 -23 -18 -25 -13 -4 -13 -3 0 6 21 14 10 20 -25 14 -26 -5 -27
-7 -10 -14 15 -5 12 -7 -12 -6 -41 2 -37 18 8 34 50 18 61 16 57 -9z m45 -3
c-12 -9 -19 -10 -22 -3 -4 12 20 29 32 21 4 -3 0 -11 -10 -18z m-245 2 c-30
-12 -39 -30 -10 -21 9 4 -1 -5 -23 -20 -43 -27 -73 -35 -41 -11 20 15 20 15 0
16 -18 1 -18 1 0 6 10 3 28 14 39 24 12 10 30 19 41 18 18 -1 17 -3 -6 -12z
m1002 -1 c0 -3 -4 -8 -10 -11 -5 -3 -10 -1 -10 4 0 6 5 11 10 11 6 0 10 -2 10
-4z m-1400 -15 c0 -5 -8 -12 -17 -15 -12 -5 -14 -9 -6 -14 7 -5 3 -11 -13 -19
-25 -12 -25 -13 6 35 15 22 30 29 30 13z m-62 -36 c-6 -14 -16 -25 -22 -25 -6
0 -3 -5 7 -11 10 -6 25 -8 32 -5 25 9 23 -8 -2 -34 -16 -16 -24 -20 -23 -10 5
38 0 43 -21 24 -22 -19 -22 -19 -14 6 7 23 7 24 -11 10 -21 -16 20 36 45 58
21 17 22 15 9 -13z m-181 -4 c-1 -11 -12 -24 -25 -30 -14 -7 -20 -16 -16 -24
4 -6 4 -9 -1 -5 -4 4 -16 -3 -27 -15 l-19 -22 15 26 c9 14 27 35 41 47 14 13
23 27 20 32 -3 6 -2 10 4 10 5 0 9 -9 8 -19z m43 4 c-14 -17 -30 -20 -30 -6 0
5 8 12 18 14 9 3 19 5 21 6 2 0 -2 -6 -9 -14z m-189 -28 c-6 -6 -18 -12 -27
-13 -14 -2 -14 0 1 17 10 10 22 16 27 13 6 -4 6 -10 -1 -17z m872 2 c-8 -8
-16 -8 -30 0 -16 9 -14 10 12 11 21 0 26 -3 18 -11z m-53 -13 c0 -3 -4 -8 -10
-11 -5 -3 -10 -1 -10 4 0 6 5 11 10 11 6 0 10 -2 10 -4z m-260 -10 c0 -3 -4
-8 -10 -11 -5 -3 -10 -1 -10 4 0 6 5 11 10 11 6 0 10 -2 10 -4z m52 -28 c-7
-7 -12 -8 -12 -2 0 14 12 26 19 19 2 -3 -1 -11 -7 -17z m168 8 c0 -2 -9 -6
-20 -9 -11 -3 -18 -1 -14 4 5 9 34 13 34 5z m-650 -33 c0 -19 -13 -9 -16 12
-1 8 2 13 7 9 5 -3 9 -12 9 -21z m125 17 c-3 -5 -11 -10 -16 -10 -6 0 -7 5 -4
10 3 6 11 10 16 10 6 0 7 -4 4 -10z m445 -5 c-34 -20 -60 -20 -34 0 10 8 28
14 39 14 18 0 17 -1 -5 -14z m1123 0 c40 -8 45 -16 23 -35 -8 -6 -12 -19 -9
-27 4 -10 2 -14 -4 -10 -5 4 -19 0 -29 -7 -17 -13 -16 -14 10 -9 19 4 27 2 22
-5 -11 -18 15 -62 35 -59 10 2 22 6 25 10 4 4 16 7 27 7 25 0 -10 -25 -143
-99 -163 -92 -285 -165 -295 -177 -12 -14 -325 -201 -352 -210 -52 -19 55 49
297 188 19 11 51 33 70 47 30 24 76 52 155 96 38 21 95 57 95 60 0 1 -7 22
-15 45 -8 23 -15 53 -15 65 0 19 -8 25 -47 34 -25 7 -55 19 -67 27 l-20 14 22
0 c12 0 22 4 22 10 0 5 6 7 14 4 8 -3 17 -1 21 5 3 6 13 11 21 11 9 0 22 7 30
15 15 14 34 14 107 0z m-1788 -14 c-6 -5 -26 -12 -45 -15 l-35 -6 35 14 c42
17 58 20 45 7z m485 -1 c-20 -13 -33 -13 -25 0 3 6 14 10 23 10 15 0 15 -2 2
-10z m-333 -127 c18 -24 29 -30 41 -24 18 10 52 3 52 -11 0 -6 6 -8 14 -5 8 3
17 -1 20 -9 3 -8 -1 -15 -9 -15 -28 -3 -31 -4 -48 -21 -21 -20 -21 -28 -3 -28
20 0 25 -22 10 -37 -18 -18 -29 -16 -14 2 16 19 11 19 -29 -1 -17 -9 -38 -13
-46 -10 -8 3 -15 0 -16 -7 -1 -16 -17 33 -18 57 -1 12 4 16 15 12 8 -3 12 -2
9 4 -3 6 1 10 9 10 21 0 21 39 -1 70 -9 14 -34 42 -54 63 -37 38 -38 38 -64
21 -20 -13 -23 -19 -13 -25 8 -6 2 -9 -19 -9 -17 0 -66 -18 -110 -42 -43 -22
-96 -51 -118 -62 -22 -12 -40 -28 -40 -36 0 -9 -10 -15 -25 -15 -32 -1 -168
-76 -240 -132 -60 -47 -89 -54 -97 -23 -6 23 -4 23 -37 10 -14 -5 -26 -16 -26
-25 0 -8 -4 -15 -10 -15 -18 0 -10 28 14 47 26 21 32 83 7 83 -9 0 -12 8 -9
25 3 14 1 28 -4 31 -19 12 3 21 42 17 30 -3 45 1 61 16 31 28 128 59 159 50
l25 -7 -25 -2 c-14 -1 -30 -2 -37 -1 -15 2 -111 -47 -120 -61 -4 -7 6 -8 29
-4 51 9 300 105 319 122 8 8 19 14 23 14 4 0 -4 -10 -17 -22 -23 -21 -55 -39
-215 -117 -51 -25 -69 -38 -61 -46 2 -1 31 10 64 26 33 16 64 29 69 29 5 0 48
19 95 41 234 113 285 140 315 169 18 18 20 17 63 -28 25 -26 56 -62 70 -79z
m-7 97 c0 -5 -5 -10 -11 -10 -5 0 -7 5 -4 10 3 6 8 10 11 10 2 0 4 -4 4 -10z
m45 -20 c-3 -5 -12 -10 -18 -10 -7 0 -6 4 3 10 19 12 23 12 15 0z m-285 -7
c-8 -3 -34 -14 -57 -24 -58 -26 -66 -23 -18 5 22 13 51 24 65 24 14 0 19 -2
10 -5z m815 -13 c-3 -5 -14 -10 -23 -10 -15 0 -15 2 -2 10 20 13 33 13 25 0z
m-668 -6 c-3 -3 -12 -4 -19 -1 -8 3 -5 6 6 6 11 1 17 -2 13 -5z m1973 -29 c0
-10 10 -15 30 -15 17 0 30 -4 30 -10 0 -5 6 -10 14 -10 8 0 18 -5 22 -12 4 -6
3 -8 -3 -5 -5 3 -21 0 -36 -8 -24 -12 -31 -12 -67 9 -22 12 -37 26 -33 29 3 4
-11 7 -33 8 l-39 0 35 13 c49 19 80 19 80 1z m-2015 -25 c-50 -26 -90 -58 -81
-67 12 -12 -37 -53 -64 -53 -15 0 -45 -14 -66 -30 -21 -17 -54 -40 -71 -51
-18 -12 -33 -26 -33 -31 0 -6 -7 -8 -15 -5 -8 4 -17 1 -21 -5 -5 -7 -2 -8 6
-3 9 5 11 4 6 -4 -4 -6 -12 -9 -17 -6 -16 10 -33 -6 -18 -17 10 -7 9 -8 -5 -4
-22 7 -49 -11 -39 -27 4 -7 0 -8 -12 -3 -14 5 -16 4 -7 -7 13 -16 6 -27 -17
-27 -9 0 -29 -11 -44 -26 -31 -29 -73 -29 -101 -2 -22 22 -12 68 15 68 10 0
33 9 51 20 18 11 40 20 48 20 9 0 39 16 69 35 29 19 58 35 65 35 7 0 16 4 22
10 12 12 107 70 184 113 30 17 75 43 100 58 25 15 54 28 65 28 13 1 5 -6 -20
-19z m642 5 c0 -8 -3 -13 -5 -10 -3 3 -11 0 -19 -6 -10 -9 -13 -8 -13 4 0 13
12 24 31 26 3 1 6 -6 6 -14z m-47 1 c0 -2 -9 -6 -20 -9 -11 -3 -18 -1 -14 4 5
9 34 13 34 5z m-45 -26 c5 -9 -18 -15 -28 -7 -2 1 -11 -4 -20 -12 -15 -11 -17
-11 -17 2 0 24 52 38 65 17z m-1419 -15 c5 -12 10 -13 20 -4 8 6 14 7 14 2 0
-22 -95 -49 -107 -30 -7 12 33 47 53 47 8 0 17 -7 20 -15z m999 -3 c-6 -4 -27
-21 -48 -36 -21 -15 -34 -32 -31 -38 4 -7 2 -8 -5 -4 -11 7 -141 -66 -186
-104 -34 -29 -157 -110 -167 -110 -5 0 -6 5 -2 12 5 7 3 8 -5 4 -7 -5 -10 -14
-7 -21 2 -7 0 -17 -5 -22 -7 -7 6 -8 38 -3 104 17 127 20 113 14 -8 -3 -35
-15 -59 -26 -28 -12 -58 -18 -80 -16 -20 3 -44 0 -53 -6 -13 -8 -22 -7 -34 5
-14 15 -14 17 0 22 9 4 16 1 16 -5 0 -6 3 -8 8 -4 4 4 5 9 2 11 -9 6 84 86
130 112 25 14 96 60 157 102 147 99 184 121 208 121 11 0 15 -3 10 -8z m402
-27 c0 -17 -38 -30 -59 -22 -7 3 -3 6 8 6 12 1 27 8 34 16 15 19 17 19 17 0z
m84 -8 c-10 -9 -11 -8 -5 6 3 10 9 15 12 12 3 -3 0 -11 -7 -18z m-70 -20 c-10
-9 -11 -8 -5 6 3 10 9 15 12 12 3 -3 0 -11 -7 -18z m-296 3 c3 -5 2 -10 -4
-10 -5 0 -13 5 -16 10 -3 6 -2 10 4 10 5 0 13 -4 16 -10z m190 -10 c-3 -5 -1
-10 5 -10 6 0 9 -4 6 -9 -4 -5 -16 -4 -30 2 -16 8 -21 14 -13 19 17 11 39 10
32 -2z m-1234 -14 c-14 -16 -123 -27 -118 -11 2 6 27 10 55 10 28 1 54 4 58 8
13 13 17 7 5 -7z m877 -47 c-7 -4 -15 -6 -19 -3 -4 2 -10 0 -14 -6 -3 -6 4
-14 16 -18 28 -11 8 -26 -20 -17 -17 5 -18 10 -10 35 6 15 17 31 25 34 8 3 14
13 15 23 0 10 5 5 10 -12 6 -20 5 -31 -3 -36z m302 46 c0 -20 -28 -31 -42 -17
-8 8 -5 9 11 5 12 -3 21 -2 20 3 -2 13 0 24 6 24 3 0 5 -7 5 -15z m-1320 -20
c0 -2 -9 -3 -19 -2 -11 0 -18 5 -15 9 4 6 34 0 34 -7z m1355 -5 c-3 -5 -14
-10 -23 -9 -14 0 -13 2 3 9 27 11 27 11 20 0z m405 -10 c-8 -5 -24 -9 -35 -9
-16 1 -16 2 5 9 35 11 48 11 30 0z m-300 -15 c-58 -33 -240 -67 -240 -44 0 5
6 9 13 9 37 0 197 29 213 38 11 6 24 11 29 11 6 0 -1 -6 -15 -14z m237 9 c-3
-3 -12 -4 -19 -1 -8 3 -5 6 6 6 11 1 17 -2 13 -5z m-87 -18 c0 -8 -4 -18 -10
-21 -5 -3 -10 3 -10 14 0 12 5 21 10 21 6 0 10 -6 10 -14z m50 4 c0 -5 -7 -10
-16 -10 -8 0 -12 5 -9 10 3 6 10 10 16 10 5 0 9 -4 9 -10z m-1101 -3 c-2 -1
-13 -9 -24 -17 -19 -14 -19 -14 -6 3 7 9 18 17 24 17 6 0 8 -1 6 -3z m1389
-33 c12 -4 22 -13 22 -21 0 -12 -3 -13 -14 -4 -7 6 -25 12 -40 13 -14 1 -26 6
-26 10 0 9 26 10 58 2z m-943 -33 c3 -5 1 -12 -5 -16 -6 -4 -8 -11 -4 -16 3
-5 2 -9 -3 -8 -20 3 -27 -2 -13 -11 12 -8 12 -11 -3 -28 -9 -10 -14 -22 -10
-25 3 -4 -8 -2 -25 4 -18 6 -32 14 -32 18 0 15 13 21 25 11 9 -7 16 -6 25 5 7
8 9 15 5 15 -5 0 0 9 11 21 18 20 18 22 1 34 -9 6 -17 15 -17 19 0 8 37 -11
45 -23z m709 17 c-3 -4 -12 -8 -20 -8 -8 0 -14 -5 -14 -11 0 -5 -5 -7 -11 -4
-6 5 -4 11 7 19 19 14 46 17 38 4z m-1084 -43 c-7 -8 -18 -15 -24 -15 -6 0 -2
7 8 15 25 19 32 19 16 0z m965 5 c3 -5 1 -10 -4 -10 -6 0 -11 5 -11 10 0 6 2
10 4 10 3 0 8 -4 11 -10z m55 6 c0 -2 -7 -6 -15 -10 -8 -3 -15 -1 -15 4 0 6 7
10 15 10 8 0 15 -2 15 -4z m144 -11 c-4 -8 -8 -15 -10 -15 -2 0 -4 7 -4 15 0
8 4 15 10 15 5 0 7 -7 4 -15z m81 -15 c-19 -20 -41 -28 -30 -10 3 6 1 10 -6
10 -10 0 -10 3 -1 12 10 10 15 10 22 -2 8 -12 10 -12 16 3 3 10 9 15 12 12 3
-2 -3 -14 -13 -25z m230 20 c4 -6 -7 -10 -27 -9 -27 0 -30 2 -13 9 27 12 33
12 40 0z m-345 -10 c11 -8 7 -9 -15 -4 -37 8 -45 14 -19 14 10 0 26 -5 34 -10z
m190 7 c0 -2 -10 -12 -22 -23 l-23 -19 19 23 c18 21 26 27 26 19z m-1045 -36
c7 -12 -27 -31 -52 -30 -15 0 -14 2 5 9 12 5 22 14 22 20 0 13 17 13 25 1z
m905 -1 c-12 -7 -9 -12 17 -20 33 -12 36 -41 4 -39 -12 0 -12 2 -2 6 10 4 11
7 1 13 -16 10 -42 1 -34 -11 3 -5 -4 -9 -15 -9 -27 0 -35 17 -11 23 11 3 20
11 20 19 0 11 -2 11 -9 0 -4 -8 -14 -12 -22 -11 -8 1 -22 -1 -32 -6 -20 -9
-32 -1 -22 14 3 6 18 11 33 11 15 0 34 5 42 10 8 5 22 10 30 10 13 0 13 -1 0
-10z m-217 -17 c-3 -7 -8 -13 -12 -13 -4 0 -8 6 -8 13 0 8 6 14 13 14 7 0 10
-6 7 -14z m-546 -16 c3 -5 1 -7 -5 -3 -6 3 -13 2 -17 -4 -10 -17 -25 -11 -25
9 0 14 5 18 20 14 11 -3 23 -10 27 -16z m583 13 c0 -5 -5 -10 -11 -10 -5 0 -7
5 -4 10 3 6 8 10 11 10 2 0 4 -4 4 -10z m884 -3 c13 -12 28 -57 31 -90 1 -10
12 -28 24 -41 15 -16 21 -33 18 -52 -4 -33 -27 -86 -41 -95 -5 -4 -6 -11 -3
-16 9 -14 -39 -34 -60 -26 -10 4 -14 2 -10 -4 7 -12 -17 -43 -33 -43 -5 0 -7
7 -4 15 4 8 13 15 21 15 8 0 11 5 8 10 -9 15 -19 12 -45 -10 -26 -22 -30 -24
-30 -11 0 5 23 31 50 57 33 32 50 56 50 72 0 17 -4 23 -15 18 -8 -3 -15 -1
-15 5 0 6 -4 8 -9 5 -5 -3 -11 3 -14 14 -3 11 0 18 7 17 6 -1 10 6 10 16 -1
10 5 17 15 17 13 0 13 2 2 9 -18 12 3 53 24 45 18 -7 19 0 5 27 -10 18 -50 27
-50 11 0 -4 -16 -25 -35 -47 -19 -22 -35 -46 -35 -54 0 -8 -3 -12 -6 -8 -4 3
-15 -4 -25 -16 -18 -22 -18 -21 -6 18 7 22 25 63 40 92 27 53 25 52 105 61 7
1 19 -4 26 -11z m-2214 -6 c0 -15 -28 -33 -40 -26 -8 5 -8 11 1 21 13 15 39
19 39 5z m625 -21 c-3 -5 -12 -7 -20 -3 -21 7 -19 13 6 13 11 0 18 -4 14 -10z
m633 -4 c-7 -8 -15 -12 -17 -11 -5 6 10 25 20 25 5 0 4 -6 -3 -14z m126 -7
c-10 -4 -29 -8 -41 -8 -13 -1 -24 -9 -28 -21 -4 -14 -15 -20 -33 -20 -15 0
-43 -2 -62 -5 -31 -5 -29 -3 15 15 28 11 56 20 63 20 6 0 12 4 12 9 0 11 61
29 79 23 11 -4 10 -7 -5 -13z m240 9 c-3 -4 -9 -8 -15 -8 -5 0 -9 4 -9 8 0 5
7 9 15 9 8 0 12 -4 9 -9z m-964 -18 c0 -5 -4 -10 -9 -10 -6 0 -13 5 -16 10 -3
6 1 10 9 10 9 0 16 -4 16 -10z m438 -22 c-2 -5 -7 -9 -11 -9 -4 1 -14 1 -22 1
-8 0 -15 6 -15 14 0 9 8 12 25 8 14 -2 24 -9 23 -14z m575 2 c-5 -20 -21 -36
-28 -28 -5 4 23 48 30 48 2 0 1 -9 -2 -20z m-1606 -32 c-3 -8 -6 -5 -6 6 -1
11 2 17 5 13 3 -3 4 -12 1 -19z m1528 -9 c5 -5 1 -9 -12 -9 -29 0 -53 10 -53
22 0 12 50 2 65 -13z m-535 1 c0 -5 -5 -10 -11 -10 -5 0 -7 5 -4 10 3 6 8 10
11 10 2 0 4 -4 4 -10z m100 0 c0 -5 -4 -10 -10 -10 -5 0 -10 5 -10 10 0 6 5
10 10 10 6 0 10 -4 10 -10z m-135 -10 c3 -5 1 -10 -4 -10 -6 0 -11 5 -11 10 0
6 2 10 4 10 3 0 8 -4 11 -10z m174 -29 c33 -18 33 -18 10 -24 -13 -4 -25 -2
-27 3 -2 6 -9 10 -17 10 -7 0 -18 7 -25 15 -18 22 15 19 59 -4z m201 -47 c16
-25 24 -44 17 -44 -7 0 -21 13 -32 29 -12 19 -31 32 -52 36 -46 8 -44 32 2 27
28 -3 41 -13 65 -48z m-1366 4 c-10 -15 -32 4 -27 23 5 18 6 18 18 2 7 -10 11
-21 9 -25z m1263 -35 c-28 -26 -117 -72 -123 -62 -3 6 -4 11 -3 13 2 1 21 11
42 21 20 11 37 23 37 28 0 4 -14 14 -31 21 -21 9 -27 16 -19 21 6 4 17 2 23
-4 16 -16 37 -14 37 3 0 11 7 8 25 -7 19 -17 21 -25 12 -34z m-67 -3 c0 -5 -2
-10 -4 -10 -3 0 -8 5 -11 10 -3 6 -1 10 4 10 6 0 11 -4 11 -10z m-936 -19 c33
-22 55 -56 56 -86 0 -13 -10 -5 -32 28 -18 26 -43 50 -55 53 -13 4 -20 10 -17
15 8 13 15 11 48 -10z m442 -6 c-11 -8 -25 -15 -30 -15 -6 0 -2 7 8 15 11 8
25 15 30 15 6 0 2 -7 -8 -15z m34 -35 c0 -5 -2 -10 -4 -10 -3 0 -8 5 -11 10
-3 6 -1 10 4 10 6 0 11 -4 11 -10z m564 -16 c3 -8 3 -14 0 -14 -7 0 -34 27
-34 34 0 11 29 -6 34 -20z m406 12 c0 -2 -7 -7 -16 -10 -8 -3 -12 -2 -9 4 6
10 25 14 25 6z m-1065 -35 c-8 -14 -25 -14 -25 0 0 5 5 7 10 4 6 -3 10 -1 10
6 0 7 3 10 6 6 3 -3 3 -10 -1 -16z m703 -3 c-2 -8 5 -12 16 -10 15 3 12 -4
-14 -32 -36 -38 -35 -38 -85 7 -17 15 -18 19 -5 27 23 15 29 12 23 -10 -6 -21
10 -26 41 -14 12 5 13 10 5 25 -7 15 -6 19 6 19 8 0 14 -6 13 -12z m-754 -6
c-6 -4 -16 -17 -23 -29 -6 -13 -21 -23 -32 -23 -11 0 -18 -4 -15 -9 3 -5 -1
-12 -10 -15 -30 -11 -37 -6 -19 14 17 19 17 20 1 20 -9 0 -15 4 -11 10 3 5 11
7 18 4 7 -2 22 4 32 15 11 11 31 20 45 20 14 0 20 -3 14 -7z m-144 -62 c0 -5
-4 -10 -10 -10 -5 0 -10 5 -10 10 0 6 5 10 10 10 6 0 10 -4 10 -10z m-438 -32
c-6 -6 -15 -8 -19 -4 -4 4 -1 11 7 16 19 12 27 3 12 -12z m508 -8 c-24 -15
-37 -11 -16 5 11 8 22 12 25 9 3 -3 -1 -9 -9 -14z m-50 -6 c0 -8 -4 -12 -10
-9 -5 3 -10 10 -10 16 0 5 5 9 10 9 6 0 10 -7 10 -16z m-850 -4 c-8 -5 -19
-10 -25 -10 -5 0 -3 5 5 10 8 5 20 10 25 10 6 0 3 -5 -5 -10z m153 3 c-7 -2
-19 -2 -25 0 -7 3 -2 5 12 5 14 0 19 -2 13 -5z m-53 -13 c0 -5 -2 -10 -4 -10
-3 0 -8 5 -11 10 -3 6 -1 10 4 10 6 0 11 -4 11 -10z m-117 -17 c-7 -2 -19 -2
-25 0 -7 3 -2 5 12 5 14 0 19 -2 13 -5z"/>
<path d="M3836 1541 c-19 -7 -19 -8 2 -13 15 -4 22 -2 22 8 0 8 -1 14 -2 13
-2 0 -12 -4 -22 -8z"/>
<path d="M3755 1513 c-16 -15 -16 -17 0 -26 11 -6 21 -5 28 2 8 8 8 11 -1 11
-6 0 -9 7 -6 15 8 20 -1 19 -21 -2z"/>
<path d="M2646 1505 c-16 -25 -16 -25 2 -14 10 6 19 18 19 25 0 19 -2 18 -21
-11z"/>
<path d="M3108 1478 c9 -9 15 -9 24 0 9 9 7 12 -12 12 -19 0 -21 -3 -12 -12z"/>
<path d="M2059 1200 c-1 -3 -1 -8 0 -12 0 -4 -8 -10 -19 -13 -23 -7 -26 -21
-6 -28 8 -3 18 5 25 19 6 13 17 24 26 24 8 0 15 4 15 8 0 9 -39 11 -41 2z"/>
<path d="M2075 1169 c-11 -17 1 -21 15 -4 8 9 8 15 2 15 -6 0 -14 -5 -17 -11z"/>
<path d="M1969 1103 c-13 -15 -12 -15 9 -4 23 12 28 21 13 21 -5 0 -15 -7 -22
-17z"/>
<path d="M3575 940 c-16 -7 -17 -9 -3 -9 9 -1 20 4 23 9 7 11 7 11 -20 0z"/>
<path d="M2020 750 c0 -5 5 -10 10 -10 6 0 10 5 10 10 0 6 -4 10 -10 10 -5 0
-10 -4 -10 -10z"/>
<path d="M2010 689 c0 -5 5 -7 10 -4 6 3 10 8 10 11 0 2 -4 4 -10 4 -5 0 -10
-5 -10 -11z"/>
<path d="M1252 664 c-7 -8 -8 -14 -3 -14 10 0 25 19 20 25 -2 1 -10 -3 -17
-11z"/>
<path d="M1720 730 c-8 -5 -11 -12 -7 -16 4 -4 13 -2 19 4 15 15 7 24 -12 12z"/>
<path d="M3419 283 c-13 -16 -12 -17 4 -4 16 13 21 21 13 21 -2 0 -10 -8 -17
-17z"/>
<path d="M3402 220 c-24 -22 -38 -40 -30 -40 15 0 78 57 78 71 0 13 0 13 -48
-31z"/>
<path d="M1078 1948 c-49 -23 -88 -46 -88 -49 0 -4 9 -11 21 -14 14 -5 27 0
40 14 11 12 26 21 33 21 24 0 54 -39 61 -79 4 -23 10 -41 14 -41 4 0 18 11 31
25 20 21 22 28 12 50 -10 22 -9 25 13 31 32 8 32 32 0 44 -14 5 -28 17 -31 25
-8 20 -6 20 -106 -27z"/>
<path d="M3475 1945 c-49 -35 -66 -55 -47 -55 13 0 116 69 120 81 7 19 -25 8
-73 -26z"/>
<path d="M3312 1948 c5 -15 48 -24 48 -10 0 10 -23 22 -42 22 -5 0 -8 -6 -6
-12z"/>
<path d="M3263 1920 c-13 -5 -23 -12 -23 -15 0 -10 27 -5 46 10 21 16 11 18
-23 5z"/>
<path d="M4020 1884 c0 -10 5 -26 10 -34 8 -11 9 -7 4 15 -8 37 -14 45 -14 19z"/>
<path d="M3923 1870 c-5 -20 -23 -28 -23 -10 0 6 -8 2 -18 -7 -15 -15 -16 -20
-5 -26 11 -6 11 -12 3 -22 -8 -9 -8 -15 0 -20 5 -3 10 1 10 9 0 9 17 25 38 36
20 12 29 19 18 15 -15 -4 -18 -1 -14 20 6 30 -2 34 -9 5z"/>
<path d="M3750 1869 c0 -5 7 -9 15 -9 8 0 15 -4 15 -10 0 -13 47 -13 55 1 4 6
4 13 1 17 -10 10 -86 11 -86 1z"/>
<path d="M3965 1870 c-3 -6 1 -7 9 -4 18 7 21 14 7 14 -6 0 -13 -4 -16 -10z"/>
<path d="M1233 1810 c-21 -27 -46 -49 -55 -50 -12 0 -18 -8 -18 -22 0 -13 -7
-41 -15 -63 -28 -79 -12 -88 34 -20 18 26 28 52 24 61 -7 19 13 34 47 34 15 0
37 12 54 30 l28 31 -26 24 c-15 14 -29 25 -31 25 -2 0 -21 -22 -42 -50z"/>
<path d="M1680 1850 c0 -5 9 -10 21 -10 11 0 17 5 14 10 -3 6 -13 10 -21 10
-8 0 -14 -4 -14 -10z"/>
<path d="M3669 1842 c-31 -3 -36 -6 -32 -23 3 -10 0 -19 -6 -19 -6 0 -11 6
-12 13 0 6 -5 0 -10 -14 -8 -21 -15 -26 -32 -22 -12 3 -28 13 -34 21 -12 14
-13 14 -13 -2 0 -9 -4 -15 -9 -11 -5 3 -13 0 -16 -6 -4 -6 -18 -8 -32 -4 -26
6 -57 -11 -47 -27 3 -5 15 -1 26 9 19 17 19 17 13 -7 -9 -36 24 -55 71 -40 19
6 34 16 34 22 0 6 11 8 26 4 19 -5 31 -2 43 13 10 12 21 18 25 16 3 -3 4 -2 1
1 -5 7 12 24 40 40 20 11 29 41 11 40 -6 -1 -27 -2 -47 -4z"/>
<path d="M3245 1831 c-11 -5 -41 -11 -67 -15 -32 -5 -48 -12 -48 -22 0 -8 10
-14 22 -14 21 0 21 0 2 -15 -18 -14 -18 -14 6 -14 26 1 104 27 83 28 -6 1 -11
10 -10 21 1 13 6 19 15 15 18 -7 62 5 62 16 0 11 -38 11 -65 0z"/>
<path d="M3038 1803 c7 -3 16 -2 19 1 4 3 -2 6 -13 5 -11 0 -14 -3 -6 -6z"/>
<path d="M3300 1802 c0 -6 9 -13 20 -16 11 -3 29 -9 40 -12 14 -4 20 -1 20 10
0 10 -9 16 -24 16 -13 0 -31 3 -40 6 -9 3 -16 1 -16 -4z"/>
<path d="M3985 1800 c-3 -5 -1 -10 4 -10 6 0 11 5 11 10 0 6 -2 10 -4 10 -3 0
-8 -4 -11 -10z"/>
<path d="M2525 1790 c-8 -13 15 -13 35 0 12 8 11 10 -7 10 -12 0 -25 -4 -28
-10z"/>
<path d="M3718 1788 c-2 -6 4 -20 14 -30 21 -21 50 -14 41 10 -11 30 -48 43
-55 20z"/>
<path d="M3910 1775 c0 -8 5 -15 10 -15 6 0 10 7 10 15 0 8 -4 15 -10 15 -5 0
-10 -7 -10 -15z"/>
<path d="M4055 1780 c-3 -5 -1 -10 4 -10 6 0 11 5 11 10 0 6 -2 10 -4 10 -3 0
-8 -4 -11 -10z"/>
<path d="M1343 1763 c-10 -26 -53 -63 -74 -63 -18 0 -89 -63 -89 -79 0 -8 21
-13 111 -27 32 -5 38 -2 72 39 20 25 37 47 37 50 0 2 -13 7 -30 11 -21 4 -30
11 -30 26 0 11 7 20 15 20 17 0 20 25 5 35 -6 3 -13 -2 -17 -12z"/>
<path d="M2470 1750 c-8 -5 -11 -12 -7 -16 4 -4 2 -13 -4 -20 -8 -10 2 -11 48
-7 63 6 84 16 66 34 -8 8 -17 8 -32 -1 -17 -9 -22 -8 -27 5 -7 17 -22 19 -44
5z"/>
<path d="M2925 1750 c-3 -6 1 -7 9 -4 18 7 21 14 7 14 -6 0 -13 -4 -16 -10z"/>
<path d="M3950 1750 c0 -5 4 -10 9 -10 6 0 13 5 16 10 3 6 -1 10 -9 10 -9 0
-16 -4 -16 -10z"/>
<path d="M3390 1730 c-6 -11 -8 -20 -6 -20 3 0 10 9 16 20 6 11 8 20 6 20 -3
0 -10 -9 -16 -20z"/>
<path d="M57 1725 c-6 -15 10 -36 49 -62 32 -20 104 -9 104 17 0 26 -44 51
-100 56 -36 3 -49 1 -53 -11z"/>
<path d="M1396 1732 c-2 -4 3 -13 13 -19 20 -13 47 -1 37 16 -8 13 -42 15 -50
3z"/>
<path d="M3411 1714 c0 -11 3 -14 6 -6 3 7 2 16 -1 19 -3 4 -6 -2 -5 -13z"/>
<path d="M3921 1721 c-10 -6 -10 -10 -1 -16 13 -8 24 -1 19 14 -3 6 -10 7 -18
2z"/>
<path d="M4025 1720 c3 -5 8 -10 11 -10 2 0 4 5 4 10 0 6 -5 10 -11 10 -5 0
-7 -4 -4 -10z"/>
<path d="M2045 1700 c-3 -5 1 -10 9 -10 9 0 16 5 16 10 0 6 -4 10 -9 10 -6 0
-13 -4 -16 -10z"/>
<path d="M2415 1664 c-37 -57 6 -80 61 -32 42 37 39 52 -9 54 -28 1 -40 -4
-52 -22z"/>
<path d="M3901 1674 c0 -11 3 -14 6 -6 3 7 2 16 -1 19 -3 4 -6 -2 -5 -13z"/>
<path d="M2565 1671 c3 -5 1 -12 -5 -16 -5 -3 -10 -13 -10 -22 0 -14 2 -14 23
0 13 8 34 17 48 20 23 4 23 4 2 6 -13 0 -23 6 -23 11 0 6 -9 10 -21 10 -11 0
-18 -4 -14 -9z"/>
<path d="M3050 1640 c-13 -8 -12 -10 3 -10 9 0 17 5 17 10 0 12 -1 12 -20 0z"/>
<path d="M3890 1635 c-11 -13 -10 -14 4 -9 9 3 16 10 16 15 0 13 -6 11 -20 -6z"/>
<path d="M673 1585 c-18 -11 -32 -22 -33 -25 0 -3 27 -6 60 -5 47 0 60 3 60
15 0 9 -12 20 -27 26 -23 8 -34 6 -60 -11z"/>
<path d="M1638 1593 c-19 -5 -25 -33 -8 -33 5 0 21 5 35 12 18 8 22 14 13 20
-7 4 -15 7 -18 7 -3 -1 -13 -3 -22 -6z"/>
<path d="M3120 1550 c0 -5 4 -10 9 -10 6 0 13 5 16 10 3 6 -1 10 -9 10 -9 0
-16 -4 -16 -10z"/>
<path d="M1723 1520 c-24 -10 -43 -24 -43 -30 0 -5 2 -10 5 -10 11 0 69 33 83
46 18 19 5 17 -45 -6z"/>
<path d="M1604 1520 c-12 -5 -28 -18 -37 -30 -8 -12 -20 -18 -30 -15 -24 10
-30 -13 -7 -25 23 -12 29 -9 83 39 40 36 36 50 -9 31z"/>
<path d="M3258 1513 c7 -3 16 -2 19 1 4 3 -2 6 -13 5 -11 0 -14 -3 -6 -6z"/>
<path d="M3295 1501 c-3 -5 -2 -12 3 -15 5 -3 9 1 9 9 0 17 -3 19 -12 6z"/>
<path d="M1324 1448 l-19 -23 23 19 c21 18 27 26 19 26 -2 0 -12 -10 -23 -22z"/>
<path d="M1595 1449 c-39 -21 -55 -36 -55 -52 0 -10 43 15 85 49 37 30 23 31
-30 3z"/>
<path d="M1481 1444 c0 -11 3 -14 6 -6 3 7 2 16 -1 19 -3 4 -6 -2 -5 -13z"/>
<path d="M1330 1390 c-13 -8 -13 -10 2 -10 9 0 20 5 23 10 8 13 -5 13 -25 0z"/>
<path d="M1148 1353 c-10 -2 -18 -9 -18 -14 0 -15 36 -10 50 6 13 16 5 18 -32
8z"/>
<path d="M4028 1127 c-26 -12 -48 -26 -48 -31 0 -5 17 -24 38 -43 20 -18 32
-33 25 -33 -6 0 -15 5 -18 10 -8 13 -57 1 -71 -18 -7 -9 -16 -12 -25 -7 -10 6
-11 5 -3 -4 8 -9 19 -8 47 4 32 13 41 13 79 0 36 -12 52 -13 96 -3 l52 13 0
67 c0 38 -3 68 -7 68 -3 0 -40 -21 -80 -46 -41 -25 -77 -44 -79 -41 -7 7 67
57 84 57 7 0 10 5 6 12 -5 8 -2 9 10 5 10 -4 15 -3 11 3 -10 16 -67 10 -117
-13z"/>
<path d="M3820 1123 c-45 -15 -46 -15 -25 -23 21 -8 55 4 55 20 0 11 -6 11
-30 3z"/>
<path d="M3630 1116 c0 -9 40 -13 46 -5 3 5 -6 9 -20 9 -14 0 -26 -2 -26 -4z"/>
<path d="M928 1092 c-42 -13 -48 -19 -48 -43 0 -16 7 -29 16 -33 16 -6 16 -8
0 -24 -21 -24 -20 -32 3 -32 11 0 23 9 26 20 3 11 10 20 15 20 5 0 19 18 30
40 11 22 24 40 29 40 5 0 11 7 15 15 7 19 -23 18 -86 -3z"/>
<path d="M355 1090 c-3 -5 -2 -10 4 -10 5 0 13 5 16 10 3 6 2 10 -4 10 -5 0
-13 -4 -16 -10z"/>
<path d="M1056 1074 c-11 -7 -17 -16 -15 -19 3 -3 14 2 25 9 10 8 17 17 14 19
-3 3 -14 -1 -24 -9z"/>
<path d="M981 1013 c-12 -13 -12 -16 0 -24 9 -5 17 -3 22 7 13 22 -5 36 -22
17z"/>
<path d="M3970 979 c0 -5 7 -9 15 -9 8 0 17 0 20 0 16 0 2 15 -15 16 -11 1
-20 -3 -20 -7z"/>
<path d="M393 969 c-25 -25 -13 -32 39 -26 59 7 90 27 43 27 -17 0 -39 3 -50
6 -11 3 -26 -1 -32 -7z"/>
<path d="M4145 933 c-17 -12 -16 -13 15 -7 43 8 46 10 22 16 -10 3 -27 -1 -37
-9z"/>
<path d="M1539 924 c-7 -9 -21 -13 -32 -10 -22 5 -107 -29 -107 -43 0 -4 -10
-13 -22 -19 -22 -10 -22 -11 8 -11 32 -1 93 24 106 43 4 6 8 7 8 2 0 -5 9 -1
21 10 12 10 24 18 28 18 12 -3 31 8 31 17 0 15 -27 10 -41 -7z"/>
<path d="M900 900 c0 -11 5 -20 10 -20 6 0 10 9 10 20 0 11 -4 20 -10 20 -5 0
-10 -9 -10 -20z"/>
<path d="M230 849 c0 -5 5 -7 10 -4 6 3 10 8 10 11 0 2 -4 4 -10 4 -5 0 -10
-5 -10 -11z"/>
<path d="M4172 828 c6 -18 28 -21 28 -4 0 9 -7 16 -16 16 -9 0 -14 -5 -12 -12z"/>
<path d="M631 812 c-12 -23 -4 -55 13 -49 15 5 20 47 8 59 -7 7 -14 3 -21 -10z"/>
<path d="M680 815 c-7 -9 -10 -18 -7 -21 10 -11 37 5 37 21 0 19 -14 19 -30 0z"/>
<path d="M106 791 c-4 -7 -5 -15 -2 -18 9 -9 19 4 14 18 -4 11 -6 11 -12 0z"/>
<path d="M265 693 c-57 -28 -100 -42 -117 -40 -19 2 -28 -1 -28 -10 0 -7 -10
-17 -23 -22 -12 -5 -30 -19 -39 -30 -10 -12 -27 -21 -38 -21 -18 0 -20 -7 -20
-70 0 -72 14 -120 36 -120 18 0 47 61 34 74 -14 14 -12 42 3 58 21 21 37 54
37 77 0 23 33 30 45 10 5 -7 13 -5 25 6 14 13 33 16 71 13 46 -3 54 0 58 17 7
22 41 76 54 86 5 4 5 9 1 11 -5 3 -49 -15 -99 -39z"/>
<path d="M447 609 c-33 -25 -36 -49 -6 -42 18 5 45 50 36 60 -2 2 -16 -6 -30
-18z"/>
<path d="M4042 527 c-15 -35 -15 -57 -2 -57 15 0 22 24 18 57 l-4 28 -12 -28z"/>
<path d="M210 514 c0 -17 22 -14 28 4 2 7 -3 12 -12 12 -9 0 -16 -7 -16 -16z"/>
<path d="M963 473 c-7 -2 -13 -11 -13 -19 0 -17 26 -8 34 12 6 14 0 16 -21 7z"/>
<path d="M360 420 c0 -6 7 -25 16 -42 21 -40 43 -23 23 18 -14 29 -39 44 -39
24z"/>
<path d="M3855 259 c-4 -6 -5 -13 -2 -16 7 -7 27 6 27 18 0 12 -17 12 -25 -2z"/>
<path d="M4187 262 c-5 -7 -25 -23 -45 -36 -38 -24 -120 -102 -166 -157 -32
-37 -34 -69 -6 -69 11 0 20 3 20 8 1 19 61 71 120 102 88 46 92 50 88 112 -2
33 -6 48 -11 40z"/>
<path d="M207 220 c3 -11 9 -23 14 -26 17 -10 9 -33 -13 -39 -13 -4 -30 -15
-38 -25 -8 -10 -27 -20 -42 -24 -21 -5 -28 -2 -33 13 -3 11 -12 22 -20 25 -8
3 -28 24 -45 47 -29 40 -30 41 -30 15 0 -15 6 -37 14 -49 24 -38 29 -67 13
-67 -9 0 -18 6 -20 13 -3 6 -6 -14 -6 -45 -1 -51 1 -58 19 -58 11 0 18 5 16
13 -3 6 -7 26 -10 42 l-6 30 15 -27 c15 -27 45 -39 45 -17 0 5 4 7 10 4 5 -3
10 -15 10 -26 0 -18 8 -19 104 -19 113 0 116 2 116 61 0 32 -2 34 -29 17 -19
-12 -51 -5 -51 10 0 5 25 26 55 46 58 38 62 45 43 64 -14 14 -32 16 -24 3 3
-5 -1 -12 -10 -15 -22 -8 -64 -7 -63 2 5 31 -3 52 -20 52 -14 0 -18 -5 -14
-20z m-17 -179 c0 -5 -10 -11 -22 -14 -22 -6 -22 -6 -4 8 23 17 26 18 26 6z"/>
<path d="M358 233 c-22 -6 -24 -33 -2 -33 8 0 12 -4 9 -10 -10 -16 4 -11 26 9
32 30 15 47 -33 34z"/>
<path d="M1 134 c0 -11 3 -14 6 -6 3 7 2 16 -1 19 -3 4 -6 -2 -5 -13z"/>
<path d="M656 128 c5 -8 2 -9 -9 -5 -9 3 -19 2 -22 -2 -6 -10 34 -23 47 -15
13 8 9 21 -8 28 -10 4 -13 2 -8 -6z"/>
<path d="M684 94 c6 -14 -3 -16 -77 -12 -77 4 -84 3 -79 -14 5 -20 23 -23 39
-7 7 7 21 8 34 3 24 -7 24 -7 -6 -17 -34 -11 -55 -25 -55 -38 0 -17 45 -8 85
16 35 22 39 31 12 26 -5 -1 -6 3 -3 8 3 5 15 7 26 4 11 -3 27 0 34 7 16 12 11
40 -6 40 -6 0 -7 -7 -4 -16z"/>
<path d="M3652 88 c-14 -14 -16 -28 -2 -28 5 0 14 9 20 20 12 22 1 27 -18 8z"/>
<path d="M3470 15 c-8 -9 -8 -15 -2 -15 12 0 26 19 19 26 -2 2 -10 -2 -17 -11z"/>
<path d="M4186 21 c-4 -7 -5 -15 -2 -18 9 -9 19 4 14 18 -4 11 -6 11 -12 0z"/>
</g>
</svg>
