<?xml version="1.0" standalone="no"?>
<!DOCTYPE svg PUBLIC "-//W3C//DTD SVG 20010904//EN"
 "http://www.w3.org/TR/2001/REC-SVG-20010904/DTD/svg10.dtd">
<svg version="1.0" xmlns="http://www.w3.org/2000/svg"
 width="389.000000pt" height="280.000000pt" viewBox="0 0 389.000000 280.000000"
 preserveAspectRatio="xMidYMid meet">

<g transform="translate(0.000000,280.000000) scale(0.100000,-0.100000)"
fill="#000000" stroke="none">
<path d="M1694 2634 c-18 -14 -18 -15 4 -4 12 6 22 13 22 15 0 8 -5 6 -26 -11z"/>
<path d="M1643 2598 c-28 -32 -34 -53 -18 -74 12 -17 13 -16 8 9 -4 20 1 38
16 58 26 35 23 38 -6 7z"/>
<path d="M1775 2430 l-30 -8 27 -1 c15 0 30 4 33 9 3 6 5 9 3 9 -2 -1 -16 -5
-33 -9z"/>
<path d="M1701 2160 c0 -19 3 -42 9 -50 16 -26 19 -5 5 40 l-14 45 0 -35z"/>
<path d="M2618 2163 c7 -3 16 -2 19 1 4 3 -2 6 -13 5 -11 0 -14 -3 -6 -6z"/>
<path d="M2755 2110 c3 -5 8 -10 11 -10 2 0 4 5 4 10 0 6 -5 10 -11 10 -5 0
-7 -4 -4 -10z"/>
<path d="M3237 1527 c-3 -7 -2 -29 3 -48 7 -29 8 -31 10 -9 2 24 3 24 11 -5 7
-24 7 -21 3 15 -5 48 -18 70 -27 47z"/>
<path d="M1013 1460 c0 -25 2 -35 4 -22 2 12 2 32 0 45 -2 12 -4 2 -4 -23z"/>
<path d="M3212 1401 c-7 -4 -10 -14 -7 -22 3 -9 -1 -42 -10 -74 -8 -33 -15
-80 -15 -105 0 -25 -5 -51 -11 -57 -7 -7 -10 -35 -7 -72 2 -34 0 -61 -4 -61
-5 0 -6 -4 -3 -10 3 -5 23 -9 43 -8 51 2 88 -18 71 -38 -10 -13 -8 -13 15 -4
15 5 28 10 30 10 6 0 -19 -119 -26 -126 -5 -4 -8 -18 -8 -31 0 -33 -28 -85
-42 -77 -7 4 -8 3 -4 -4 4 -6 -4 -34 -16 -62 -17 -38 -27 -49 -40 -46 -10 2
-19 -1 -20 -7 -3 -26 -5 -33 -12 -57 -12 -36 -85 -120 -104 -120 -15 0 -15 2
-2 10 12 8 9 10 -12 10 -15 0 -30 -4 -33 -10 -6 -9 -112 -11 -129 -2 -5 3 -37
4 -71 3 -54 -2 -66 1 -89 22 -14 13 -26 29 -26 34 0 19 -47 54 -63 47 -11 -4
-17 -1 -17 9 0 12 -19 27 -34 27 -2 0 -8 -17 -14 -38 -24 -79 -101 -143 -195
-161 -36 -8 -31 -9 44 -10 74 -1 88 2 93 16 6 14 9 15 15 4 10 -16 10 -16 266
-3 116 6 222 15 236 20 15 6 32 7 39 2 8 -5 19 -5 25 -1 9 8 114 24 220 35 49
5 73 10 80 18 7 7 -48 48 -64 48 -26 0 -8 18 24 24 19 4 40 12 47 19 7 7 24
12 37 12 22 0 25 5 29 53 2 31 -3 76 -13 110 -29 101 -34 126 -38 190 -3 34
-10 69 -17 77 -7 8 -10 15 -6 15 8 0 -25 84 -37 91 -6 4 -7 25 -3 47 3 23 2
43 -3 46 -4 3 -11 31 -14 63 -7 67 -34 153 -48 153 -5 0 -12 -7 -16 -16 -6
-15 -7 -15 -18 -1 -6 9 -16 12 -23 8z"/>
<path d="M2751 1286 c0 -22 0 -37 2 -35 1 2 9 13 17 23 8 11 10 17 3 13 -7 -5
-13 1 -16 15 -3 14 -5 7 -6 -16z"/>
<path d="M2716 1183 c-8 -20 9 -40 19 -22 5 8 4 10 -3 5 -16 -9 -15 7 0 22 8
8 8 12 1 12 -6 0 -14 -8 -17 -17z"/>
<path d="M2750 1180 c0 -5 7 -10 16 -10 8 0 12 5 9 10 -3 6 -10 10 -16 10 -5
0 -9 -4 -9 -10z"/>
<path d="M2270 1001 c0 -21 -3 -72 -6 -114 l-7 -77 59 1 c32 1 52 3 44 5 -8 3
-23 24 -33 48 -16 38 -20 64 -26 147 -1 9 -8 19 -16 23 -12 4 -15 -3 -15 -33z"/>
<path d="M740 995 c0 -8 2 -15 4 -15 2 0 11 -3 20 -6 23 -9 20 13 -4 26 -16 9
-20 8 -20 -5z"/>
<path d="M1833 918 c-7 -54 -14 -103 -15 -110 -2 -7 7 -14 20 -16 20 -3 22 0
21 45 -1 26 -4 77 -8 113 l-6 65 -12 -97z"/>
<path d="M1725 795 c-13 -11 -18 -25 -17 -50 3 -46 -21 -128 -48 -163 -30 -38
-56 -50 -96 -43 -26 5 -40 15 -59 46 -43 71 -26 23 33 -89 l58 -110 149 -2
c83 -1 186 3 230 9 44 5 103 10 132 11 40 1 49 4 41 14 -6 6 -19 12 -29 12
-11 0 -19 5 -19 11 0 5 -6 7 -12 3 -7 -4 -10 -4 -6 0 3 4 -4 28 -18 53 -13 25
-24 60 -24 78 0 26 -13 46 -60 98 -33 35 -75 72 -93 80 -83 38 -127 57 -134
57 -4 0 -17 -7 -28 -15z"/>
<path d="M950 771 c0 -5 8 -17 17 -27 16 -15 17 -15 24 2 3 11 5 22 2 27 -6
10 -43 9 -43 -2z"/>
<path d="M1230 765 c7 -9 15 -13 17 -11 7 7 -7 26 -19 26 -6 0 -6 -6 2 -15z"/>
<path d="M2790 705 c-7 -9 -8 -15 -2 -15 5 0 12 7 16 15 3 8 4 15 2 15 -2 0
-9 -7 -16 -15z"/>
<path d="M2624 639 c-1 -25 2 -36 6 -28 13 23 16 62 5 66 -6 2 -11 -15 -11
-38z"/>
<path d="M2921 597 c-8 -19 -15 -24 -33 -21 l-23 5 23 -11 c13 -5 20 -14 17
-20 -3 -5 -2 -10 4 -10 17 0 44 61 32 73 -7 7 -13 2 -20 -16z"/>
<path d="M940 573 c0 -5 7 -17 15 -27 11 -15 19 -17 36 -10 20 9 21 11 5 27
-17 17 -56 24 -56 10z"/>
<path d="M1020 566 c0 -19 31 -30 41 -14 4 6 5 16 3 20 -9 14 -44 9 -44 -6z"/>
<path d="M836 521 c-11 -18 6 -41 31 -41 24 0 25 1 11 22 -17 25 -34 33 -42
19z"/>
<path d="M920 506 c0 -17 5 -26 16 -26 10 0 14 7 12 22 -5 32 -28 35 -28 4z"/>
<path d="M1203 493 c-31 -12 -2 -63 35 -63 15 0 20 45 6 58 -14 13 -21 14 -41
5z"/>
<path d="M2908 493 c7 -3 16 -2 19 1 4 3 -2 6 -13 5 -11 0 -14 -3 -6 -6z"/>
<path d="M955 430 c4 -6 11 -8 16 -5 14 9 11 15 -7 15 -8 0 -12 -5 -9 -10z"/>
<path d="M4 100 c0 -58 1 -81 3 -53 2 29 2 77 0 105 -2 29 -3 6 -3 -52z"/>
<path d="M1253 95 c0 -27 2 -38 4 -22 2 15 8 27 13 27 5 0 11 -12 13 -27 4
-26 4 -26 6 5 1 22 -4 32 -13 32 -8 0 -17 8 -19 18 -3 9 -5 -5 -4 -33z"/>
<path d="M1752 95 c0 -27 2 -43 5 -35 3 8 13 24 22 35 15 18 15 19 -1 7 -14
-12 -17 -10 -21 15 -2 16 -4 6 -5 -22z"/>
<path d="M1369 119 c-8 -20 4 -62 19 -65 7 -1 8 0 2 3 -15 7 -12 43 4 43 8 0
16 -10 18 -22 2 -12 9 -23 16 -24 7 -1 8 0 2 3 -12 6 -13 40 -1 45 5 2 3 9 -5
16 -8 7 -14 8 -14 2 0 -14 -27 -13 -32 2 -3 8 -6 7 -9 -3z"/>
<path d="M1598 117 c-7 -19 6 -60 20 -63 7 -1 8 0 2 3 -12 6 -13 40 -1 45 5 2
3 8 -4 15 -10 9 -14 9 -17 0z"/>
<path d="M2150 125 c-1 -5 -1 -21 0 -34 1 -13 -4 -28 -12 -32 -9 -6 -3 -9 17
-9 17 0 25 4 18 8 -6 4 -13 23 -16 42 -2 19 -5 31 -7 25z"/>
<path d="M2190 110 c-13 -24 2 -60 25 -60 17 0 28 33 20 60 -3 11 -13 20 -20
20 -8 0 -19 -9 -25 -20z m35 -20 c0 -27 -20 -38 -28 -15 -8 20 3 47 17 42 6
-2 11 -14 11 -27z"/>
<path d="M2254 115 c-4 -8 -1 -22 6 -30 6 -8 9 -19 5 -25 -3 -5 -4 -10 -1 -10
10 0 33 55 29 68 -6 17 -32 15 -39 -3z m28 -10 c0 -5 -5 -11 -11 -13 -6 -2
-11 4 -11 13 0 9 5 15 11 13 6 -2 11 -8 11 -13z"/>
<path d="M2315 120 c-4 -6 1 -7 11 -3 13 5 16 3 11 -10 -3 -9 -2 -19 4 -22 14
-9 -1 -27 -18 -21 -8 3 -11 1 -8 -4 9 -14 32 -12 38 3 14 38 -19 88 -38 57z"/>
<path d="M2387 123 c22 -4 22 -6 8 -33 -22 -42 -17 -51 5 -10 25 46 25 50 -7
49 -24 -2 -25 -2 -6 -6z"/>
<path d="M2435 120 c-3 -5 0 -7 8 -4 24 9 28 -12 7 -31 -27 -25 -25 -35 8 -34
17 1 20 3 9 6 -15 4 -16 7 -3 25 8 11 12 27 9 34 -6 16 -29 19 -38 4z"/>
<path d="M2503 123 c9 -2 23 -2 30 0 6 3 -1 5 -18 5 -16 0 -22 -2 -12 -5z"/>
<path d="M2568 123 c7 -3 16 -2 19 1 4 3 -2 6 -13 5 -11 0 -14 -3 -6 -6z"/>
<path d="M2622 105 c-14 -17 -26 -25 -30 -19 -10 15 -42 25 -42 14 0 -6 6 -10
14 -10 26 0 28 -20 4 -29 -16 -7 -18 -10 -6 -10 9 -1 20 4 23 9 9 14 52 13 57
-2 8 -22 15 16 9 47 l-6 29 -23 -29z m14 -22 c-10 -10 -19 5 -10 18 6 11 8 11
12 0 2 -7 1 -15 -2 -18z"/>
<path d="M2670 110 c-13 -24 2 -60 25 -60 17 0 28 33 20 60 -3 11 -13 20 -20
20 -8 0 -19 -9 -25 -20z m35 -20 c0 -27 -20 -38 -28 -15 -8 20 3 47 17 42 6
-2 11 -14 11 -27z"/>
<path d="M1200 93 c0 -10 4 -14 8 -8 4 6 11 13 16 18 5 4 2 7 -7 7 -10 0 -17
-8 -17 -17z"/>
<path d="M1311 83 c-1 -27 3 -33 19 -33 16 0 20 6 19 33 -2 30 -2 30 -6 5 -6
-36 -20 -36 -26 0 -4 25 -4 25 -6 -5z"/>
<path d="M1454 96 c-9 -23 3 -46 23 -45 17 1 17 2 1 6 -22 6 -24 23 -2 23 9 0
14 5 12 12 -7 19 -27 21 -34 4z"/>
<path d="M1511 78 c2 -28 2 -29 6 -8 3 14 10 28 17 32 7 5 5 8 -6 8 -14 0 -18
-8 -17 -32z"/>
<path d="M1550 93 c0 -10 4 -14 8 -8 4 6 11 13 16 18 5 4 2 7 -7 7 -10 0 -17
-8 -17 -17z"/>
<path d="M1644 95 c-8 -21 2 -45 20 -45 17 0 28 24 20 45 -4 8 -13 15 -20 15
-8 0 -17 -7 -20 -15z m31 -15 c0 -7 -6 -15 -12 -17 -8 -3 -13 4 -13 17 0 13 5
20 13 18 6 -3 12 -11 12 -18z"/>
<path d="M1704 95 c-8 -20 2 -45 18 -44 10 0 10 2 1 6 -7 2 -13 13 -13 23 0
10 6 21 13 23 9 4 9 6 -1 6 -7 1 -15 -6 -18 -14z"/>
<path d="M1844 95 c-8 -20 2 -45 18 -44 10 0 10 2 1 6 -7 2 -13 13 -13 23 0
10 6 21 13 23 9 4 9 6 -1 6 -7 1 -15 -6 -18 -14z"/>
<path d="M1894 95 c-8 -21 2 -45 20 -45 7 0 16 7 20 15 8 21 -3 45 -20 45 -8
0 -17 -7 -20 -15z m31 -15 c0 -7 -6 -15 -12 -17 -8 -3 -13 4 -13 17 0 13 5 20
13 18 6 -3 12 -11 12 -18z"/>
<path d="M1951 77 c2 -31 2 -31 6 -4 2 15 8 27 13 27 5 0 11 -12 13 -27 l4
-28 2 28 c0 15 5 27 10 27 5 0 12 -12 14 -27 4 -27 4 -27 6 4 1 29 -1 31 -34
31 -33 0 -35 -2 -34 -31z"/>
<path d="M2512 85 c-17 -37 -14 -45 4 -12 9 16 14 31 11 33 -2 2 -9 -7 -15
-21z"/>
<path d="M1212 65 c-11 -12 -10 -15 3 -15 8 0 15 7 15 15 0 18 -2 18 -18 0z"/>
<path d="M1562 65 c-11 -12 -10 -15 3 -15 8 0 15 7 15 15 0 18 -2 18 -18 0z"/>
<path d="M1770 71 c0 -5 5 -13 10 -16 6 -3 10 -2 10 4 0 5 -4 13 -10 16 -5 3
-10 2 -10 -4z"/>
</g>
</svg>
