<?xml version="1.0" standalone="no"?>
<!DOCTYPE svg PUBLIC "-//W3C//DTD SVG 20010904//EN"
 "http://www.w3.org/TR/2001/REC-SVG-20010904/DTD/svg10.dtd">
<svg version="1.0" xmlns="http://www.w3.org/2000/svg"
 width="420.000000pt" height="280.000000pt" viewBox="0 0 420.000000 280.000000"
 preserveAspectRatio="xMidYMid meet">

<g transform="translate(0.000000,280.000000) scale(0.100000,-0.100000)"
fill="#000000" stroke="none">
<path d="M2 2739 c3 -58 4 -61 36 -75 31 -12 33 -12 30 4 -5 23 47 66 72 59
22 -6 26 3 8 21 -9 9 -7 16 7 32 18 20 18 20 -69 20 l-87 0 3 -61z"/>
<path d="M454 2768 c3 -18 8 -69 11 -113 8 -105 11 -139 20 -205 6 -52 8 -55
37 -57 40 -3 118 -53 118 -76 0 -10 -8 -34 -17 -55 -9 -20 -17 -44 -17 -52 -1
-19 -46 -41 -70 -34 -13 4 -25 -1 -35 -14 -9 -12 -34 -25 -56 -30 -71 -15
-127 38 -140 134 -4 27 -15 58 -25 69 -34 40 -60 93 -60 122 0 33 27 63 59 66
19 1 21 7 21 56 0 53 0 54 -20 36 -11 -10 -20 -28 -20 -40 0 -31 -23 -49 -47
-36 -93 49 -126 62 -134 50 -4 -7 -24 -12 -46 -11 -29 0 -33 -2 -18 -8 11 -4
30 -6 43 -3 16 4 22 1 20 -8 -2 -10 7 -14 29 -14 41 -1 81 -37 89 -84 7 -33 4
-38 -42 -78 -51 -44 -80 -52 -129 -33 -23 9 -26 8 -23 -7 2 -13 17 -20 53 -24
74 -9 95 -18 105 -45 7 -18 20 -25 52 -30 43 -7 98 -51 98 -79 0 -7 20 -20 45
-30 49 -18 52 -30 19 -82 -20 -32 -18 -34 21 -17 19 7 36 14 38 14 1 0 23 -19
47 -41 l44 -41 11 30 c5 17 13 34 18 38 4 4 7 17 7 29 0 30 41 67 60 55 12 -7
13 -13 4 -28 -10 -16 -8 -18 24 -20 41 -3 87 -33 95 -62 3 -11 -3 -30 -15 -45
l-20 -25 27 10 c41 15 43 12 10 -18 -17 -15 -24 -23 -15 -18 8 6 32 26 52 45
21 19 40 32 43 30 2 -3 7 -23 11 -45 7 -46 23 -81 22 -49 -1 52 16 226 23 230
4 3 5 41 3 84 -3 49 -1 82 6 86 10 6 11 -2 12 -117 1 -37 5 -65 10 -62 4 3 8
25 8 50 0 45 7 53 28 32 15 -15 16 -64 1 -73 -6 -4 -8 -13 -5 -20 2 -7 0 -17
-6 -23 -16 -16 -14 -119 3 -139 9 -10 19 -26 23 -36 3 -10 20 -24 36 -30 38
-14 38 -21 -2 -38 -42 -17 -69 -14 -90 11 -9 11 -20 20 -24 20 -4 0 1 -9 12
-21 l19 -21 -70 6 c-41 3 -64 2 -56 -3 9 -6 10 -11 2 -15 -18 -11 -13 -26 9
-26 10 0 23 -6 27 -12 4 -7 17 -18 27 -24 41 -22 33 -102 -14 -142 -13 -12
-12 -13 5 -7 78 27 152 16 196 -27 25 -25 30 -37 26 -62 -10 -62 -14 -71 -36
-82 -31 -16 -49 -34 -34 -34 7 0 15 5 18 10 9 15 25 12 25 -5 0 -8 -4 -15 -9
-15 -9 0 -22 -84 -21 -139 1 -24 -3 -32 -13 -28 -21 8 -38 -68 -21 -90 13 -17
13 -17 14 0 0 10 5 15 10 12 6 -3 11 2 12 12 6 69 19 123 29 123 5 0 6 -7 3
-15 -4 -8 -1 -15 5 -15 17 0 13 29 -6 48 -16 16 -15 17 2 20 9 2 21 -1 24 -7
4 -5 17 -8 28 -5 19 5 20 8 8 20 -7 8 -21 14 -29 14 -25 0 -19 20 10 30 36 14
47 2 63 -70 8 -33 16 -58 19 -55 8 8 43 -105 36 -117 -5 -7 -2 -8 6 -3 10 6
12 3 8 -13 -4 -12 -2 -25 3 -28 5 -3 9 -12 9 -20 0 -8 -4 -12 -10 -9 -6 3 -7
-1 -4 -9 3 -9 1 -16 -6 -16 -6 0 -8 -5 -5 -10 3 -6 1 -10 -6 -10 -7 0 -9 -3
-6 -6 6 -6 87 43 87 53 0 2 -6 1 -13 -3 -6 -4 5 8 26 28 20 19 34 38 30 43 -5
4 -3 5 4 2 15 -9 5 -47 -19 -74 -11 -11 -19 -32 -17 -45 1 -12 -1 -31 -6 -41
-4 -9 -5 -29 -2 -43 3 -20 -1 -27 -19 -35 -13 -4 -23 -12 -22 -16 8 -22 -65
-16 -92 7 -13 11 -20 20 -16 20 4 0 2 9 -4 19 -8 16 -6 22 7 29 14 9 15 13 4
26 -20 24 -45 21 -31 -4 8 -14 8 -20 0 -20 -7 0 -8 -6 -1 -18 11 -21 4 -62
-11 -62 -5 0 -2 -10 6 -22 21 -30 20 -65 -1 -77 -14 -8 -14 -10 -3 -11 12 0
12 -2 1 -12 -11 -11 -14 -10 -18 0 -3 6 -9 9 -14 6 -6 -3 -3 -11 7 -18 12 -9
14 -17 8 -27 -5 -8 -10 -36 -11 -64 -1 -48 -8 -91 -34 -217 -10 -47 -10 -61 2
-80 12 -19 14 -48 8 -153 -3 -72 -10 -145 -14 -163 l-7 -33 84 3 c79 3 83 4
82 26 0 16 2 20 10 12 6 -6 11 -16 11 -23 0 -9 54 -12 210 -13 199 -1 265 5
223 21 -18 7 -25 35 -9 35 5 0 21 -14 34 -30 l26 -30 245 0 246 0 0 99 c0 99
0 99 -27 109 -16 6 -66 25 -113 42 -63 23 -75 30 -45 26 22 -3 79 -21 127 -41
96 -39 111 -42 82 -20 -10 8 -14 15 -7 15 6 0 25 12 42 26 l31 26 0 -51 c0
-45 3 -53 25 -63 14 -6 27 -9 30 -6 3 3 -1 128 -10 278 -18 328 -19 363 -4
355 5 -4 21 -8 35 -10 19 -2 22 0 13 11 -6 8 -17 14 -25 14 -19 0 -55 42 -50
57 3 6 0 13 -6 15 -6 2 -3 12 8 23 23 22 24 34 8 59 -7 10 -10 24 -8 31 3 7 0
16 -6 20 -7 4 -3 20 12 46 15 27 19 42 11 47 -6 4 -8 21 -6 39 4 22 11 32 27
35 20 4 23 0 23 -39 1 -24 7 -51 14 -60 10 -12 10 -15 2 -9 -24 14 -13 -2 38
-55 28 -30 48 -45 44 -34 -5 11 -10 35 -13 53 -5 40 17 44 54 7 31 -32 31 -93
-1 -110 -29 -15 -28 -76 3 -93 29 -16 28 -39 -3 -85 -28 -41 -40 -44 -73 -21
-22 15 -22 15 -22 -28 0 -90 13 -179 23 -169 21 21 74 13 91 -15 24 -36 17
-65 -19 -77 -16 -6 -33 -15 -37 -21 -5 -8 -12 -8 -25 0 -17 10 -18 6 -15 -65
2 -42 7 -114 10 -161 l7 -85 33 0 c27 0 32 -3 28 -17 -2 -10 0 -18 5 -18 5 0
15 -12 21 -26 11 -22 10 -28 -7 -40 -17 -12 -11 -14 51 -13 52 0 63 3 46 9
-12 5 -25 18 -28 27 -3 10 -9 25 -14 33 -4 10 -3 23 5 33 16 22 97 23 119 1
18 -18 21 -56 6 -85 -10 -18 -7 -19 81 -19 70 0 90 3 86 13 -2 7 4 23 14 36
24 30 55 20 64 -19 4 -17 10 -30 15 -30 4 0 6 8 3 18 -3 12 9 28 36 50 61 49
76 44 89 -27 l7 -39 44 20 44 20 29 -22 c25 -19 40 -21 138 -19 97 1 110 3
115 20 4 10 3 24 -1 31 -11 18 -13 72 -2 79 5 3 12 25 15 48 7 49 20 51 63 11
l33 -31 -6 53 c-4 29 -7 68 -7 86 0 29 -2 32 -19 22 -11 -5 -37 -10 -59 -10
l-39 0 -2 -47 c-1 -48 -22 -83 -49 -83 -13 0 -13 -2 1 -17 8 -10 18 -34 22
-55 6 -29 3 -40 -14 -57 -25 -25 -44 -26 -98 -7 -27 10 -45 11 -57 4 -14 -8
-25 -4 -50 21 -19 19 -42 31 -59 31 -49 0 -59 67 -16 103 30 24 52 18 59 -18
4 -17 13 -41 21 -55 l14 -25 6 35 c12 72 19 82 53 77 17 -2 40 -7 51 -12 16
-6 14 -2 -7 19 -32 31 -33 37 -13 76 19 36 28 39 19 6 -4 -16 -1 -25 12 -30
22 -8 23 -7 28 35 3 25 8 34 21 32 14 -1 12 4 -8 25 -29 32 -40 59 -27 67 5 3
-5 18 -22 34 -20 18 -29 33 -25 44 9 25 105 70 133 63 17 -5 24 -2 24 7 0 15
46 12 56 -4 3 -5 9 -9 14 -9 11 0 1 32 -12 41 -5 3 108 45 249 92 142 48 244
85 226 83 -18 -3 -33 -1 -35 6 -2 6 -20 11 -40 12 -20 0 -34 5 -31 10 3 4 -13
6 -35 3 -31 -3 -39 -1 -35 9 7 18 18 18 84 -3 30 -9 73 -17 97 -18 23 -1 45
-5 49 -8 3 -4 16 -7 27 -8 12 0 15 -3 8 -6 -6 -2 -9 -10 -5 -16 3 -7 -3 -4
-14 6 -13 11 -24 14 -27 8 -3 -5 -29 -17 -57 -26 -47 -16 -49 -18 -35 -34 20
-22 11 -78 -15 -91 -24 -14 -83 -12 -114 2 -21 9 -25 17 -20 35 7 30 -1 29
-98 -3 l-78 -26 5 -37 c3 -20 11 -94 16 -166 21 -262 41 -419 53 -427 19 -12
37 -9 37 5 0 8 11 27 25 43 26 30 30 27 28 -24 -1 -7 12 -12 33 -12 18 0 36
-5 39 -10 3 -6 45 -10 92 -10 l86 0 -7 40 c-6 39 -6 40 15 29 12 -6 24 -20 26
-30 4 -15 15 -19 49 -19 24 0 44 -4 44 -10 0 -5 9 -10 20 -10 18 0 20 7 20 71
0 39 -4 68 -9 65 -5 -3 -12 1 -15 10 -9 23 -8 27 9 20 13 -4 15 8 15 79 0 66
-3 85 -14 85 -8 0 -16 7 -20 15 -4 10 1 15 17 16 21 1 21 1 -3 9 -24 8 -24 8
-2 9 20 1 22 6 22 61 0 52 -2 59 -17 54 -17 -5 -17 -5 0 6 16 11 26 77 9 66
-4 -2 -8 22 -7 55 0 32 3 59 6 59 3 0 6 37 7 82 2 57 -1 84 -10 90 -10 6 -10
8 0 8 6 0 12 8 12 19 0 16 -17 22 -113 41 l-114 22 -74 -37 c-105 -53 -123
-66 -107 -76 9 -6 7 -9 -8 -9 -28 0 -36 10 -21 28 9 13 9 14 0 8 -7 -4 -13 -3
-13 3 0 16 20 24 34 12 9 -7 19 -6 35 6 13 9 54 33 92 54 l68 37 88 -19 c48
-10 98 -21 111 -24 l22 -5 0 159 c0 127 -3 161 -15 171 -13 11 -13 14 0 27 12
11 15 39 14 120 -1 93 -3 104 -18 97 -70 -29 -69 -29 -96 -4 -32 30 -32 44 0
58 14 6 26 16 26 22 1 5 2 16 3 23 1 7 17 12 44 11 l42 -1 0 61 0 60 -32 -31
c-39 -37 -105 -73 -133 -73 -11 0 -31 -14 -45 -30 -14 -17 -42 -42 -63 -57
l-38 -26 36 -13 c68 -23 97 -73 60 -104 -8 -7 -13 -16 -10 -20 2 -4 -4 -15
-15 -25 -23 -21 -121 -27 -127 -7 -3 7 3 12 14 12 14 0 15 2 5 9 -11 6 -10 10
5 16 37 16 63 15 82 -4 11 -11 22 -17 25 -13 3 3 -6 13 -20 23 -26 17 -26 17
-4 24 l22 7 -26 27 c-14 15 -26 32 -26 39 0 13 -50 28 -125 37 -69 9 -124 34
-163 75 -41 42 -53 70 -40 87 7 9 7 13 -1 13 -6 0 -11 7 -11 16 0 9 5 12 13 8
9 -5 9 -4 0 6 -12 13 -7 40 8 40 5 0 9 -8 9 -17 0 -26 44 -116 65 -133 11 -9
8 -1 -8 23 -32 47 -51 102 -44 128 3 12 1 17 -6 13 -7 -3 -3 2 7 10 18 14 18
17 4 29 -12 9 -13 17 -7 32 8 18 9 17 5 -4 -4 -18 -2 -21 7 -12 9 9 9 16 -1
31 -10 17 -10 20 3 20 14 0 20 13 16 34 -1 5 6 3 15 -5 12 -9 15 -10 10 -1 -4
7 -1 19 8 27 13 13 15 12 18 -17 4 -33 4 -33 12 10 5 24 14 43 22 43 8 1 19 3
24 4 6 1 22 3 38 4 27 2 27 2 4 12 -15 6 -31 5 -44 -2 -15 -8 -19 -8 -16 1 2
7 107 67 233 135 203 108 230 126 233 149 3 23 0 26 -25 26 -16 0 -33 4 -38 9
-6 4 -31 16 -57 26 -27 10 -48 21 -48 26 0 4 38 38 85 74 47 37 85 69 85 71 0
2 -33 -20 -73 -51 -41 -30 -77 -55 -80 -55 -17 0 11 101 32 114 6 4 7 13 4 22
-4 10 13 32 48 64 l54 48 -50 -9 c-56 -11 -132 7 -172 40 -25 21 -46 68 -37
82 3 5 1 9 -5 9 -6 0 -8 7 -5 15 5 12 -5 15 -54 15 -54 0 -61 -2 -59 -19 0
-11 4 -18 8 -15 4 2 9 -6 13 -19 3 -12 14 -32 26 -44 11 -12 19 -26 18 -30 -1
-4 2 -26 7 -48 4 -22 7 -49 6 -60 -3 -38 -25 -110 -39 -133 -14 -22 -13 -25
21 -53 39 -32 87 -122 88 -166 0 -27 0 -27 15 9 22 53 58 65 137 47 l62 -15
-89 -48 c-70 -38 -90 -46 -97 -35 -7 11 -10 9 -15 -8 -7 -26 -179 -127 -201
-118 -8 2 -11 1 -8 -4 8 -14 -13 -24 -46 -23 -32 1 -74 26 -74 45 0 6 -8 11
-17 9 -9 -1 -19 6 -23 18 -4 11 -10 18 -15 15 -5 -3 -12 0 -16 6 -4 7 -3 9 4
5 6 -3 13 -2 17 4 3 5 1 10 -6 10 -7 0 -9 3 -6 7 4 3 1 13 -6 21 -10 13 -9 14
3 7 9 -5 7 1 -5 15 -11 13 -15 20 -9 17 7 -4 14 3 16 18 5 26 -6 35 -15 13 -3
-7 -5 -1 -4 13 1 32 19 28 55 -10 22 -25 23 -25 12 -3 -19 38 -8 54 47 72 47
15 53 15 67 1 10 -9 16 -11 16 -4 0 7 -5 15 -10 18 -6 4 -8 10 -5 14 2 5 -2
16 -9 26 -10 14 -15 15 -21 5 -6 -9 -4 -11 5 -5 8 5 11 3 8 -6 -3 -8 -11 -13
-17 -12 -6 2 -11 -1 -11 -6 0 -5 -16 -8 -36 -6 -32 3 -34 2 -17 -12 16 -13 13
-14 -34 -9 -64 6 -127 37 -150 74 -10 15 -22 30 -27 34 -5 3 -10 17 -10 30 -1
12 -5 28 -9 35 -13 20 -8 86 10 133 3 8 7 20 7 26 2 19 61 134 69 134 4 0 2
-10 -4 -22 -14 -27 -5 -129 16 -171 12 -24 13 -32 3 -39 -9 -6 -7 -8 7 -6 11
2 19 -1 19 -7 -1 -5 7 -19 19 -30 l20 -20 -8 25 c-4 14 -8 36 -10 50 -1 15 -8
24 -17 23 -10 -2 -15 8 -16 34 -2 20 -7 43 -13 49 -13 16 -9 127 5 136 6 4
-19 8 -56 8 l-68 0 -1 -37 -2 -38 -6 35 c-5 28 -11 36 -31 38 l-25 4 24 -21
c13 -12 20 -21 15 -21 -5 0 -8 -21 -7 -47 l1 -48 -10 58 c-7 37 -16 57 -25 57
-8 0 -11 5 -8 10 4 6 -10 10 -36 10 -41 0 -41 0 -35 -32 4 -24 3 -29 -4 -18
-5 8 -10 24 -10 35 0 17 -2 17 -10 5 -6 -10 -10 -11 -10 -2 0 8 -16 12 -44 12
-38 0 -45 -3 -49 -22 l-4 -23 -2 23 c-1 22 -3 22 -131 22 l-129 0 30 -52 c24
-40 27 -53 17 -59 -9 -6 -8 -9 7 -10 12 0 15 -3 7 -6 -10 -4 -9 -8 4 -18 12
-8 17 -26 17 -56 -1 -37 0 -40 8 -19 6 18 7 9 5 -32 -2 -32 -9 -64 -16 -72 -6
-9 -9 -20 -5 -26 3 -5 -1 -10 -10 -10 -12 0 -14 8 -10 41 3 23 8 45 11 50 3 5
-3 6 -12 2 -15 -6 -15 -4 1 20 9 15 13 27 7 27 -5 0 -12 -9 -15 -20 -6 -22
-27 -28 -27 -7 0 7 5 18 12 25 7 7 8 12 4 12 -13 0 -87 -80 -74 -80 8 -1 5 -7
-6 -15 -11 -8 -15 -15 -10 -15 6 0 16 -11 22 -25 7 -15 8 -25 2 -25 -6 0 -11
-21 -12 -47 -1 -48 -1 -48 -8 12 -4 33 -7 52 -8 42 -1 -10 -6 -15 -12 -12 -5
3 -10 2 -10 -3 0 -5 -12 -14 -27 -21 -21 -10 -28 -9 -34 1 -6 9 -9 9 -9 1 0
-14 -61 -34 -112 -37 -9 0 -14 -4 -12 -8 5 -8 -2 -9 -43 -11 -10 -1 -21 -6
-25 -12 -4 -5 -8 2 -8 17 0 21 6 29 24 34 14 3 30 3 37 -2 8 -5 9 -3 4 6 -6
10 -4 12 8 7 8 -3 21 1 28 9 9 11 14 12 19 3 4 -6 13 -8 20 -4 9 6 9 10 -1 17
-11 7 -9 8 4 4 10 -3 23 -6 28 -6 5 0 9 -5 9 -11 0 -5 -5 -7 -12 -3 -7 4 -8 3
-4 -5 9 -14 26 -5 26 14 0 15 27 28 42 18 7 -4 8 -1 3 7 -6 10 -4 12 8 7 10
-3 17 -2 17 4 0 6 4 8 9 4 5 -3 12 -1 15 4 22 36 -133 14 -224 -32 l-65 -32
-3 -67 c-3 -65 8 -108 28 -108 5 0 10 10 12 22 2 11 11 22 21 24 12 2 17 -3
14 -14 -2 -9 -9 -16 -15 -14 -7 1 -12 -2 -12 -8 0 -19 87 -8 163 22 27 10 39
30 15 24 -7 -1 -10 -1 -6 1 5 3 5 17 2 31 l-5 27 16 -25 16 -25 -7 24 c-4 17
-3 21 6 16 6 -4 10 -18 8 -30 -4 -16 -1 -22 9 -18 7 3 10 10 6 16 -4 6 -1 7 7
2 11 -7 10 -11 -4 -19 -83 -49 -81 -46 -106 -168 -8 -39 -16 -58 -26 -58 -12
0 -14 15 -12 78 l3 77 -61 -3 c-61 -3 -62 -3 -73 29 -12 36 -15 148 -3 166 4
6 42 28 85 49 55 26 96 38 142 42 36 2 65 8 65 13 0 13 -22 22 -29 12 -9 -13
-34 -10 -39 6 -3 9 2 11 18 6 20 -6 21 -5 10 14 -6 12 -7 21 -3 20 22 -4 32 3
28 19 -3 9 1 5 8 -11 7 -15 17 -24 22 -20 5 5 4 0 -3 -9 -11 -14 -11 -16 5
-12 11 3 20 15 21 30 1 14 -2 23 -7 19 -5 -3 -13 0 -17 6 -4 8 -3 9 4 5 8 -4
12 0 12 11 0 15 2 16 10 3 7 -10 10 -11 10 -2 0 7 -7 15 -15 18 -11 5 -12 11
-5 24 7 13 6 21 -2 26 -7 4 -8 3 -4 -4 4 -7 3 -12 -3 -12 -5 0 -12 9 -16 20
-3 10 -20 31 -36 45 -17 14 -27 25 -24 25 4 0 1 8 -6 17 -8 9 -9 14 -3 10 12
-7 29 21 19 31 -3 3 -5 0 -5 -6 0 -6 -9 -9 -20 -7 -14 3 -18 0 -15 -8 4 -7 0
-4 -8 6 -8 9 -17 17 -20 17 -4 0 -4 -8 -1 -17 5 -17 5 -17 -5 -1 -10 15 -35
17 -216 18 l-205 0 0 -148 c0 -138 3 -160 41 -321 l40 -174 -16 -68 c-10 -38
-21 -69 -25 -69 -14 0 -23 22 -13 29 5 3 15 27 22 53 12 41 10 59 -9 151 -14
64 -27 104 -34 103 -6 -2 -8 -1 -3 1 4 3 7 16 7 29 0 14 -4 23 -9 20 -5 -4 -7
3 -4 13 3 11 0 28 -6 38 -9 16 -10 15 -11 -8 0 -14 -3 -54 -7 -89 -4 -39 -3
-61 3 -57 6 3 8 -9 6 -30 -3 -20 -1 -33 4 -30 9 5 11 -338 2 -383 -4 -23 -9
-25 -60 -24 -34 1 -70 10 -94 22 l-39 21 40 1 c57 1 75 40 75 159 0 53 6 106
15 131 19 54 19 84 -1 101 -13 11 -15 38 -11 198 2 102 10 206 16 230 7 24 9
57 6 73 -5 23 -12 28 -36 28 l-29 0 5 -55 c3 -34 1 -55 -6 -55 -6 0 -7 5 -4
10 3 6 2 10 -3 10 -6 0 -12 -6 -15 -14 -6 -15 -47 -11 -47 5 0 5 -8 4 -19 -2
-19 -13 -51 -6 -51 10 0 6 11 22 25 37 35 38 32 54 -10 54 -27 0 -35 -4 -35
-17 -1 -17 -1 -17 -14 0 -10 13 -28 17 -75 17 -57 0 -61 -2 -61 -22 0 -31 -92
-99 -134 -100 -36 -1 -62 5 -72 15 -4 4 -15 7 -24 7 -10 0 -23 7 -30 15 -9 11
-7 19 11 37 19 20 21 21 15 3 -4 -11 -4 -16 0 -12 4 4 13 2 20 -4 9 -7 19 -6
33 3 23 14 29 33 8 25 -7 -3 -30 4 -52 14 -27 13 -60 19 -111 19 l-73 0 1 -32
c0 -18 -2 -42 -4 -52 -5 -22 -48 -55 -48 -38 0 6 7 12 16 14 14 3 13 6 -4 25
-10 13 -22 20 -25 17 -3 -3 -18 11 -34 30 -27 34 -31 36 -90 36 -35 0 -63 -4
-63 -9 0 -5 12 -35 27 -67 14 -31 27 -74 29 -93 2 -31 -4 -23 -44 57 -28 55
-53 92 -62 92 -13 0 -13 1 0 10 18 12 -38 12 -117 1 -29 -4 -53 -4 -53 1 0 4
-6 8 -13 8 -9 0 -12 -10 -9 -31 4 -29 3 -30 -17 -20 -12 7 -27 21 -34 31 -6
11 -22 20 -34 20 -19 0 -23 -5 -23 -31 0 -42 -65 -109 -106 -109 -56 0 -134
71 -134 123 0 14 -9 17 -51 17 l-51 0 6 -32z m2816 2 c0 -5 -2 -10 -4 -10 -3
0 -8 5 -11 10 -3 6 -1 10 4 10 6 0 11 -4 11 -10z m-2363 -54 c-3 -6 0 -19 5
-29 9 -17 11 -17 21 -3 7 9 25 19 42 22 16 3 32 10 36 16 4 7 9 6 14 -2 4 -7
2 -16 -5 -20 -8 -5 -4 -14 16 -29 36 -28 59 -29 42 -1 -7 11 -16 20 -19 20 -4
0 -5 9 -2 20 9 32 18 24 38 -35 10 -30 22 -55 27 -55 19 0 6 -18 -27 -36 -19
-10 -35 -24 -35 -30 0 -13 -23 -25 -57 -30 -28 -3 -29 3 -3 24 20 17 20 17 -6
60 -30 51 -49 51 -78 3 -16 -28 -17 -37 -7 -53 8 -13 9 -18 1 -13 -6 4 -15 18
-20 31 -5 13 -14 24 -20 24 -6 0 -9 -4 -5 -9 3 -5 -3 -12 -13 -16 -20 -6 -22
-26 -8 -58 6 -12 1 -23 -15 -37 -30 -24 -48 -25 -55 -2 -3 9 -17 40 -30 67
-28 59 -29 68 -9 85 11 10 21 10 42 1 16 -6 43 -13 61 -15 32 -5 32 -4 32 40
0 24 4 44 10 44 5 0 7 6 4 13 -3 8 2 14 11 14 8 0 14 -5 12 -11z m2423 -33 c0
-27 -4 -43 -8 -36 -8 12 -4 83 4 83 2 0 4 -21 4 -47z m-596 -26 c24 -45 37
-83 15 -44 -6 9 -14 15 -19 12 -4 -3 -6 5 -2 17 3 14 2 19 -6 14 -8 -5 -12 0
-12 13 0 11 -4 23 -10 26 -5 3 -10 11 -10 18 0 16 14 -1 44 -56z m16 43 c6
-11 8 -20 6 -20 -3 0 -10 9 -16 20 -6 11 -8 20 -6 20 3 0 10 -9 16 -20z m537
-47 c-3 -10 -5 -2 -5 17 0 19 2 27 5 18 2 -10 2 -26 0 -35z m-602 27 c3 -5 1
-10 -4 -10 -6 0 -11 5 -11 10 0 6 2 10 4 10 3 0 8 -4 11 -10z m472 -22 c-3 -7
-5 -2 -5 12 0 14 2 19 5 13 2 -7 2 -19 0 -25z m60 10 c-3 -8 -6 -5 -6 6 -1 11
2 17 5 13 3 -3 4 -12 1 -19z m-2577 -18 l25 -21 -35 3 c-24 2 -36 9 -38 21 -5
23 17 21 48 -3z m2134 4 c3 -8 2 -12 -4 -9 -6 3 -10 10 -10 16 0 14 7 11 14
-7z m-80 -10 c3 -8 2 -12 -4 -9 -6 3 -10 10 -10 16 0 14 7 11 14 -7z m-1227
-31 c8 -10 12 -13 9 -7 -10 21 66 11 91 -12 30 -28 32 -60 3 -44 -11 6 -18 15
-15 21 9 13 -9 11 -23 -3 -15 -15 -16 -64 -2 -73 6 -4 8 -10 5 -15 -3 -5 0
-12 6 -16 6 -3 7 -9 3 -13 -5 -3 -14 -15 -20 -25 -13 -24 -37 -34 -28 -13 4
12 0 14 -14 10 -16 -4 -27 5 -46 36 -14 22 -25 44 -24 48 3 18 -23 64 -33 57
-7 -4 -7 1 1 16 11 21 12 21 26 3 8 -10 14 -13 13 -8 -2 19 13 55 24 55 5 0
16 -8 24 -17z m-811 -13 c32 -16 43 -28 48 -52 11 -54 7 -94 -11 -111 -23 -20
-113 -18 -138 3 -21 18 -45 71 -45 100 0 27 46 74 65 66 8 -3 15 -1 15 4 0 15
20 12 66 -10z m1123 -16 c-9 -11 -7 -14 9 -14 16 0 20 4 15 16 -6 17 -5 17 37
-5 26 -14 82 -90 95 -130 10 -32 -20 -105 -57 -136 -16 -14 -34 -23 -39 -19
-5 3 -9 0 -9 -5 0 -6 -5 -11 -11 -11 -5 0 -7 4 -4 10 4 6 -6 7 -26 3 -24 -4
-30 -3 -25 6 5 7 14 10 21 7 8 -3 19 2 26 11 11 12 10 17 -5 25 -10 6 -27 19
-37 29 -26 26 -69 26 -62 0 4 -16 0 -19 -22 -17 -35 4 -43 14 -48 59 -3 28 -1
37 8 33 12 -4 26 21 29 54 1 8 7 14 14 13 7 -2 12 2 12 7 0 6 -5 10 -10 10 -7
0 -7 6 -1 19 6 10 7 21 4 25 -12 12 23 6 36 -6 11 -11 12 -10 6 0 -10 19 26
53 43 39 9 -7 9 -13 1 -23z m1488 4 c-3 -8 -6 -5 -6 6 -1 11 2 17 5 13 3 -3 4
-12 1 -19z m-398 -69 c0 8 3 12 5 10 2 -2 0 -26 -4 -54 l-7 -50 -2 44 c-1 35
-4 42 -17 37 -10 -4 -14 -2 -10 6 3 7 9 22 13 33 6 18 8 16 14 -10 4 -16 7
-24 8 -16z m-1589 8 c0 10 6 10 24 2 14 -7 22 -17 19 -25 -3 -8 -8 -12 -12 -9
-4 2 -8 -2 -8 -10 0 -8 4 -12 9 -9 4 3 8 1 8 -5 0 -5 10 -11 22 -13 19 -2 24
-12 31 -53 7 -43 6 -52 -11 -66 -11 -9 -22 -26 -24 -39 -1 -13 -12 -28 -23
-34 -11 -6 -22 -14 -25 -17 -5 -5 -36 -20 -52 -24 -5 -2 -11 -4 -15 -5 -20 -6
-50 4 -70 22 -30 28 -63 101 -63 138 0 60 51 129 96 130 11 0 24 4 30 9 14 14
48 18 56 6 5 -6 8 -6 8 2z m1967 -29 c-3 -7 -5 -2 -5 12 0 14 2 19 5 13 2 -7
2 -19 0 -25z m-2314 -24 c-3 -8 -1 -14 5 -14 6 0 12 4 14 10 2 6 9 6 18 0 12
-7 12 -12 -4 -29 -10 -11 -23 -18 -29 -14 -5 3 -8 2 -4 -3 3 -5 -6 -23 -19
-39 l-24 -30 0 36 c0 20 3 57 6 83 6 44 8 46 25 30 10 -9 15 -22 12 -30z
m1130 14 c6 -19 -4 -49 -14 -42 -12 7 -12 54 0 54 5 0 11 -6 14 -12z m774 -15
c0 -9 -4 -10 -14 -2 -7 6 -13 12 -13 14 0 1 6 2 13 2 8 0 14 -6 14 -14z m-715
-69 c-4 -24 -35 -50 -41 -33 -5 16 21 60 33 56 6 -2 10 -13 8 -23z m765 -6
c-3 -7 -5 -2 -5 12 0 14 2 19 5 13 2 -7 2 -19 0 -25z m27 17 c-4 -8 -8 -15
-10 -15 -2 0 -4 7 -4 15 0 8 4 15 10 15 5 0 7 -7 4 -15z m-64 0 c0 -2 -7 -8
-15 -15 -12 -10 -15 -10 -15 2 0 8 7 15 15 15 8 0 15 -1 15 -2z m-2056 -21 c9
-9 16 -32 16 -55 l0 -39 -49 0 c-74 0 -88 32 -38 88 24 26 49 28 71 6z m1626
-12 c0 -5 -7 -17 -15 -28 -14 -18 -14 -17 -4 9 12 27 19 34 19 19z m407 -24
c-3 -8 -6 -5 -6 6 -1 11 2 17 5 13 3 -3 4 -12 1 -19z m-1073 -3 c-4 -8 -8 -15
-10 -15 -2 0 -4 7 -4 15 0 8 4 15 10 15 5 0 7 -7 4 -15z m930 -10 c6 -18 1
-21 -49 -30 -22 -4 -45 -12 -52 -17 -6 -5 -14 -5 -16 -1 -9 14 8 33 33 38 13
2 27 8 32 13 13 13 46 11 52 -3z m-629 -20 c28 -27 37 -87 10 -65 -16 14 -18
10 -9 -14 3 -9 14 -16 23 -17 10 0 11 -2 4 -6 -7 -2 -13 -15 -13 -28 0 -13 -5
-27 -10 -30 -6 -4 -10 -14 -8 -23 4 -27 -26 -60 -57 -64 -25 -2 -31 1 -33 20
-2 15 -9 22 -17 18 -8 -3 -15 5 -18 22 -2 15 -7 34 -11 43 -4 10 -1 23 9 32 8
9 11 18 6 21 -5 3 -12 -1 -15 -10 -3 -8 -10 -13 -15 -9 -17 10 -2 30 31 43 28
10 30 14 25 46 -7 42 -3 46 40 46 23 0 42 -8 58 -25z m-330 -4 c-3 -6 -11 -11
-16 -11 -5 0 -4 6 3 14 14 16 24 13 13 -3z m-1445 -6 c12 -14 6 -35 -10 -35
-11 0 -40 29 -40 41 0 14 36 11 50 -6z m805 -3 c-1 -9 2 -25 7 -36 7 -12 7
-16 0 -12 -5 3 -13 -6 -17 -21 -4 -16 -2 -29 5 -33 9 -5 9 -9 1 -14 -17 -11
-30 2 -24 24 3 12 -1 22 -11 26 -18 7 -44 55 -39 71 2 6 21 11 42 11 31 1 38
-3 36 -16z m1290 -12 c-3 -5 -12 -10 -18 -10 -7 0 -6 4 3 10 19 12 23 12 15 0z
m447 -12 c-7 -7 -12 -8 -12 -2 0 14 12 26 19 19 2 -3 -1 -11 -7 -17z m-2046
-12 c23 -16 45 -81 48 -138 2 -30 -1 -38 -15 -38 -9 0 -22 7 -29 15 -7 9 -15
13 -18 11 -2 -3 -17 1 -33 9 -29 15 -59 11 -59 -8 0 -7 -6 -5 -14 3 -15 16
-35 81 -21 67 5 -4 14 6 21 23 7 16 20 30 30 30 10 0 14 5 11 14 -3 8 -3 17 0
20 11 11 58 6 79 -8z m1868 3 c-3 -6 0 -15 7 -20 10 -6 8 -9 -8 -9 -13 0 -23
5 -23 11 0 5 -5 7 -10 4 -6 -4 -7 -11 -4 -17 4 -7 2 -8 -4 -4 -17 10 -3 34 21
39 12 2 23 5 25 6 2 0 0 -4 -4 -10z m336 -125 c-7 -17 -5 -21 7 -20 9 0 18 -5
21 -13 3 -9 0 -11 -8 -6 -8 5 -11 4 -6 -3 4 -6 13 -9 20 -6 9 4 13 -2 11 -20
-2 -14 3 -30 11 -37 15 -12 18 -4 15 31 -2 12 0 13 7 1 6 -7 9 -26 8 -42 -1
-15 1 -26 4 -24 8 5 30 -63 30 -89 0 -11 -5 -15 -12 -10 -7 4 -6 -1 3 -12 18
-22 24 -74 8 -74 -5 0 -9 -8 -7 -17 2 -13 -4 -17 -29 -16 -30 0 -38 -7 -34
-30 1 -5 -3 -6 -9 -2 -6 3 -8 11 -5 16 4 5 -1 12 -9 15 -11 4 -13 14 -9 36 4
20 1 33 -8 38 -7 5 -13 25 -13 44 0 20 -3 31 -7 25 -4 -7 -8 9 -10 35 -5 52
-3 56 12 24 8 -20 8 -19 3 7 -4 17 -7 40 -8 52 -1 13 -7 28 -14 35 -7 7 -12
18 -12 26 0 7 -5 10 -12 6 -7 -5 -9 -2 -5 8 3 9 0 21 -6 28 -9 10 -9 11 1 6 6
-4 12 -3 12 3 0 6 13 9 29 8 25 -2 27 -5 21 -23z m385 16 c3 -6 -1 -7 -9 -4
-18 7 -21 14 -7 14 6 0 13 -4 16 -10z m-1899 -26 c-3 -22 -34 -44 -52 -37 -20
7 -17 41 4 46 36 10 50 7 48 -9z m243 -24 c10 -19 26 -34 35 -34 9 1 16 -2 16
-7 0 -5 -5 -9 -11 -9 -8 0 -8 -4 0 -14 8 -10 6 -20 -10 -40 -12 -15 -27 -25
-34 -23 -18 7 -73 -22 -78 -41 -2 -10 5 -27 16 -39 l20 -23 -49 0 c-52 0 -79
11 -79 32 -1 7 -6 12 -13 11 -7 -2 -13 5 -13 15 -3 37 -7 77 -8 80 -1 1 -1 4
0 8 0 3 -6 16 -15 29 -13 20 -13 25 -1 35 8 7 15 9 15 5 0 -5 8 -1 18 8 10 9
28 15 39 13 14 -3 23 2 26 14 4 15 14 18 56 17 47 -2 52 -5 70 -37z m561 20
c0 -11 -4 -20 -9 -20 -5 0 -7 9 -4 20 3 11 7 20 9 20 2 0 4 -9 4 -20z m1047
-33 c17 -58 9 -58 -11 -1 -18 53 -19 61 -9 50 4 -4 13 -26 20 -49z m-2563 -3
c4 -10 -3 -14 -24 -14 -19 0 -30 5 -30 14 0 28 43 28 54 0z m2626 -18 c0 -12
-5 -7 -19 24 -11 24 -11 24 3 6 9 -11 16 -24 16 -30z m95 29 c0 -4 -8 -9 -18
-11 -9 -1 -15 1 -12 6 3 5 -1 11 -7 14 -7 2 -2 3 12 2 14 -2 25 -7 25 -11z
m-241 -25 c-6 -6 -10 -3 -10 10 0 13 4 16 10 10 7 -7 7 -13 0 -20z m-2244 16
c0 -2 -7 -6 -15 -10 -8 -3 -15 -1 -15 4 0 6 7 10 15 10 8 0 15 -2 15 -4z
m1277 -16 c-1 -12 -5 -16 -10 -11 -5 5 -6 14 -3 20 11 16 15 13 13 -9z m1143
9 c0 -5 4 -8 9 -4 9 5 37 -34 32 -45 -1 -3 5 -7 14 -8 14 -3 15 -1 5 18 -10
18 -9 24 1 31 16 10 33 -8 60 -66 16 -36 16 -42 4 -62 -8 -12 -14 -30 -14 -40
1 -17 2 -17 6 0 5 20 14 22 31 5 13 -13 16 -86 5 -139 -5 -29 -7 -30 -15 -14
-7 16 -8 15 -5 -7 3 -16 -1 -36 -8 -45 -11 -15 -12 -10 -9 27 2 25 1 38 -4 29
-6 -14 -9 -14 -25 1 -18 17 -18 19 2 37 20 18 20 19 1 20 -11 1 -20 -4 -20
-13 0 -8 -4 -14 -9 -14 -5 0 -7 15 -4 34 4 33 -9 56 -22 36 -11 -18 -23 -11
-18 10 3 11 9 18 13 15 5 -3 12 0 16 7 5 7 11 3 17 -13 9 -21 11 -22 15 -5 4
20 -14 37 -33 30 -6 -3 -18 3 -26 12 -11 14 -11 16 -1 10 12 -7 12 -4 2 15 -7
13 -17 27 -23 30 -13 9 1 31 15 23 5 -4 5 3 -2 16 -19 36 -30 80 -19 80 5 0 9
-5 9 -11z m-2251 -9 c25 0 39 -13 46 -41 5 -21 2 -27 -14 -32 -12 -3 -24 -1
-27 4 -3 5 -12 9 -20 9 -21 0 -17 -30 8 -57 14 -15 18 -27 12 -33 -7 -7 -17 0
-32 19 -26 35 -59 36 -97 3 -30 -26 -30 -26 -55 -5 -24 21 -25 40 -4 64 9 10
17 29 18 43 1 28 16 37 16 10 0 -9 5 -14 11 -12 6 2 10 7 9 12 -3 18 26 27 69
21 24 -3 51 -5 60 -5z m228 -6 c9 -25 -12 -38 -31 -19 -9 9 -16 21 -16 26 0
15 40 10 47 -7z m2007 -50 c3 -8 2 -12 -4 -9 -6 3 -10 10 -10 16 0 14 7 11 14
-7z m240 1 c11 -8 17 -17 14 -21 -4 -3 -16 4 -27 15 -24 24 -15 28 13 6z
m-1764 -16 c0 -5 5 -7 12 -3 7 5 8 3 4 -5 -5 -7 -14 -10 -22 -7 -7 3 -20 -1
-28 -9 -17 -17 -36 -20 -36 -4 0 5 5 7 12 3 7 -5 8 -3 3 6 -4 7 -2 16 6 21 19
12 49 11 49 -2z m690 -24 c5 3 11 1 14 -4 4 -5 1 -13 -5 -17 -6 -4 -16 0 -21
9 -5 9 -14 15 -21 13 -6 -1 -9 -1 -5 1 4 2 4 12 1 21 -3 10 1 8 11 -6 10 -12
21 -20 26 -17z m47 9 c-5 -5 -57 13 -57 20 0 3 14 0 31 -6 16 -6 28 -12 26
-14z m-1140 -83 c1 -48 -3 -84 -10 -88 -7 -4 -8 0 -4 11 4 10 3 15 -3 11 -6
-3 -10 -1 -10 4 0 6 -7 11 -15 11 -10 0 -7 -8 10 -26 20 -22 22 -29 12 -45
-14 -22 -27 -25 -27 -6 0 6 -5 4 -11 -6 -5 -9 -23 -24 -40 -32 -23 -13 -34
-13 -52 -4 -12 7 -24 10 -26 8 -2 -2 -5 8 -7 24 -1 15 2 27 7 27 5 0 9 9 9 21
0 11 8 23 18 25 9 3 26 24 37 46 13 27 21 36 23 25 3 -13 7 -15 23 -7 10 6 19
15 19 21 0 6 -4 8 -9 5 -5 -4 -4 7 2 23 8 23 14 28 24 19 10 -8 13 -6 13 6 0
10 4 15 8 12 5 -3 9 -41 9 -85z m611 55 c31 -10 28 -26 -5 -26 -23 0 -28 5
-30 27 0 14 2 21 5 16 4 -6 17 -13 30 -17z m483 -43 c1 4 2 12 3 17 0 6 6 9
11 8 12 -3 8 -20 -7 -29 -6 -4 -7 -12 -4 -18 4 -6 5 -11 3 -11 -6 0 -47 69
-47 78 0 4 9 -6 20 -23 11 -16 20 -27 21 -22z m-892 -13 c0 -10 -3 -8 -9 5
-12 27 -12 43 0 25 5 -8 9 -22 9 -30z m238 24 c9 17 11 17 17 1 10 -27 -3 -60
-32 -78 -22 -14 -23 -17 -7 -15 17 3 20 -3 19 -37 -1 -46 -7 -82 -16 -91 -4
-3 -17 3 -29 15 -12 11 -25 18 -29 16 -4 -3 -10 7 -13 20 -2 14 0 28 5 31 5 3
8 11 7 17 -3 25 1 38 11 32 6 -3 10 3 10 14 0 11 8 37 17 56 14 29 19 33 24
19 5 -17 6 -17 16 0z m-52 -14 c-3 -5 -11 -10 -16 -10 -6 0 -7 5 -4 10 3 6 11
10 16 10 6 0 7 -4 4 -10z m-148 -22 c-3 -8 -6 -5 -6 6 -1 11 2 17 5 13 3 -3 4
-12 1 -19z m20 -10 c-3 -7 -5 -2 -5 12 0 14 2 19 5 13 2 -7 2 -19 0 -25z m236
17 c-3 -9 -1 -15 5 -13 5 2 11 -1 13 -7 4 -15 23 -33 30 -30 9 6 59 -52 59
-68 0 -9 5 -17 10 -19 11 -3 21 -38 24 -78 1 -22 -3 -25 -35 -26 -19 0 -40 -4
-46 -7 -7 -4 -14 -3 -18 3 -4 6 -10 8 -14 5 -5 -2 -6 7 -3 20 2 14 8 25 13 25
5 0 9 7 9 15 0 8 8 15 18 15 13 0 14 2 3 9 -8 5 -24 8 -37 6 -13 -1 -24 1 -25
4 0 3 -2 15 -4 26 -1 11 -4 36 -6 55 -1 19 -7 41 -13 48 -7 10 -5 16 5 23 19
12 19 11 12 -6z m978 -4 c6 10 9 8 9 -9 0 -13 -4 -21 -9 -18 -5 4 -12 0 -14
-6 -4 -8 -6 -7 -6 4 -1 9 -4 25 -7 35 -5 17 -5 17 6 -1 10 -15 14 -16 21 -5z
m448 -26 c0 -5 -4 -3 -9 5 -5 8 -9 22 -9 30 0 16 17 -16 18 -35z m-784 14 c-5
-16 -4 -19 5 -14 8 5 11 4 6 -3 -3 -6 -2 -13 4 -17 5 -3 9 -25 8 -48 l-1 -42
-6 45 c-4 33 -10 44 -21 42 -8 -2 -12 0 -8 3 4 4 3 15 -2 25 -9 18 -4 30 12
30 5 0 6 -10 3 -21z m-789 -3 c10 -8 16 -18 11 -22 -4 -4 -7 -2 -7 4 0 7 -13
12 -30 12 -16 0 -30 5 -30 10 0 15 33 12 56 -4z m-541 -6 c-3 -5 -21 -10 -38
-10 -24 0 -28 3 -17 10 20 13 63 13 55 0z m1275 -5 c7 -9 8 -15 2 -15 -5 0
-12 7 -16 15 -3 8 -4 15 -2 15 2 0 9 -7 16 -15z m95 5 c3 -5 1 -10 -4 -10 -6
0 -11 5 -11 10 0 6 2 10 4 10 3 0 8 -4 11 -10z m-928 -16 c-3 -3 -12 -4 -19
-1 -8 3 -5 6 6 6 11 1 17 -2 13 -5z m1238 -14 c3 -5 1 -10 -4 -10 -6 0 -11 5
-11 10 0 6 2 10 4 10 3 0 8 -4 11 -10z m450 0 c3 -5 1 -10 -4 -10 -6 0 -11 5
-11 10 0 6 2 10 4 10 3 0 8 -4 11 -10z m-1855 -8 c-23 -4 -24 -5 -5 -13 17 -6
16 -8 -9 -8 -24 -1 -27 1 -16 14 7 8 22 14 34 14 18 -2 17 -2 -4 -7z m1028
-28 c-3 -14 -5 -12 -10 9 -3 19 -2 25 4 19 6 -6 8 -18 6 -28z m749 4 c-3 -7
-5 -2 -5 12 0 14 2 19 5 13 2 -7 2 -19 0 -25z m128 -13 c1 -10 19 -55 36 -87
13 -26 -13 -23 -29 2 -10 17 -16 18 -33 10 -11 -6 -17 -14 -15 -18 3 -5 0 -14
-5 -22 -8 -12 -9 -11 -7 5 2 14 -2 20 -14 19 -10 -1 -15 2 -12 7 3 5 14 9 26
9 20 0 20 1 3 26 -17 27 -12 49 6 24 8 -12 10 -10 6 8 -5 23 7 31 17 10 3 -7
3 3 0 22 -4 31 -3 33 8 15 7 -11 13 -24 13 -30z m-1744 23 c0 -7 2 -21 4 -30
2 -10 -2 -18 -8 -18 -9 0 -9 -2 -1 -8 7 -4 0 -16 -20 -32 -17 -13 -25 -17 -17
-7 7 9 10 17 5 17 -14 0 -34 49 -22 56 5 3 7 12 4 20 -4 10 3 14 24 14 17 0
30 -5 31 -12z m896 -3 c0 -8 -4 -12 -9 -9 -5 3 -6 10 -3 15 9 13 12 11 12 -6z
m-1013 -66 c6 -46 4 -65 -7 -78 -8 -9 -18 -23 -22 -31 -8 -13 -6 -13 8 -2 26
22 35 6 31 -53 -2 -30 0 -55 5 -55 5 0 11 -26 15 -57 3 -32 8 -84 12 -116 6
-50 3 -61 -17 -91 -27 -40 -71 -56 -111 -41 -15 6 -18 2 -18 -23 0 -22 6 -31
21 -35 15 -4 20 -11 15 -21 -3 -9 -9 -24 -12 -33 -5 -15 -4 -16 5 -3 9 13 11
13 11 -2 0 -24 -42 -24 -62 0 -18 19 -17 43 0 85 15 36 15 37 -2 37 -15 0 -24
17 -36 67 -6 27 -3 36 22 62 16 17 27 35 23 41 -3 5 -2 10 3 10 5 0 14 11 20
25 9 20 9 23 -4 18 -14 -5 -17 14 -4 27 3 3 16 29 30 58 28 61 35 68 55 52 11
-9 15 -9 15 -1 0 26 -33 24 -55 -3 -17 -22 -28 -27 -44 -21 -35 11 -46 47 -28
85 9 17 14 37 11 43 -2 7 7 24 21 37 24 23 27 24 36 7 12 -21 29 -23 29 -3 0
8 6 17 13 19 7 3 5 6 -5 6 -20 1 -24 31 -6 49 18 18 25 6 32 -59z m903 49 c-3
-8 -6 -5 -6 6 -1 11 2 17 5 13 3 -3 4 -12 1 -19z m-960 -22 c-2 -6 -12 -13
-23 -15 -15 -3 -16 -1 -6 11 6 8 9 18 5 22 -4 4 1 4 10 0 10 -3 16 -12 14 -18z
m1439 1 c3 -21 -12 -22 -32 -3 -19 20 -18 23 8 21 12 -1 22 -9 24 -18z m-1796
3 c0 -6 -16 -25 -35 -43 -19 -17 -35 -38 -35 -46 0 -18 -46 -61 -68 -62 -34
-3 -47 3 -69 27 -23 26 -32 84 -12 84 5 0 7 4 4 10 -4 6 1 7 11 3 12 -4 15 -3
10 6 -6 9 -2 12 10 11 11 -1 21 -1 24 0 3 1 23 3 44 6 22 2 41 6 44 9 10 10
72 5 72 -5z m40 0 c0 -5 -8 -10 -17 -10 -15 0 -16 2 -3 10 19 12 20 12 20 0z
m1438 -15 c-3 -3 -9 2 -12 12 -6 14 -5 15 5 6 7 -7 10 -15 7 -18z m-458 -31
l0 -47 -35 39 c-19 21 -34 41 -35 44 0 3 16 7 35 8 l35 3 0 -47z m397 24 c-3
-8 -6 -5 -6 6 -1 11 2 17 5 13 3 -3 4 -12 1 -19z m-94 -13 c-3 -9 -8 -14 -10
-11 -3 3 -2 9 2 15 9 16 15 13 8 -4z m871 -1 c3 -8 2 -12 -4 -9 -6 3 -10 10
-10 16 0 14 7 11 14 -7z m-722 -24 c-3 -23 0 -30 12 -30 9 0 16 8 17 18 0 11
2 12 6 4 8 -21 -17 -44 -33 -31 -15 12 -19 69 -6 69 5 0 7 -13 4 -30z m-1225
-15 c18 -18 11 -94 -10 -110 -8 -5 -12 -16 -10 -22 6 -17 -20 -53 -48 -67 -12
-6 -37 -33 -56 -61 -51 -75 -66 -91 -71 -77 -2 7 -10 12 -18 12 -8 0 -14 3
-14 7 0 6 73 122 93 148 18 23 57 86 57 92 0 14 44 93 52 93 5 0 16 -7 25 -15z
m386 6 c5 -1 6 -5 3 -9 -3 -5 4 -16 15 -25 26 -23 26 -95 -1 -130 -14 -17 -17
-28 -9 -32 5 -4 8 -13 5 -21 -3 -8 -2 -14 2 -14 13 0 13 -52 1 -67 -9 -10 -9
-20 -1 -37 9 -20 7 -27 -12 -45 -12 -12 -28 -21 -35 -21 -7 0 -9 -4 -6 -10 3
-5 1 -10 -4 -10 -6 0 -11 7 -11 15 0 8 -5 15 -11 15 -5 0 -7 5 -4 10 3 6 2 10
-4 10 -6 0 -13 16 -17 35 -7 41 -10 42 -34 13 l-19 -23 6 22 c3 13 21 30 44
40 21 10 39 24 39 31 0 6 3 12 8 12 4 0 13 12 20 27 9 20 9 24 0 15 -17 -17
-74 -15 -104 4 -22 15 -64 88 -64 112 0 5 11 19 25 32 13 12 22 27 19 31 -3 5
1 7 8 4 7 -3 33 1 58 8 25 8 52 13 60 11 8 -1 19 -3 23 -3z m-532 -31 c35 -34
33 -58 -9 -102 -19 -21 -29 -25 -43 -18 -10 6 -28 10 -41 10 -27 0 -52 46 -42
76 24 67 87 83 135 34z m2189 0 c0 -3 -12 -6 -26 -6 -24 -2 -25 -1 -7 16 16
15 32 10 33 -10z m-943 -7 c1 -22 -1 -24 -8 -10 -6 9 -7 22 -4 27 9 14 10 13
12 -17z m58 17 c3 -5 2 -10 -4 -10 -5 0 -13 5 -16 10 -3 6 -2 10 4 10 5 0 13
-4 16 -10z m482 4 c-3 -3 -12 -4 -19 -1 -8 3 -5 6 6 6 11 1 17 -2 13 -5z m414
-37 c-10 -9 -11 -8 -5 6 3 10 9 15 12 12 3 -3 0 -11 -7 -18z m-788 -7 c-3 -11
-7 -20 -9 -20 -2 0 -4 9 -4 20 0 11 4 20 9 20 5 0 7 -9 4 -20z m-27 1 c-2 -3
-7 -24 -10 -45 -4 -21 -9 -49 -12 -62 -4 -15 0 -29 10 -39 19 -19 21 -88 4
-103 -25 -20 -83 -25 -97 -8 -7 9 -17 13 -22 10 -5 -3 -9 0 -9 5 0 6 6 11 13
11 9 0 8 3 -1 9 -10 6 -4 10 20 15 66 12 83 36 63 89 -4 9 -3 17 2 17 5 0 9
15 8 33 0 17 3 37 8 44 5 7 6 16 3 21 -3 5 1 9 9 9 8 0 13 -3 11 -6z m-46 -17
c0 -8 -5 -12 -10 -9 -6 4 -8 11 -5 16 9 14 15 11 15 -7z m-592 -27 c23 -7 40
-15 37 -18 -3 -3 2 -6 10 -6 8 0 13 2 10 5 -11 11 27 32 60 32 30 0 39 -5 56
-35 12 -19 28 -35 36 -35 9 0 13 -6 9 -15 -3 -8 -1 -15 3 -15 5 0 7 -9 4 -20
-3 -12 -8 -18 -11 -16 -2 3 -13 -9 -22 -27 -24 -44 -57 -54 -103 -32 -21 9
-46 15 -56 12 -15 -3 -18 -1 -14 11 4 10 2 13 -5 8 -7 -4 -18 -3 -26 1 -14 8
-16 12 -16 34 0 5 -4 8 -9 5 -5 -3 -20 6 -35 21 -25 24 -31 41 -27 72 2 7 -2
11 -6 8 -5 -3 -15 -1 -23 4 -12 7 -11 8 5 6 11 -1 25 -6 31 -10 7 -4 14 0 18
8 7 18 18 18 74 2z m727 -7 c4 -6 -6 -10 -22 -10 -22 0 -25 2 -13 10 19 12 27
12 35 0z m495 -3 c0 -7 -5 -18 -11 -24 -5 -5 -18 -25 -27 -44 -10 -20 -27 -36
-42 -39 -17 -4 -21 -8 -12 -14 19 -11 14 -57 -8 -81 -17 -18 -19 -27 -10 -49
14 -38 13 -44 -9 -56 -26 -13 -49 -3 -54 23 -4 18 -5 17 -6 -5 -1 -30 -26 -48
-69 -51 -25 -2 -27 -6 -28 -46 0 -31 -6 -48 -19 -57 -15 -11 -16 -17 -7 -26 7
-7 12 -22 12 -35 0 -16 6 -23 20 -23 22 0 48 -34 52 -70 2 -16 -4 -27 -19 -35
-30 -16 -18 -27 14 -12 20 9 31 7 58 -7 37 -20 48 -46 35 -81 -9 -25 -43 -41
-61 -29 -8 4 -9 -1 -4 -17 4 -13 8 -24 9 -24 39 -15 60 -31 76 -57 28 -46 25
-63 -15 -87 -19 -11 -35 -16 -35 -11 0 6 5 10 10 10 6 0 10 5 10 11 0 7 -14
10 -37 7 -31 -4 -38 -1 -52 24 -11 20 -24 28 -43 28 -16 0 -33 9 -41 21 -15
20 -15 20 -40 -5 -15 -14 -34 -26 -44 -26 -32 0 -66 25 -74 53 -4 16 -3 25 2
21 9 -5 29 36 29 62 0 11 -9 13 -38 8 -29 -4 -43 -1 -61 14 -23 18 -24 21 -11
66 14 51 37 64 81 47 43 -16 61 -40 54 -72 -6 -25 -4 -29 15 -29 30 0 70 -47
71 -84 1 -28 2 -26 12 14 l12 45 -35 12 c-36 13 -60 37 -60 61 0 23 38 69 63
76 19 4 24 13 25 41 1 19 -2 35 -7 35 -15 0 -22 32 -10 46 9 11 6 14 -19 14
-17 0 -43 5 -57 10 -24 9 -30 7 -48 -17 -12 -15 -20 -38 -18 -51 7 -57 -42
-108 -73 -76 -19 18 -30 18 -22 -1 7 -20 -12 -72 -30 -79 -9 -3 -14 -20 -14
-45 0 -23 -7 -46 -16 -55 -18 -19 -65 -21 -82 -4 -17 17 -15 63 3 78 12 10 15
10 15 -1 0 -10 3 -10 8 -3 4 7 16 14 27 17 19 4 19 5 -1 6 -11 0 -29 10 -38
20 -16 17 -16 25 -6 58 16 49 30 66 44 54 6 -5 21 -12 34 -16 21 -6 22 -4 16
19 -4 16 -1 32 7 42 30 36 8 62 -24 29 -43 -43 -101 -19 -95 39 2 23 9 32 25
34 18 3 21 8 16 35 -3 19 2 44 11 62 19 37 10 47 -14 15 -27 -36 -33 -20 -7
19 20 29 25 31 62 26 22 -3 48 -13 58 -23 18 -16 18 -15 12 9 -7 27 6 43 40
52 16 4 15 5 -6 6 -15 0 -32 8 -39 16 -18 21 10 51 53 58 59 9 85 -25 52 -69
-20 -26 -19 -32 8 -36 18 -2 23 -11 28 -48 4 -25 2 -50 -3 -56 -5 -7 -33 -11
-68 -9 -51 2 -60 0 -65 -16 -4 -11 -15 -23 -25 -29 -15 -8 -16 -14 -7 -33 8
-18 19 -23 44 -23 40 1 41 4 8 16 -14 5 -25 13 -25 17 1 14 24 39 48 52 21 11
27 9 58 -24 19 -20 34 -32 34 -26 0 6 14 20 30 30 30 18 30 18 10 36 -23 20
-25 46 -9 78 24 45 67 50 105 12 31 -31 45 -33 17 -2 -25 27 -39 67 -23 67 6
0 8 5 5 11 -10 14 25 38 56 39 14 0 34 -7 45 -15 23 -18 34 -19 34 -3 0 6 7
19 16 29 15 17 15 19 0 34 -18 19 -21 51 -5 61 6 3 15 1 19 -5 5 -9 10 -8 20
4 8 10 25 15 44 13 25 -2 30 1 28 15 -2 10 3 17 13 17 8 0 15 -6 15 -13z m184
1 c-3 -4 -14 -13 -26 -19 -16 -9 -19 -8 -13 2 6 8 4 11 -7 7 -8 -4 -21 -2 -29
4 -10 7 -5 8 19 5 17 -2 32 -1 32 3 0 4 7 7 15 7 8 0 12 -4 9 -9z m91 -8 c-3
-5 -2 -10 3 -10 13 0 11 -84 -2 -92 -7 -5 -7 -8 3 -8 11 0 11 -3 1 -15 -10
-12 -9 -15 6 -16 12 0 14 -3 6 -6 -10 -4 -10 -8 0 -21 10 -14 8 -14 -7 1 -14
12 -20 32 -21 67 0 27 3 47 8 44 4 -3 8 -1 8 5 0 5 -4 12 -9 15 -5 4 -8 14 -6
24 5 23 4 22 11 22 3 0 2 -4 -1 -10z m-910 -21 c-10 -15 -25 -10 -19 6 4 8 10
12 15 9 5 -3 7 -10 4 -15z m-52 -19 c3 -11 2 -22 -2 -24 -4 -3 -8 6 -9 20 -2
29 4 31 11 4z m351 14 c24 -9 20 -27 -13 -58 -23 -22 -35 -27 -56 -22 -28 7
-51 46 -42 70 7 16 78 23 111 10z m144 -6 c-7 -19 -38 -22 -38 -4 0 10 9 16
21 16 12 0 19 -5 17 -12z m1017 -8 c-10 -11 -20 -18 -23 -15 -7 6 18 35 31 35
5 0 2 -9 -8 -20z m-2900 -11 c5 -13 2 -25 -6 -30 -15 -9 -42 9 -33 22 3 5 0 9
-6 9 -6 0 -8 5 -5 10 11 18 43 11 50 -11z m1349 -14 c-7 -18 -17 -20 -11 -2 2
6 -3 18 -12 25 -14 11 -13 12 6 2 14 -6 20 -16 17 -25z m846 25 c0 -5 -7 -10
-16 -10 -8 0 -12 5 -9 10 3 6 10 10 16 10 5 0 9 -4 9 -10z m-2140 -10 c0 -5
-5 -10 -11 -10 -5 0 -7 5 -4 10 3 6 8 10 11 10 2 0 4 -4 4 -10z m2080 -22 c-1
-44 -13 -58 -50 -58 -21 0 -43 7 -50 15 -15 18 -14 20 30 39 43 19 70 20 70 4z
m-960 -20 c0 -4 -4 -8 -9 -8 -6 0 -12 4 -15 8 -3 5 1 9 9 9 8 0 15 -4 15 -9z
m258 -7 c3 -9 0 -12 -10 -8 -9 3 -20 1 -25 -4 -6 -6 -15 -3 -24 8 -13 16 -12
17 4 4 16 -12 22 -9 18 12 -3 14 32 3 37 -12z m-1218 -11 c12 -22 5 -104 -11
-149 -6 -14 -11 -52 -11 -84 -1 -39 -6 -61 -15 -64 -7 -3 -13 -11 -13 -19 0
-8 -5 -14 -11 -14 -5 0 -8 -4 -5 -8 7 -12 -37 -10 -52 3 -50 39 -74 87 -50
101 7 5 8 3 3 -5 -5 -10 -2 -9 13 0 36 23 59 109 30 109 -8 1 -7 5 4 13 9 7
20 26 24 41 4 19 11 25 21 21 11 -3 13 -1 9 10 -3 8 -1 15 5 15 5 0 15 11 21
25 14 30 24 32 38 5z m520 5 c0 -8 -4 -15 -10 -15 -5 0 -10 7 -10 15 0 8 5 15
10 15 6 0 10 -7 10 -15z m2100 5 c11 -7 12 -12 3 -21 -13 -13 -33 -4 -33 17 0
16 9 18 30 4z m-1474 -37 c-3 -4 -6 -1 -6 6 0 7 -4 9 -10 6 -6 -4 -7 1 -3 11
6 15 7 15 15 -1 6 -9 7 -19 4 -22z m-186 21 c0 -8 -19 -13 -24 -6 -3 5 1 9 9
9 8 0 15 -2 15 -3z m1115 -4 c13 -21 -6 -80 -30 -96 -46 -30 -115 9 -115 65 0
17 6 21 29 21 17 0 32 4 35 8 7 12 74 14 81 2z m-547 -12 c22 -22 14 -58 -15
-69 -14 -5 -34 -8 -42 -7 -22 4 -25 39 -6 63 9 11 14 13 10 5 -3 -9 -1 -8 7 3
15 20 29 22 46 5z m-568 -14 c0 -8 -19 -13 -24 -6 -3 5 1 9 9 9 8 0 15 -2 15
-3z m128 -12 c45 -6 42 -17 -22 -69 -19 -16 -39 -17 -34 -1 3 7 -1 23 -8 36
-16 31 -7 56 15 46 9 -4 31 -9 49 -12z m818 -17 c18 -28 12 -57 -18 -85 -20
-18 -20 -18 10 -34 28 -14 30 -14 35 3 7 30 64 55 93 42 49 -22 20 -111 -36
-111 -18 0 -34 8 -44 22 -11 15 -16 17 -16 8 0 -21 12 -35 33 -43 25 -10 18
-48 -12 -63 -23 -12 -23 -12 -3 -23 41 -22 40 -91 -1 -91 -15 0 -27 11 -37 33
-9 20 -22 31 -33 31 -32 -3 -17 40 16 46 28 5 26 6 -29 35 -53 27 -59 33 -62
66 -3 33 0 38 25 47 25 9 26 11 6 11 -13 1 -32 10 -42 20 -11 11 -23 16 -27
13 -21 -18 32 56 54 76 33 29 67 28 88 -3z m-1309 1 c10 -17 80 -61 158 -101
36 -18 69 -43 82 -63 12 -18 25 -33 30 -32 4 0 9 -8 11 -20 2 -12 -2 -20 -12
-20 -8 0 -17 -9 -21 -20 -8 -24 -58 -50 -85 -43 -13 3 -20 0 -21 -8 -3 -71
-22 -102 -67 -114 -15 -4 -28 -6 -30 -5 -1 0 -10 -7 -19 -15 -13 -13 -18 -14
-24 -3 -5 7 -9 9 -9 4 0 -5 -11 1 -25 14 -17 16 -23 30 -19 43 4 13 2 17 -5
13 -17 -11 -13 22 6 55 17 29 33 38 33 18 0 -6 7 -3 16 5 15 16 12 36 -7 36
-6 0 -8 -4 -4 -9 3 -6 -3 -9 -14 -8 -11 1 -18 3 -16 6 3 2 0 10 -6 18 -9 9 -8
13 0 13 6 0 11 4 11 10 0 5 -7 7 -15 4 -14 -6 -20 10 -16 43 1 7 -4 27 -12 45
-7 18 -12 39 -11 46 1 6 2 19 3 28 0 9 7 14 14 11 6 -2 11 -10 10 -16 -2 -6 1
-10 6 -8 14 3 71 -63 87 -103 19 -44 62 -90 79 -84 7 3 16 0 21 -7 5 -8 3 -10
-7 -4 -11 6 -11 5 -2 -5 6 -7 16 -9 22 -6 11 7 -22 64 -61 105 -83 88 -118
136 -116 163 2 29 21 37 35 14z m360 -8 c12 -10 12 -35 -2 -78 -4 -11 -2 -20
4 -20 14 0 -20 -34 -42 -43 -9 -3 -23 0 -31 8 -7 8 -16 12 -19 9 -3 -4 -18 5
-33 19 -15 14 -31 24 -35 21 -11 -6 -109 44 -109 56 0 16 19 21 40 10 13 -7
20 -7 20 0 0 15 60 13 60 -2 1 -8 7 -5 15 6 11 15 17 17 29 7 11 -9 16 -9 22
0 4 8 3 9 -4 5 -7 -4 -12 -5 -12 -1 0 3 10 10 23 15 23 9 54 4 74 -12z m-644
-60 c11 10 16 7 26 -14 6 -15 9 -35 5 -46 -4 -14 -2 -18 5 -14 11 7 27 -60 24
-103 -2 -14 12 -44 33 -72 35 -48 43 -97 16 -92 -6 2 -12 -1 -12 -7 0 -5 -7
-7 -16 -3 -13 5 -13 7 -2 14 10 7 9 9 -4 9 -20 0 -24 -15 -7 -26 8 -4 3 -12
-12 -20 -19 -10 -20 -13 -6 -14 9 0 17 -4 17 -10 0 -15 -62 -22 -107 -12 -23
5 -45 6 -50 2 -4 -4 -19 -11 -33 -15 -14 -3 -20 -3 -13 2 8 6 9 14 3 23 -6 8
-9 22 -9 30 1 13 1 13 6 0 7 -16 29 -40 37 -40 3 0 3 7 0 15 -7 17 11 21 21 5
8 -13 42 -13 50 0 4 6 -1 7 -11 3 -11 -4 -15 -2 -13 6 3 7 8 12 13 11 5 -1 12
3 15 9 4 6 12 7 21 0 13 -8 13 -10 0 -20 -12 -9 -11 -10 5 -4 11 4 27 9 36 12
11 3 15 12 12 24 -3 10 -10 16 -17 13 -6 -3 -3 1 7 9 13 11 27 13 47 7 26 -7
28 -6 25 13 -3 12 -18 35 -35 50 -35 31 -61 30 -156 -4 -59 -22 -176 -91 -182
-107 -2 -6 8 -23 22 -37 25 -25 25 -29 -6 -26 -20 2 -21 0 -12 -23 5 -14 9
-14 22 -4 13 11 14 10 10 -2 -2 -8 6 -23 19 -33 42 -34 29 -79 -33 -107 -50
-23 -70 -24 -102 -7 -23 13 -52 58 -52 81 0 15 31 34 52 31 19 -3 31 32 15 42
-7 4 -23 6 -37 5 -14 -2 -20 1 -14 5 6 4 11 19 11 33 0 48 3 60 13 60 6 0 10
-7 10 -16 0 -8 5 -12 10 -9 6 4 8 10 5 15 -3 5 2 13 11 18 9 5 15 12 15 15 -5
36 24 37 33 2 l6 -24 59 38 c33 21 88 48 123 61 35 13 65 25 67 27 3 2 -6 14
-18 27 -18 19 -22 33 -20 77 3 71 19 135 30 118 6 -10 11 -10 22 -1z m2384 -8
c3 -11 9 -20 14 -20 5 0 9 -10 9 -22 -1 -22 -1 -22 -11 -3 -6 11 -23 30 -38
42 l-26 23 23 0 c15 0 26 -7 29 -20z m-337 -31 c0 -14 -26 -11 -39 5 -9 11 -6
12 14 8 14 -2 25 -8 25 -13z m-1880 -8 c0 -5 3 -17 7 -27 5 -13 3 -16 -10 -11
-9 3 -17 2 -17 -3 0 -6 -8 -10 -17 -9 -11 0 -13 3 -5 6 6 2 12 13 12 22 0 10
3 21 7 24 9 10 23 9 23 -2z m1665 -61 c3 -5 1 -10 -4 -10 -6 0 -11 5 -11 10 0
6 2 10 4 10 3 0 8 -4 11 -10z m-363 -39 c16 -27 17 -36 6 -42 -22 -14 -47 -10
-68 11 -23 23 -25 41 -8 58 21 21 50 9 70 -27z m-820 11 c-7 -2 -12 -8 -12
-13 0 -6 5 -7 10 -4 6 3 10 1 10 -5 0 -20 -25 -4 -28 18 -3 17 0 20 14 15 11
-4 13 -8 6 -11z m158 4 c0 -21 -29 -41 -41 -29 -7 7 -5 16 6 27 20 20 35 21
35 2z m1046 -26 c1 -14 -3 -31 -10 -39 -8 -12 -8 -13 2 -7 7 4 12 1 12 -9 0
-9 -4 -13 -10 -10 -11 7 -14 -8 -3 -19 4 -3 8 -12 9 -19 1 -7 5 -20 9 -29 5
-13 2 -18 -8 -18 -22 0 -32 20 -16 31 8 5 9 9 3 9 -14 0 -15 83 0 92 7 5 7 8
-3 8 -11 0 -11 3 0 17 8 10 9 14 2 10 -6 -4 -15 -2 -18 4 -5 7 0 10 11 7 12
-2 20 -12 20 -28z m546 -17 c24 -30 40 -75 29 -86 -13 -13 -31 0 -25 18 3 8
-4 28 -15 44 -12 16 -21 32 -21 35 0 12 17 6 32 -11z m-1031 -9 c19 -23 -1
-48 -39 -52 -26 -3 -32 1 -38 22 -3 14 -3 30 1 35 10 17 61 13 76 -5z m394 -4
c10 -11 21 -18 24 -15 4 2 8 -11 9 -30 2 -25 -3 -37 -20 -49 -16 -12 -18 -16
-7 -16 9 0 23 -8 33 -19 9 -10 27 -17 39 -16 12 1 14 0 5 -2 -10 -2 -18 -9
-18 -14 0 -6 9 -7 21 -4 16 5 20 3 16 -6 -2 -8 -10 -13 -16 -12 -6 2 -11 -4
-11 -12 0 -9 -11 -27 -25 -41 -20 -20 -34 -25 -65 -23 -26 2 -45 -3 -58 -14
-10 -9 -32 -18 -48 -18 -22 -1 -24 -3 -7 -6 12 -2 27 -10 33 -18 8 -9 19 -11
41 -5 26 8 31 6 45 -22 16 -30 15 -32 -7 -49 -17 -13 -29 -15 -48 -8 -17 7
-27 6 -32 -3 -6 -9 1 -15 22 -19 58 -13 94 -73 69 -118 -12 -24 -43 -27 -102
-9 -44 13 -58 43 -40 90 13 35 -1 37 -16 3 -7 -14 -19 -28 -27 -31 -12 -5 -10
-10 10 -26 33 -26 35 -91 4 -124 -20 -21 -20 -23 -4 -54 12 -23 13 -35 6 -44
-8 -10 -7 -21 4 -42 25 -48 19 -80 -18 -108 -43 -33 -52 -33 -87 5 -28 32 -31
52 -12 99 9 24 8 25 -31 24 -37 -1 -43 2 -59 32 -10 19 -18 39 -18 44 0 16 43
79 58 85 19 7 78 -20 92 -42 11 -17 11 -17 5 2 -4 11 -8 26 -8 33 0 6 -4 12
-9 12 -5 0 -6 11 -2 25 4 17 2 25 -7 25 -7 0 -3 10 11 25 19 20 20 25 7 25
-20 0 -57 47 -57 72 0 27 29 68 49 69 9 0 1 5 -18 12 -25 9 -37 20 -43 42 -11
42 -4 53 43 73 l42 18 -40 12 c-49 15 -60 46 -32 92 15 24 26 30 53 30 36 0
86 -32 86 -55 0 -11 8 -13 30 -9 24 5 35 1 60 -25 l32 -31 -7 29 c-4 19 -1 34
10 44 14 15 14 17 -10 23 -22 5 -25 11 -25 53 0 26 3 51 7 54 13 14 50 7 68
-13z m-1035 1 c0 -5 2 -16 5 -23 4 -9 -2 -14 -15 -15 -20 -2 -29 25 -13 40 9
10 23 9 23 -2z m-540 -27 c0 -8 -4 -12 -10 -9 -5 3 -10 13 -10 21 0 8 5 12 10
9 6 -3 10 -13 10 -21z m1840 16 c11 -7 12 -15 4 -37 -7 -22 -17 -29 -49 -34
-33 -5 -36 -4 -22 6 15 11 16 13 2 19 -20 7 -19 33 3 45 21 13 43 13 62 1z
m-2314 -18 c6 -4 14 -22 17 -39 6 -31 5 -33 -21 -33 -15 0 -34 5 -42 10 -11 7
-11 10 -2 10 7 0 11 3 9 8 -6 10 10 52 20 52 4 0 13 -4 19 -8z m1475 -21 c52
-53 31 -111 -40 -111 -49 0 -66 20 -62 73 4 71 52 88 102 38z m-1029 -23 c-8
-8 -9 -4 -5 13 4 13 8 18 11 10 2 -7 -1 -18 -6 -23z m1280 14 l26 -17 -37 -42
c-29 -32 -41 -39 -54 -31 -33 18 -13 108 23 108 8 0 27 -8 42 -18z m-607 -13
c9 -27 2 -33 -30 -25 -16 4 -25 13 -25 26 0 28 46 28 55 -1z m-880 -23 c12
-12 12 -15 -1 -20 -9 -3 -21 -3 -26 1 -7 3 -8 1 -4 -6 4 -6 0 -14 -11 -17 -10
-3 -28 -10 -40 -16 -11 -6 -26 -7 -32 -4 -6 4 -11 0 -11 -11 0 -16 -1 -16 -17
0 -20 20 -10 35 27 39 14 2 27 5 30 8 6 6 63 39 68 40 2 0 10 -6 17 -14z m569
-2 c9 -24 7 -73 -4 -95 -13 -23 -37 -24 -62 -2 -23 21 -23 39 1 65 11 11 17
26 14 34 -3 10 3 14 20 14 14 0 28 -7 31 -16z m-320 -2 c2 -4 -5 -9 -17 -9
-17 -2 -19 0 -7 7 18 12 18 12 24 2z m-195 -38 c-6 -8 -19 -14 -28 -14 -9 0
-21 -4 -26 -9 -14 -12 -75 -22 -75 -12 0 4 12 13 26 19 20 10 24 10 19 0 -4
-7 0 -5 8 4 8 10 17 15 20 11 4 -3 7 -1 7 7 0 10 4 10 17 -1 9 -8 14 -9 10 -2
-4 6 -1 13 5 16 21 7 30 -4 17 -19z m2201 6 c6 -11 7 -20 2 -20 -10 0 -32 21
-32 32 0 16 19 8 30 -12z m25 -40 c3 -5 1 -10 -4 -10 -6 0 -11 5 -11 10 0 6 2
10 4 10 3 0 8 -4 11 -10z m135 0 c0 -5 -7 -10 -16 -10 -8 0 -12 5 -9 10 3 6
10 10 16 10 5 0 9 -4 9 -10z m-1970 -46 c9 -23 12 -24 27 -13 12 10 15 10 9 2
-4 -7 -3 -13 1 -13 8 0 13 -18 16 -62 1 -19 9 -15 60 31 l27 25 0 -47 c0 -34
4 -47 14 -47 8 0 17 -8 20 -17 9 -30 17 -305 9 -301 -5 2 -24 12 -44 21 -34
15 -37 20 -41 69 -3 29 -5 92 -3 140 2 81 0 88 -19 94 -12 4 -22 2 -24 -6 -3
-7 -13 -21 -23 -31 -12 -12 -14 -19 -6 -22 8 -3 6 -11 -7 -25 -18 -21 -20 -21
-32 -4 -16 21 -17 32 -3 32 6 0 17 6 24 14 12 12 12 15 -2 21 -11 4 -23 -2
-34 -16 -14 -18 -23 -21 -54 -16 -42 7 -78 34 -71 54 3 7 1 13 -3 13 -5 0 -11
6 -14 14 -6 14 9 16 28 4 13 -8 29 2 33 21 2 9 -5 12 -22 9 -24 -5 -24 -4 -8
17 10 13 20 18 23 13 8 -12 37 2 63 31 26 28 44 26 56 -5z m1731 -6 c9 -17 8
-18 -9 -9 -24 13 -38 43 -16 34 8 -3 19 -14 25 -25z m-1951 -27 c-14 -27 -13
-38 3 -18 11 15 12 13 14 -15 1 -17 -2 -38 -8 -45 -9 -9 -8 -13 0 -13 15 0 10
-30 -7 -48 -7 -8 -9 -18 -6 -24 4 -6 2 -8 -4 -4 -6 3 -17 -3 -25 -14 -7 -11
-17 -17 -20 -13 -4 3 -7 2 -7 -4 0 -6 -11 -8 -25 -5 -14 2 -25 9 -25 16 0 6
-5 4 -10 -4 -6 -9 -10 -10 -10 -3 0 7 8 17 18 22 10 7 12 11 4 11 -8 0 2 19
24 45 20 25 31 45 25 45 -17 0 -91 -75 -91 -93 0 -22 -25 -39 -66 -44 -49 -7
-85 3 -78 22 4 11 2 13 -9 9 -40 -15 -39 89 1 126 14 13 15 13 3 -2 -19 -26 3
-29 31 -4 17 17 35 23 58 21 39 -3 152 24 163 39 6 8 10 7 14 -1 3 -10 8 -9
20 2 20 21 26 19 13 -4z m-337 2 c-7 -2 -19 -2 -25 0 -7 3 -2 5 12 5 14 0 19
-2 13 -5z m2507 -27 c0 -22 -11 -25 -50 -17 -32 7 -33 8 -13 15 13 4 28 4 34
0 8 -4 9 -3 5 4 -4 7 -1 12 8 12 9 0 16 -6 16 -14z m-483 -2 c-3 -3 -12 -4
-19 -1 -8 3 -5 6 6 6 11 1 17 -2 13 -5z m538 -4 c4 -6 15 -8 25 -5 10 3 21 1
25 -5 4 -6 13 -9 21 -6 8 3 14 1 14 -4 0 -6 -2 -10 -4 -10 -2 0 -12 -3 -22 -7
-12 -4 -15 -3 -10 5 4 7 3 12 -3 12 -5 0 -11 -4 -13 -8 -4 -12 -88 -2 -88 10
0 5 10 7 23 4 12 -3 16 -3 9 0 -6 3 -10 10 -6 15 7 12 21 11 29 -1z m-112 -37
c-5 -15 -3 -16 8 -5 7 6 20 12 29 11 10 0 11 -2 2 -6 -6 -2 -10 -9 -6 -14 6
-11 -2 -11 -46 -3 l-32 7 23 13 c30 17 29 17 22 -3z m-389 -30 c3 -21 8 -66
11 -99 l7 -62 -45 -15 -45 -15 -7 76 c-3 43 -10 94 -14 115 l-9 37 48 0 c48 0
48 0 54 -37z m-2364 2 c0 -11 -31 -11 -39 -1 -9 10 -6 12 14 8 14 -2 25 -6 25
-7z m2875 5 c4 -6 10 -8 15 -5 5 3 11 1 14 -4 7 -11 -25 -25 -33 -14 -3 5 -17
8 -30 7 -23 -1 -24 -1 -6 12 22 17 32 17 40 4z m-2091 -66 c22 -8 20 -21 -4
-27 -15 -4 -20 0 -20 14 0 21 1 22 24 13z m541 -4 c-3 -5 -12 -10 -18 -10 -7
0 -6 4 3 10 19 12 23 12 15 0z m167 -4 c3 -5 14 -11 23 -12 25 -4 30 -13 11
-20 -22 -8 -43 1 -56 26 -8 16 -8 20 2 18 7 -2 16 -7 20 -12z m-78 -47 c-3 -5
-14 -7 -25 -4 -10 4 -19 2 -19 -2 0 -5 -13 -24 -29 -43 l-29 -35 -12 27 c-11
23 -10 31 4 53 9 14 25 25 36 25 11 0 20 5 20 10 0 6 13 4 30 -5 17 -9 28 -20
24 -26z m1471 31 c8 -13 -5 -13 -25 0 -13 8 -13 10 2 10 9 0 20 -4 23 -10z
m-2615 -32 c0 -13 -32 -6 -37 9 -3 7 3 9 16 6 12 -3 21 -10 21 -15z m-356 -6
c2 -4 -4 -8 -14 -8 -10 0 -16 4 -14 8 3 4 9 8 14 8 5 0 11 -4 14 -8z m1595
-27 c7 -7 14 -31 14 -52 l1 -38 33 33 c18 17 38 32 45 32 28 0 58 -31 58 -60
0 -54 -73 -79 -121 -41 -24 19 -25 19 -48 0 -13 -10 -29 -19 -37 -19 -8 0 -20
-16 -28 -35 -17 -40 -35 -50 -71 -41 -48 12 -88 118 -50 132 8 3 35 -6 61 -20
25 -14 41 -20 35 -12 -27 32 -22 63 16 104 39 42 61 46 92 17z m-1599 1 c0 -9
-30 -14 -35 -6 -4 6 3 10 14 10 12 0 21 -2 21 -4z m1780 -11 c10 -13 9 -15 -9
-15 -12 0 -21 6 -21 15 0 8 4 15 9 15 5 0 14 -7 21 -15z m-1508 -43 c-6 -2 -8
-10 -5 -19 4 -10 2 -14 -4 -10 -19 12 -22 47 -5 56 13 7 18 6 21 -7 2 -9 -1
-18 -7 -20z m-202 20 c0 -5 -11 -19 -25 -32 -28 -26 -33 -16 -9 18 15 22 34
30 34 14z m2850 -27 c0 -8 -4 -15 -9 -15 -5 0 -11 7 -15 15 -3 9 0 15 9 15 8
0 15 -7 15 -15z m-995 -16 c8 -12 -34 -97 -51 -103 -17 -6 -54 5 -54 16 0 5
-5 6 -12 2 -6 -4 -8 -3 -4 4 3 6 2 13 -3 17 -14 8 -2 35 15 35 8 0 14 6 14 14
0 8 6 17 13 19 23 10 76 7 82 -4z m-1217 -40 c13 -5 21 -13 17 -18 -3 -5 -1
-12 5 -16 17 -10 11 -51 -10 -78 -12 -15 -21 -30 -22 -34 -1 -20 -28 -44 -64
-59 l-39 -16 19 20 c12 14 16 27 11 39 -6 15 -10 12 -22 -17 -13 -30 -16 -32
-25 -17 -5 10 -13 15 -19 12 -22 -14 2 52 25 67 6 4 14 0 18 -10 6 -16 7 -16
7 1 1 11 9 17 26 17 17 0 23 4 19 14 -3 8 -14 13 -24 11 -13 -3 -17 1 -13 11
7 18 -4 18 -24 -1 -8 -8 -19 -13 -24 -9 -6 3 -16 1 -24 -6 -15 -12 -28 0 -17
16 4 6 15 14 26 17 10 4 16 13 12 22 -3 8 -1 17 4 20 6 4 10 -2 10 -12 0 -14
2 -15 9 -4 5 8 14 10 21 6 10 -6 12 -2 7 16 -6 22 -5 23 8 6 14 -19 32 -6 19
14 -7 11 10 8 64 -12z m162 -17 c0 -15 -2 -15 -10 -2 -13 20 -13 33 0 25 6 -3
10 -14 10 -23z m139 -41 c-3 -6 -10 -7 -18 -2 -7 5 -10 14 -6 21 9 14 29 -2
24 -19z m-213 -39 c-12 -12 -18 8 -10 35 l8 28 4 -28 c2 -16 1 -31 -2 -35z
m933 32 c12 -15 21 -42 22 -63 0 -20 3 -30 6 -22 3 8 18 25 32 37 36 32 81 31
121 -3 27 -23 31 -32 28 -65 -2 -21 1 -38 6 -38 5 0 25 -12 44 -26 28 -22 33
-32 30 -55 -3 -16 -1 -29 4 -29 4 0 8 -5 8 -10 0 -7 -6 -7 -19 0 -11 5 -27 7
-35 4 -25 -10 -85 41 -79 66 5 17 0 20 -26 20 -18 0 -42 5 -53 11 -18 10 -20
9 -15 -5 8 -20 -4 -20 -29 0 -12 10 -15 17 -8 20 9 4 9 11 0 29 -11 25 -26 33
-26 15 0 -15 -49 -32 -71 -25 -33 11 -79 62 -79 88 0 69 97 105 139 51z
m-1364 -4 c-3 -5 1 -10 9 -10 18 0 23 -8 30 -45 6 -32 -11 -66 -52 -102 -28
-26 -47 -29 -59 -10 -11 18 -12 37 -2 37 5 0 9 22 9 50 0 38 5 54 22 70 22 20
54 28 43 10z m460 -10 c3 -5 1 -10 -4 -10 -6 0 -11 5 -11 10 0 6 2 10 4 10 3
0 8 -4 11 -10z m335 -40 c7 -26 7 -51 1 -72 l-9 -33 -2 35 c-1 19 -3 52 -6 73
-5 48 2 47 16 -3z m-965 10 c3 -5 -6 -17 -20 -26 -14 -9 -25 -26 -25 -37 0
-25 -9 -18 -15 13 -3 15 3 29 18 41 25 21 33 23 42 9z m908 -39 c-2 -6 5 -11
14 -11 14 0 14 -3 -5 -20 -26 -24 -32 -25 -32 -3 0 9 -7 24 -16 34 -23 25 -8
44 19 25 12 -8 21 -19 20 -25z m373 -6 c-9 -14 -12 -25 -7 -25 6 0 14 7 19 17
23 41 74 -27 54 -72 -9 -19 -19 -25 -45 -25 -32 0 -33 1 -29 36 3 27 1 35 -8
29 -6 -4 -10 -16 -7 -26 3 -11 0 -19 -8 -19 -7 0 -15 9 -18 21 -7 25 29 89 50
89 13 0 13 -3 -1 -25z m1239 5 c39 -5 97 -11 130 -15 33 -3 75 -8 93 -11 19
-3 32 -1 32 6 0 5 -4 10 -10 10 -5 0 -10 5 -10 10 0 16 23 11 50 -10 20 -16
22 -20 8 -20 -10 0 -18 -4 -18 -10 0 -5 -8 -10 -17 -11 -11 0 -13 -3 -5 -6 6
-2 12 -9 12 -14 0 -4 -8 -5 -17 -2 -12 5 -15 2 -10 -10 4 -10 2 -17 -4 -17 -7
0 -9 10 -5 24 7 28 0 30 -169 46 -205 19 -236 23 -241 31 -7 11 91 11 181 -1z
m-1325 -35 c0 -28 -5 -38 -22 -44 -27 -10 -48 3 -48 30 0 23 26 49 51 49 15 0
19 -7 19 -35z m-350 0 c0 -14 -12 -19 -32 -16 -5 0 -8 -5 -8 -11 0 -7 -5 -5
-11 5 -13 23 -3 37 27 37 15 0 24 -6 24 -15z m555 -25 c3 -5 1 -10 -4 -10 -6
0 -11 5 -11 10 0 6 2 10 4 10 3 0 8 -4 11 -10z m-1522 -39 c-10 -2 -23 -11
-30 -20 -11 -15 -12 -15 -13 1 0 36 10 46 35 34 20 -9 22 -12 8 -15z m518 -25
c7 4 10 2 7 -7 -3 -8 -10 -13 -17 -12 -6 2 -13 -8 -17 -22 -8 -32 -24 -22 -24
14 0 34 9 44 26 30 7 -6 18 -7 25 -3z m1042 -51 c15 -75 14 -80 -15 -83 -19
-2 -36 5 -53 22 -45 45 -24 109 35 103 20 -2 26 -9 33 -42z m175 12 c23 -21
30 -71 12 -82 -6 -4 -8 -10 -5 -14 2 -5 -7 -13 -21 -20 -27 -12 -87 -6 -114
11 -12 8 -11 8 3 4 15 -5 14 0 -7 25 -14 17 -26 36 -26 42 0 16 51 58 61 51 5
-3 9 0 9 6 0 18 61 1 88 -23z m-1458 -65 c3 -2 -4 -11 -15 -19 -13 -10 -16
-17 -8 -20 17 -6 -5 -53 -25 -53 -12 0 -11 4 4 22 l19 22 -29 -22 c-30 -23
-52 -29 -41 -12 3 6 1 10 -6 10 -7 0 -9 -12 -6 -37 3 -21 3 -30 0 -20 -3 11
-11 16 -19 13 -8 -3 -14 0 -14 5 0 6 -9 9 -20 6 -23 -6 -77 38 -57 46 7 3 6 6
-4 6 -9 1 -24 12 -32 25 -15 22 -15 25 -1 30 8 3 32 -3 52 -15 20 -11 29 -18
20 -15 -10 3 -18 1 -18 -4 0 -13 27 -13 35 0 4 6 16 10 28 8 13 -2 21 2 20 10
-4 17 0 15 30 -12 14 -13 23 -27 19 -32 -4 -4 -1 -4 6 0 17 10 15 23 -8 56
-31 43 6 44 70 2z m-350 19 c0 -9 -41 -23 -48 -16 -2 2 -1 8 3 14 8 13 45 15
45 2z m834 -18 c3 -8 1 -11 -5 -8 -15 10 -38 -13 -32 -34 3 -13 -2 -21 -16
-26 -12 -3 -18 -11 -15 -17 4 -6 -3 -8 -17 -6 -31 4 -45 54 -19 68 13 7 20 6
23 -3 2 -7 12 1 23 19 18 32 47 36 58 7z m607 -6 c-10 -9 -11 -8 -5 6 3 10 9
15 12 12 3 -3 0 -11 -7 -18z m459 -29 c0 -10 -7 -18 -15 -18 -18 0 -20 17 -2
23 8 3 6 11 -8 28 l-20 24 23 -19 c12 -11 22 -27 22 -38z m845 32 c3 -6 -1 -7
-9 -4 -18 7 -21 14 -7 14 6 0 13 -4 16 -10z m280 -68 c3 -8 1 -20 -3 -28 -7
-13 -12 -12 -32 4 -13 10 -20 24 -16 30 9 15 44 11 51 -6z m-2321 -24 c-4 -6
-10 -5 -15 3 -14 22 -10 33 6 19 8 -7 12 -17 9 -22z m904 10 c19 -24 24 -75 8
-81 -15 -6 -46 46 -46 77 0 19 23 21 38 4z m-1662 -66 c-15 -15 -16 -14 -16 8
0 20 2 22 10 10 8 -12 10 -12 11 5 0 12 3 15 6 7 3 -8 -2 -21 -11 -30z m852
-7 c-3 -3 -9 2 -12 12 -6 14 -5 15 5 6 7 -7 10 -15 7 -18z m-458 -15 c0 -5 -9
-10 -21 -10 -11 0 -17 5 -14 10 3 6 13 10 21 10 8 0 14 -4 14 -10z"/>
<path d="M940 2670 c0 -5 5 -10 10 -10 6 0 10 5 10 10 0 6 -4 10 -10 10 -5 0
-10 -4 -10 -10z"/>
<path d="M585 2511 c-3 -5 2 -11 10 -15 8 -3 17 -1 20 3 3 5 -2 11 -10 15 -8
3 -17 1 -20 -3z"/>
<path d="M1341 2434 c0 -11 3 -14 6 -6 3 7 2 16 -1 19 -3 4 -6 -2 -5 -13z"/>
<path d="M1139 2403 c-13 -14 -18 -23 -11 -19 10 6 12 0 7 -26 -6 -30 -3 -37
19 -51 32 -22 58 -21 83 1 24 21 16 61 -18 98 -29 31 -50 30 -80 -3z m61 -44
c0 -11 -4 -17 -10 -14 -5 3 -10 15 -10 26 0 11 5 17 10 14 6 -3 10 -15 10 -26z"/>
<path d="M2008 2133 c6 -2 18 -2 25 0 6 3 1 5 -13 5 -14 0 -19 -2 -12 -5z"/>
<path d="M3010 1940 c0 -5 5 -10 11 -10 5 0 7 5 4 10 -3 6 -8 10 -11 10 -2 0
-4 -4 -4 -10z"/>
<path d="M3013 1904 c-16 -7 -5 -34 13 -34 8 0 14 9 14 20 0 20 -5 23 -27 14z"/>
<path d="M3465 2020 c-3 -5 -1 -10 4 -10 6 0 11 5 11 10 0 6 -2 10 -4 10 -3 0
-8 -4 -11 -10z"/>
<path d="M3551 1895 c-1 -17 -3 -18 -12 -5 -8 12 -9 10 -5 -10 3 -14 6 -38 7
-55 1 -24 3 -22 10 15 5 25 7 52 5 60 -2 10 -4 8 -5 -5z"/>
<path d="M3493 1875 c-7 -8 -9 -16 -4 -19 5 -3 12 1 15 10 8 22 4 25 -11 9z"/>
<path d="M3430 1775 c-16 -19 -5 -32 13 -17 8 7 18 8 23 4 4 -4 2 1 -5 11 -16
21 -16 21 -31 2z"/>
<path d="M1757 1586 c-12 -10 -15 -16 -7 -21 13 -8 23 0 26 20 3 18 4 18 -19
1z"/>
<path d="M2710 939 c0 -5 5 -7 10 -4 6 3 10 8 10 11 0 2 -4 4 -10 4 -5 0 -10
-5 -10 -11z"/>
<path d="M2993 911 c-10 -16 -9 -20 10 -25 27 -7 28 -6 13 21 -11 22 -12 22
-23 4z"/>
<path d="M2016 1185 c-4 -13 -2 -14 14 -5 23 13 26 20 6 20 -8 0 -16 -7 -20
-15z"/>
<path d="M3262 982 c-9 -7 -8 -13 8 -27 20 -18 20 -18 20 8 0 28 -6 32 -28 19z"/>
<path d="M3290 913 c0 -12 5 -25 10 -28 13 -8 13 15 0 35 -8 12 -10 11 -10 -7z"/>
<path d="M3315 850 c-3 -5 -1 -10 4 -10 6 0 11 5 11 10 0 6 -2 10 -4 10 -3 0
-8 -4 -11 -10z"/>
<path d="M2810 1098 c0 -19 2 -20 10 -8 13 19 13 30 0 30 -5 0 -10 -10 -10
-22z"/>
<path d="M1700 750 c-9 -6 -10 -10 -3 -10 6 0 15 5 18 10 8 12 4 12 -15 0z"/>
<path d="M1306 132 c-2 -4 2 -15 9 -25 10 -14 15 -15 21 -6 4 7 2 15 -4 17 -7
2 -10 8 -6 13 3 5 1 9 -5 9 -5 0 -12 -3 -15 -8z"/>
<path d="M1585 2790 c3 -5 15 -10 25 -10 10 0 22 5 25 10 4 6 -7 10 -25 10
-18 0 -29 -4 -25 -10z"/>
<path d="M2025 2749 c-4 -6 -5 -13 -2 -16 7 -7 27 6 27 18 0 12 -17 12 -25 -2z"/>
<path d="M2845 2700 c9 -16 18 -30 21 -30 2 0 -2 14 -11 30 -9 17 -18 30 -21
30 -2 0 2 -13 11 -30z"/>
<path d="M634 2713 c11 -11 48 -14 41 -3 -3 5 -16 10 -27 10 -12 0 -18 -3 -14
-7z"/>
<path d="M2825 2640 c-3 -5 -1 -10 4 -10 6 0 11 5 11 10 0 6 -2 10 -4 10 -3 0
-8 -4 -11 -10z"/>
<path d="M3681 2614 c0 -11 3 -14 6 -6 3 7 2 16 -1 19 -3 4 -6 -2 -5 -13z"/>
<path d="M2841 2604 c0 -11 3 -14 6 -6 3 7 2 16 -1 19 -3 4 -6 -2 -5 -13z"/>
<path d="M4095 2559 c-4 -6 -5 -12 -2 -15 2 -3 7 2 10 11 7 17 1 20 -8 4z"/>
<path d="M3411 2527 c-2 -49 95 -178 133 -177 6 0 2 8 -9 16 -11 8 -19 20 -17
25 1 6 -2 8 -7 5 -11 -7 -74 77 -89 119 -6 17 -11 23 -11 12z"/>
<path d="M3495 2460 c3 -5 11 -10 16 -10 6 0 7 5 4 10 -3 6 -11 10 -16 10 -6
0 -7 -4 -4 -10z"/>
<path d="M4123 2418 c-35 -27 -63 -54 -63 -58 0 -5 25 -16 55 -24 30 -9 60
-19 68 -21 10 -4 13 13 15 75 2 44 -1 80 -5 79 -4 0 -36 -23 -70 -51z m41 -54
c22 -22 20 -33 -5 -27 -14 4 -17 8 -9 13 9 6 7 11 -6 19 -11 6 -14 11 -7 11 6
0 19 -7 27 -16z"/>
<path d="M515 2241 c-9 -15 24 -41 43 -34 24 9 33 26 19 35 -17 11 -55 10 -62
-1z"/>
<path d="M0 2201 c0 -57 25 -117 50 -117 26 0 26 12 0 26 -20 11 -28 50 -10
50 6 0 10 -9 10 -20 0 -11 5 -20 10 -20 6 0 10 7 10 15 0 18 16 20 23 3 4 -10
6 -10 6 0 1 7 6 10 12 6 6 -3 15 -1 19 7 6 9 14 2 26 -24 19 -40 14 -58 -11
-37 -9 7 -15 9 -14 4 5 -26 -4 -25 -16 1 l-14 30 6 -29 c4 -19 2 -27 -5 -22
-6 3 -13 3 -16 -2 -2 -4 -21 -7 -41 -7 -43 2 -48 -10 -43 -105 3 -57 6 -66 28
-78 l25 -13 -27 4 c-28 4 -28 3 -28 -49 l0 -54 39 0 c99 0 351 73 351 101 0 8
-119 308 -126 318 -5 6 -153 39 -209 46 l-55 7 0 -41z m250 -36 c7 -8 10 -21
7 -28 -3 -7 4 -19 14 -25 10 -7 19 -17 19 -24 0 -6 -7 -4 -18 5 -20 19 -37 23
-27 7 3 -5 3 -10 -2 -10 -4 0 -18 -3 -31 -6 -18 -5 -25 0 -38 31 -11 28 -12
40 -3 51 15 18 63 18 79 -1z m-125 -185 c3 -6 17 -7 29 -4 17 4 29 -1 43 -19
14 -19 23 -23 35 -16 11 6 19 5 23 -1 3 -5 0 -10 -8 -10 -8 0 -21 -9 -28 -19
-9 -12 -31 -22 -59 -26 l-45 -7 3 49 c3 43 1 46 -12 30 -9 -12 -16 -15 -21 -7
-7 11 11 40 26 40 4 0 11 -5 14 -10z"/>
<path d="M186 2155 c-3 -8 -1 -15 4 -15 6 0 10 7 10 15 0 8 -2 15 -4 15 -2 0
-6 -7 -10 -15z"/>
<path d="M225 2150 c3 -5 8 -10 11 -10 2 0 4 5 4 10 0 6 -5 10 -11 10 -5 0 -7
-4 -4 -10z"/>
<path d="M200 2109 c0 -5 5 -7 10 -4 6 3 10 8 10 11 0 2 -4 4 -10 4 -5 0 -10
-5 -10 -11z"/>
<path d="M160 1953 c0 -6 9 -21 20 -34 15 -18 19 -20 20 -8 0 9 -9 24 -20 34
-11 10 -20 13 -20 8z"/>
<path d="M140 1923 c0 -13 5 -23 10 -23 13 0 13 11 0 30 -8 12 -10 11 -10 -7z"/>
<path d="M4140 2197 c-19 -11 -57 -39 -85 -62 -62 -52 -87 -65 -111 -60 -13 3
-28 -7 -49 -35 -16 -21 -39 -42 -49 -46 -16 -5 -10 -10 31 -26 28 -10 71 -36
96 -58 32 -29 54 -40 77 -40 17 0 29 4 26 9 -3 4 9 7 27 5 17 -2 27 0 21 4
-18 11 -64 83 -64 99 0 20 41 113 50 113 16 0 90 81 90 100 0 25 -15 24 -60
-3z"/>
<path d="M371 2186 c-10 -12 -8 -17 8 -25 29 -16 88 -14 95 4 11 31 -80 49
-103 21z"/>
<path d="M3720 2120 c0 -5 5 -10 11 -10 5 0 7 5 4 10 -3 6 -8 10 -11 10 -2 0
-4 -4 -4 -10z"/>
<path d="M590 1956 c0 -9 7 -16 16 -16 9 0 14 5 12 12 -6 18 -28 21 -28 4z"/>
<path d="M888 1913 c6 -2 18 -2 25 0 6 3 1 5 -13 5 -14 0 -19 -2 -12 -5z"/>
<path d="M531 1870 c-18 -16 -20 -20 -6 -20 24 0 56 20 50 31 -9 13 -17 11
-44 -11z"/>
<path d="M735 1870 c-3 -5 1 -10 10 -10 9 0 13 5 10 10 -3 6 -8 10 -10 10 -2
0 -7 -4 -10 -10z"/>
<path d="M4185 1860 c3 -5 8 -10 11 -10 2 0 4 5 4 10 0 6 -5 10 -11 10 -5 0
-7 -4 -4 -10z"/>
<path d="M408 1853 c7 -3 16 -2 19 1 4 3 -2 6 -13 5 -11 0 -14 -3 -6 -6z"/>
<path d="M555 1835 c-16 -7 -34 -11 -39 -7 -5 3 -6 0 -2 -6 4 -7 2 -12 -5 -12
-7 0 -10 -2 -8 -5 7 -7 71 17 87 33 17 15 6 14 -33 -3z"/>
<path d="M440 1810 c-8 -5 -13 -10 -10 -11 52 -8 60 -7 46 7 -17 17 -17 16
-36 4z"/>
<path d="M278 1793 c7 -3 16 -2 19 1 4 3 -2 6 -13 5 -11 0 -14 -3 -6 -6z"/>
<path d="M640 1775 c-14 -8 -33 -14 -42 -15 -23 0 -23 -5 2 -30 11 -11 17 -26
14 -34 -3 -8 -1 -17 5 -21 7 -4 11 3 11 17 0 13 9 40 20 61 11 20 19 37 18 37
-2 -1 -14 -7 -28 -15z"/>
<path d="M340 1752 c0 -4 5 -13 12 -20 6 -6 11 -24 10 -40 0 -25 6 -32 54 -55
54 -27 73 -25 33 3 -31 22 -39 50 -23 88 l13 32 -50 0 c-27 0 -49 -4 -49 -8z"/>
<path d="M0 1711 c0 -21 8 -35 28 -49 34 -24 59 -37 51 -28 -4 4 -3 23 1 42 8
33 6 35 -21 41 -16 3 -32 10 -35 14 -11 19 -24 8 -24 -20z"/>
<path d="M622 1655 c4 -21 -13 -51 -39 -68 l-28 -17 27 6 c51 11 154 -40 142
-71 -12 -29 9 -38 22 -9 7 16 21 39 29 51 16 21 16 21 -15 17 -23 -4 -41 1
-66 18 -19 13 -34 25 -34 28 0 3 -9 16 -20 30 -11 14 -19 21 -18 15z"/>
<path d="M3686 1591 c-3 -5 5 -16 19 -25 21 -14 24 -14 19 -1 -4 8 -13 15 -21
15 -8 0 -11 5 -8 10 3 6 4 10 1 10 -3 0 -7 -4 -10 -9z"/>
<path d="M68 1527 c-15 -12 -37 -29 -50 -38 -28 -21 -22 -29 26 -31 40 -1 67
-22 41 -32 -22 -8 -19 -25 4 -19 14 4 20 17 24 61 8 73 -6 91 -45 59z"/>
<path d="M475 1483 c-4 -32 -18 -77 -31 -100 -28 -48 -27 -49 21 -29 32 14 33
17 25 45 -9 31 -2 70 19 109 8 16 7 21 -5 26 -9 3 -17 6 -19 6 -2 0 -7 -26
-10 -57z"/>
<path d="M710 1410 c-8 -5 -31 -10 -50 -10 -60 -1 -67 -17 -11 -22 86 -8 138
-79 128 -171 -8 -64 -26 -90 -82 -117 -25 -12 -43 -26 -40 -30 8 -13 -11 -56
-34 -77 -19 -18 -19 -18 10 -18 24 0 31 5 35 25 22 101 97 156 165 120 15 -8
19 -7 19 4 0 13 27 31 43 28 4 -1 7 3 7 8 0 6 -14 13 -31 17 -37 7 -62 49 -38
64 10 6 10 9 2 9 -15 0 -17 26 -3 35 15 9 50 -4 50 -20 0 -7 6 -15 13 -18 21
-7 46 4 41 18 -3 7 0 16 5 20 6 3 8 11 5 17 -4 7 -2 8 4 4 6 -3 16 2 21 13 9
17 8 19 -14 16 -14 -1 -30 4 -36 11 -7 8 -21 11 -34 8 -28 -7 -84 18 -116 52
-24 26 -36 29 -59 14z m186 -97 c-10 -10 -19 5 -10 18 6 11 8 11 12 0 2 -7 1
-15 -2 -18z"/>
<path d="M976 1357 c3 -10 9 -15 12 -12 3 3 0 11 -7 18 -10 9 -11 8 -5 -6z"/>
<path d="M302 1270 c0 -14 2 -19 5 -12 2 6 2 18 0 25 -3 6 -5 1 -5 -13z"/>
<path d="M287 1208 c-15 -33 -51 -58 -82 -58 -8 0 -12 -8 -10 -18 3 -16 -4
-17 -66 -14 -71 4 -129 -10 -129 -32 0 -6 15 -13 32 -14 59 -4 99 -23 110 -50
24 -64 2 -152 -52 -202 -26 -25 -28 -30 -17 -53 l12 -26 26 31 c19 24 34 32
62 32 29 1 37 5 42 25 8 31 0 37 -20 17 -29 -28 -56 -39 -68 -27 -18 18 100
121 126 112 22 -8 67 -3 67 8 0 3 18 7 40 8 22 0 51 2 66 3 35 3 71 -34 79
-82 l7 -40 20 43 c10 24 28 53 38 64 18 20 18 20 -35 21 -50 0 -63 6 -120 48
-9 6 -27 -1 -56 -22 -53 -40 -82 -40 -120 -3 -24 25 -29 37 -29 81 0 41 5 56
25 75 24 25 45 29 120 26 l40 -2 -30 16 c-17 8 -38 27 -46 41 l-16 26 -16 -34z"/>
<path d="M870 1211 c0 -5 7 -11 15 -15 8 -3 15 -1 15 3 0 5 -7 11 -15 15 -8 3
-15 1 -15 -3z"/>
<path d="M1027 1173 c-16 -15 -6 -39 18 -41 17 -1 23 2 19 13 -3 8 -12 11 -22
8 -11 -5 -14 -2 -9 10 7 18 5 21 -6 10z"/>
<path d="M1085 1130 c3 -5 12 -7 20 -3 21 7 19 13 -6 13 -11 0 -18 -4 -14 -10z"/>
<path d="M335 1070 c-3 -5 1 -10 10 -10 9 0 13 5 10 10 -3 6 -8 10 -10 10 -2
0 -7 -4 -10 -10z"/>
<path d="M926 1021 c-4 -5 -2 -12 3 -15 5 -4 12 -2 15 3 4 5 2 12 -3 15 -5 4
-12 2 -15 -3z"/>
<path d="M2320 1000 c0 -5 5 -10 11 -10 5 0 7 5 4 10 -3 6 -8 10 -11 10 -2 0
-4 -4 -4 -10z"/>
<path d="M952 963 c-4 -62 -20 -90 -63 -107 -22 -9 -50 -16 -62 -16 -20 0 -22
-4 -20 -43 2 -34 -3 -48 -23 -70 -14 -15 -30 -27 -37 -28 -30 -3 -64 4 -84 17
-28 18 -50 18 -50 0 0 -8 15 -16 38 -20 82 -13 137 -100 126 -200 l-5 -55 31
20 c18 10 39 19 48 19 47 0 107 -61 113 -116 5 -39 4 -38 19 -25 10 8 12 26 5
78 -9 72 -2 165 11 144 5 -7 11 15 15 50 10 98 8 109 -17 118 -13 5 -28 15
-34 22 -18 24 -35 89 -27 107 4 9 8 21 8 27 1 5 11 14 23 21 13 6 20 14 16 17
-3 4 6 16 21 28 26 21 26 45 0 35 -8 -3 -14 -1 -14 4 0 6 -8 10 -18 10 -14 0
-18 -9 -20 -37z m-25 -245 c19 -9 39 -50 35 -70 -1 -5 5 -8 14 -8 12 0 15 -6
10 -25 -20 -79 -48 -105 -114 -105 -53 0 -60 13 -56 119 4 104 32 127 111 89z"/>
<path d="M970 890 c0 -5 5 -10 11 -10 5 0 7 5 4 10 -3 6 -8 10 -11 10 -2 0 -4
-4 -4 -10z"/>
<path d="M493 761 c-6 -17 -26 -40 -44 -52 -19 -11 -25 -18 -14 -14 11 5 35
10 53 13 40 5 48 21 30 56 l-14 26 -11 -29z"/>
<path d="M1040 730 c0 -5 10 -10 23 -10 18 0 19 2 7 10 -19 13 -30 13 -30 0z"/>
<path d="M61 693 c0 -6 -14 -20 -31 -30 -38 -22 -38 -42 0 -78 37 -36 38 -53
3 -81 -23 -18 -26 -25 -16 -35 10 -10 13 -10 13 0 0 7 4 10 9 6 6 -3 13 1 18
9 12 21 102 27 131 8 12 -8 22 -10 22 -6 0 5 11 -11 25 -35 14 -23 25 -51 25
-60 0 -32 13 -31 29 1 27 53 62 72 144 77 21 1 25 51 4 51 -40 0 -61 82 -37
144 11 29 0 33 -44 16 -18 -7 -26 -17 -26 -34 0 -55 -48 -81 -157 -85 -57 -2
-63 0 -80 25 -9 15 -20 48 -24 73 -3 25 -7 41 -8 34z m294 -162 c-3 -5 0 -13
6 -17 16 -9 -18 -35 -36 -28 -17 7 -7 42 14 47 9 3 17 5 19 6 2 0 1 -3 -3 -8z"/>
<path d="M3850 690 c0 -5 5 -10 10 -10 6 0 10 5 10 10 0 6 -4 10 -10 10 -5 0
-10 -4 -10 -10z"/>
<path d="M1015 512 c-4 -46 -5 -85 -2 -88 7 -7 21 141 15 158 -3 7 -8 -24 -13
-70z"/>
<path d="M2416 518 c-20 -28 -21 -50 -1 -24 8 11 21 16 30 12 13 -4 14 -2 5
14 -13 25 -15 25 -34 -2z"/>
<path d="M3472 520 c0 -14 2 -19 5 -12 2 6 2 18 0 25 -3 6 -5 1 -5 -13z"/>
<path d="M3450 484 c0 -8 5 -12 10 -9 6 4 8 11 5 16 -9 14 -15 11 -15 -7z"/>
<path d="M2405 460 c3 -5 8 -10 11 -10 2 0 4 5 4 10 0 6 -5 10 -11 10 -5 0 -7
-4 -4 -10z"/>
<path d="M3438 449 c-11 -7 -10 -11 2 -23 12 -12 19 -12 37 -3 l22 12 -24 11
c-13 6 -29 8 -37 3z"/>
<path d="M3526 451 c-3 -5 1 -11 9 -14 9 -4 12 -1 8 9 -6 16 -10 17 -17 5z"/>
<path d="M637 353 c-2 -5 -1 -19 4 -33 7 -23 7 -23 8 8 1 31 -3 40 -12 25z"/>
<path d="M246 265 c-17 -13 -34 -21 -39 -18 -6 3 -7 1 -3 -5 3 -6 -1 -18 -10
-26 -15 -15 -8 -22 19 -17 4 1 7 -4 6 -11 -1 -7 1 -21 6 -31 4 -9 5 -30 3 -47
-4 -29 -4 -29 21 -14 23 14 26 22 26 75 0 39 5 63 14 68 10 7 11 13 2 30 -14
25 -10 26 -45 -4z"/>
<path d="M601 243 c-39 -40 -43 -47 -33 -69 6 -13 9 -32 6 -41 -4 -10 5 -5 19
12 21 24 32 29 68 29 55 -1 90 -10 101 -26 8 -13 11 -45 11 -111 l0 -37 81 0
c82 0 106 9 106 39 0 12 -3 11 -18 -2 -23 -21 -61 -22 -90 -1 -12 8 -22 10
-22 5 0 -20 -16 -11 -17 9 -1 11 2 18 7 15 4 -3 10 11 12 30 2 19 1 35 -3 35
-4 0 -25 15 -47 33 -22 17 -54 40 -71 49 -17 9 -39 30 -48 46 l-18 29 -44 -44z"/>
<path d="M2293 143 c9 -2 17 -8 17 -13 0 -5 3 -15 6 -24 4 -12 0 -16 -15 -16
-12 0 -21 -6 -21 -16 0 -11 6 -14 20 -9 15 5 20 2 20 -13 0 -11 -7 -22 -15
-26 -24 -9 -17 -26 10 -26 24 0 25 2 25 69 0 63 -2 69 -22 75 -13 3 -27 5 -33
5 -5 -1 -2 -3 8 -6z"/>
<path d="M2437 89 c7 -7 15 -10 18 -7 3 3 -2 9 -12 12 -14 6 -15 5 -6 -5z"/>
<path d="M3557 72 c-10 -10 -17 -24 -17 -30 0 -7 -14 -12 -31 -12 -50 0 -29
-25 24 -28 l47 -3 0 45 c0 26 -2 46 -3 46 -2 0 -11 -8 -20 -18z"/>
<path d="M498 49 c-10 -5 -18 -19 -18 -29 0 -30 14 -24 27 10 6 17 11 30 10
30 -1 0 -10 -5 -19 -11z"/>
<path d="M2440 15 c0 -8 4 -15 10 -15 5 0 7 7 4 15 -4 8 -8 15 -10 15 -2 0 -4
-7 -4 -15z"/>
</g>
</svg>
